<?xml version="1.0" encoding="UTF-8"?>
<!DOCTYPE svg PUBLIC "-//W3C//DTD SVG 1.1//EN" "http://www.w3.org/Graphics/SVG/1.1/DTD/svg11.dtd">
<!-- Creator: CorelDRAW 2021 (64-Bit) -->
<svg xmlns="http://www.w3.org/2000/svg" xml:space="preserve" width="992px" height="558px" version="1.1" style="shape-rendering:geometricPrecision; text-rendering:geometricPrecision; image-rendering:optimizeQuality; fill-rule:evenodd; clip-rule:evenodd"
viewBox="0 0 992 557.97"
 xmlns:xlink="http://www.w3.org/1999/xlink"
 xmlns:xodm="http://www.corel.com/coreldraw/odm/2003">
 <defs>
  <style type="text/css">
   <![CDATA[
    .fil0 {fill:#003964}
   ]]>
  </style>
 </defs>
 <g id="Layer_x0020_1">
  <metadata id="CorelCorpID_0Corel-Layer"/>
  <path class="fil0" d="M-0.02 158.17l0 54.74 1.68 0.34 0.49 4.21c3.76,2 2.88,1.09 4.29,4.75 -1.16,2.42 -3.59,4.04 2.5,7.04 -0.12,0.11 -0.34,0.06 -0.42,0.27l-4.42 1.44c-0.14,0.05 -0.29,0.06 -0.42,0.11 -0.14,0.05 -0.28,0.1 -0.4,0.16 -1.44,0.7 -0.12,-0.76 -1,0.8 0.81,1.53 -0.71,0.27 0.92,0.82 2.37,0.8 0,0.15 1.59,0 2.72,-0.25 1.15,-0.08 3.09,0.17 3.99,0.53 1.76,-1.43 5.44,1.08 -0.41,0.5 -0.09,0.16 -0.73,0.74 -0.11,0.11 -0.76,0.68 -0.8,0.71 -2.43,1.93 -5.6,2.08 -8.79,2.1 3.26,3.39 7.87,-0.05 11.32,2.13l-5.55 4.55 -5.84 -0.62c1.53,3.34 9.83,3.17 13.37,3.62 -0.15,2.19 -2.44,3.64 -3.22,5.36 1.63,1.63 3.23,1.8 5.36,2.8 -0.99,2.25 0.56,0.56 -1.72,2.15 -1.16,0.8 -1.21,0.46 -2.24,0.88 -1.43,0.6 -1.07,0.98 -2.25,1.81l-1.61 0.63c1.7,1.29 4.28,1.05 6.96,1.07 -0.42,1.96 0.2,0.15 -0.8,1.76 -1.28,2.05 -0.54,-0.3 -1.13,1.82l2.63 0.29c0.63,-3.23 0.18,-5.47 1.97,-7.91 1.01,-1.37 0.43,0.15 0.87,-1.74l0.89 -4.43c0.98,-3.11 1.44,-9.08 3.49,-11.36 1.52,-1.69 1.48,-2.96 2.9,-4.53 1.95,0.69 2.55,2.46 3.09,4.3l1.94 4.68c0.65,2.09 0.99,0.95 1.65,3.55 0.38,1.49 0.63,3.99 1.04,5.79 0.74,3.28 1.36,2.35 2.05,4.67 0.34,1.18 0.24,1.59 0.47,2.65 0.72,3.25 5.45,8.89 9.16,6.62 -0.99,-0.56 -1.54,-0.38 -2.4,-0.99 -1.7,-1.21 -1.41,-1.47 -0.83,-3.01 0.15,-0.05 0.37,-0.27 0.46,-0.12l7.25 -1.04c-3.71,-3.04 -3.54,-2.31 -6.79,-4.23 -1.44,-0.85 -0.88,-0.8 -2.08,-1.97 1.6,-1.02 1.71,-1.33 3.59,-0.61l1.83 -2.16c0.08,-0.05 0.27,-0.14 0.34,-0.17 0.06,-0.04 0.23,-0.09 0.34,-0.16 -1.79,-1.11 -2.12,-0.49 -3.16,-2.59 3.83,-2.86 7.19,-1.24 7.79,-1.26 1.08,-0.04 1.92,-0.72 2.65,-1.32 -0.11,-0.06 -0.29,-0.25 -0.34,-0.13l-2.8 0.06c-1.81,0.09 -4.6,-1.12 -6.14,-2.04l-0.59 -0.43c-0.12,-0.09 -0.42,-0.39 -0.52,-0.49 -0.66,-0.68 -0.41,-0.21 -0.84,-1.1l1.64 -0.8c1.54,-0.67 1.25,-0.09 3,0.21 2.28,0.38 0.91,-0.24 2.7,0.05 1.8,0.3 0.74,0.69 3.56,0.66l-2.75 -2.23c-0.14,-0.06 -0.58,-0.24 -0.74,-0.29 -0.72,-0.23 -0.82,-0.22 -1.65,-0.35 0.76,-2.66 -0.36,-3.04 -0.54,-5.84 2.21,0.3 0.9,0.87 3.45,1.46 0.73,-1.17 0.61,-1.75 1.94,-2.69 -1.15,-0.98 -1.08,-2.26 -2,-3.61l0.77 -0.31c0.84,-0.42 0.38,-0.03 1.07,-0.56l2.07 -2.29c0.43,-0.52 0.56,-1.27 0.84,-1.98 1.6,0.8 0.1,0.1 1.22,0.82 0.18,0.12 1.18,0.7 1.18,0.7 -0.23,1.42 -0.53,1.71 -0.96,2.75l3.62 -0.08 -1.48 4.28c-1.81,0.53 -1.04,-0.47 -2.81,0.56 -0.21,1.87 -0.72,4.46 1.49,4.04 2.2,-0.41 1.84,-2.24 2.87,-3.82 4.83,-0.34 2.95,1.19 2.9,4.67 -0.46,0.33 -0.46,0.38 -1.24,0.74 -0.11,0.05 -0.7,0.23 -0.87,0.29l0.67 1.92c0.4,1.25 -0.3,0.35 0.99,1.28 1.43,1.02 2.52,1.02 3.96,2.23 -1.93,2.02 -4.82,1.01 -7.19,1.19 -1.49,0.11 -0.91,-0.11 -1.58,1.13 2.34,0.81 1.47,1.12 2.98,1.35 2.25,0.35 1.21,-0.58 3.96,-0.3 2.53,0.27 4.21,0.33 6.92,1.53 -0.55,1.65 0.63,-0.39 -0.56,0.61 -0.05,0.05 -0.18,0.15 -0.25,0.21 -3.05,2.44 -3.42,1.24 -6.32,2.47 -0.12,0.04 -0.41,0.2 -0.52,0.25l-0.57 0.18c-0.12,0.04 -0.52,0.15 -0.64,0.19l-0.7 0.23c3.26,3.74 6.74,-1.58 9.88,1.55 -0.81,2.08 -1.17,1.14 -2.56,2.05 -0.67,0.43 -2.03,2 -2.51,2.61 -2.58,-0.71 -5.37,-0.99 -7.55,-0.28 4.07,1.04 2.79,1.92 7.81,1.73 2.67,-0.1 0.24,-0.17 1.66,0.3 0.11,0.04 0.24,0.11 0.36,0.15 0.12,0.04 0.25,0.11 0.39,0.14 1.95,0.57 3.44,0.04 4.77,1.56 -1.78,5.13 -6.98,2.55 -8.78,5.17 0.14,0.1 0.34,0.05 0.44,0.25 0.09,0.2 0.31,0.19 0.44,0.23 1.24,0.36 -0.47,0.18 1.45,0.31 2.79,0.19 4.13,-0.11 7.37,1.22 0.01,2.92 -0.77,2.42 -2.96,3.53l-2.39 2.63c-1.9,1.83 0.16,-1.16 -0.5,0.53l6.11 0.17c-0.1,0.9 -0.25,0.99 -0.27,1.06l-0.83 2.56 4.82 -0.56c0.06,3.96 -0.87,3.12 -3.63,4.53l-1.19 0.74c3.02,0.62 2.49,0.71 5.54,0.02 0.62,-1.93 0.46,-1.39 0.4,-3.74 1.27,-0.3 1.68,-0.56 2.38,-1.17 -2.77,-2.23 -1.89,-2.41 -0.15,-5.35 1.11,-1.86 2.38,-4.44 3.9,-5.76 3.18,1.49 3.89,6.15 4.87,8.92l1.34 3.2c0.74,2.51 1.33,6.64 2.8,8.71l1.21 2.71c0.03,0.14 0.06,0.28 0.1,0.43l0.87 3.22c0.82,2.51 1.62,1.23 1.19,4.26 -0.5,3.52 0.55,9.59 4.55,10.12 -0.17,-2.09 -2.13,-2.24 -0.22,-4.29 -1.1,-1.18 0.12,-0.21 -1.12,-0.95 -0.11,-0.06 -0.73,-0.26 -0.89,-0.33 4.22,-4.22 0.55,-3.56 3.44,-6.61 1.1,-1.17 0.83,-2.29 1.94,-3.7 1.25,-1.58 -0.67,0.07 0.83,-0.47 0.03,-0.01 0.75,-0.2 1,-0.28 0.24,-0.09 1,-0.37 1.25,-0.46 -0.06,-1.76 0.82,-3.15 0.67,-4.55 -0.21,-1.98 -0.21,1.1 -0.2,-0.83 0.01,-2.11 -0.37,0.13 0.8,-1.95 0.76,-1.35 0.25,-0.04 0.8,-1.88 0.54,-1.81 1.32,-2.56 2.93,-3.79 1.04,-0.79 -0.68,-0.06 0.78,-0.56 1.96,1.72 1.23,3.37 0.95,6.16l-0.18 2.52c-0.61,1.76 0,0.15 -0.77,1.35l4.15 0.14c-0.18,3.25 0.04,-0.16 -0.9,2.33 2.31,0.11 1.66,-0.03 3.42,0.78l-1.02 3.53c-0.62,2.67 0.16,0.93 -1.97,2.58l2.93 0.83c-0.13,2.49 -0.55,1.56 -0.92,3.83 1.83,-0.33 1.16,-0.38 2.65,-1.13 0,3.66 1.74,2.84 -0.85,5.26l1.26 0.55c0.12,0.06 0.31,0.18 0.41,0.23 0.11,0.06 0.31,0.16 0.45,0.25l-0.07 4.35c1.45,-0.06 0.85,-0.22 2.45,-0.74 -0.21,6.5 1.17,6.73 -1.44,8.79 1.33,2.87 -0.54,5.75 -0.81,8.87 5.37,-1.07 6.5,-0.5 4.16,-5.25l-0.23 -0.78c0,-0.04 0.01,-0.18 0,-0.21 0,-0.03 0.02,-0.16 0.02,-0.19 -0.18,-4.41 1.48,-2.98 1.98,-6.17 0.28,-1.81 -0.26,-2.47 0.44,-3.88 0.91,-1.83 0.38,-0.42 2.11,-1.69 -0.02,-1.43 -0.54,-1.44 -0.95,-2.58 0.11,-0.1 0.3,-0.36 0.36,-0.27 0.06,0.12 0.37,-0.27 0.64,-0.54 0.07,-0.08 0.19,-0.2 0.27,-0.29l2.42 -2.52c-0.22,-2.77 -0.76,-0.44 -1.02,-3.62 0.03,-1.63 1.93,-3.36 2.87,-7.76 0.99,-4.58 2,-4.54 2.18,-8.79 0.16,-3.82 1.33,-2.41 2.34,-5.25 0.87,-2.42 1.81,-2.51 2.25,-5.31 0.52,-3.29 -0.25,-2.19 1.71,-3.88 -1.56,-1.31 -1.01,-3.32 -0.22,-5.03 0.06,-0.12 0.13,-0.25 0.2,-0.36 1.37,-2.36 0.49,0.35 1.93,-2.69 0.73,-1.54 0.48,-1.61 1.93,-2.41 3.82,1.53 3.47,5.1 4.77,8.25l0.6 0.99c2.49,4.33 0.08,9.24 3.99,11.45 0.41,11.55 1.93,1.14 2.28,13.04 0.08,2.8 0.38,3.44 1.88,5.04 1.87,2 1.95,2.92 1.68,6.15l2.53 0.58 0.16 9.94c1.36,0.76 1.08,0.46 2.37,1.03 0.36,5.01 -1.29,3.73 -0.54,7.91 0.46,2.62 1.22,5.51 1.38,8.29 3.72,1.63 1.02,0.16 3.08,2.46 0.08,0.08 0.2,0.18 0.28,0.26 1.15,1.22 1.05,1.33 1.08,3.5l3.09 -0.57c-0.71,1.32 -1.18,2.95 -0.22,4.35 1.28,-0.79 0.21,0.2 1.02,-0.85 0.93,-1.18 0.95,-2.7 1.21,-4.18 0.37,-2.14 1.31,-2.65 2.42,-3.9 3.76,3.76 2.9,9.55 5.17,12.36 3.95,-0.62 2.97,-4 2.81,-7.42 2.53,-2.49 2.19,0.04 2.29,-4.82 2.22,-0.36 2.27,-1.26 4.33,-2.12 0.19,3.25 1.29,2.62 0.04,5.91 2.43,1.3 1.05,-0.69 1.98,1.58 -0.91,0.35 -1.03,0.39 -1.91,0.85 -0.1,0.05 -0.24,0.12 -0.33,0.17 -0.73,0.44 -0.23,0.11 -0.56,0.38 -1.18,0.95 -0.04,-0.94 -0.53,0.64l4.79 0.34c0.36,1.05 -0.34,0.96 -0.78,1.99l2.6 1.28c-0.47,1.81 -0.25,1.32 -0.56,3.16 -0.42,2.41 0.36,1.22 -1.23,2.53l1.38 0.64c0.09,0.05 0.28,0.15 0.37,0.2 0.08,0.04 0.25,0.11 0.36,0.19l2.21 5.11c1.01,3.11 0.21,0.41 -0.61,3.03 1.98,-0.45 0.6,-0.56 3.11,-0.55l1.51 6.83c0.65,1.29 0.63,0.96 1,2.59 3.56,-0.32 -1.31,0.16 1.46,-0.58 0.05,-0.01 -0.06,-1.4 1.52,0.17 1.53,1.53 0.22,1.58 -0.24,3.24 3.53,-0.37 1.96,-0.46 4.48,0.9 -1.11,2.03 -2.42,0.14 -0.97,2.62l-3.2 0.16c-0.12,2.12 -0.56,4.37 1.25,4.09 1.73,-0.26 1.67,-1.98 2.36,-3.24l3.12 -0.75c0.14,1.25 0.2,1.52 0.37,2.33 0.39,1.79 -0.35,0.46 0.64,1.95 2.57,-0.37 1.97,-4.88 3.77,-8.63 1.17,-2.45 1.42,-4.79 2.29,-6.99 0.76,-1.93 0.38,-0.19 1.05,-2.06 1.87,1.09 0.46,1.71 3.16,1.35 1.4,-0.18 0.68,-0.15 1.53,-0.73l0.92 -0.77c0.06,-0.06 0.19,-0.18 0.3,-0.26 -1.34,-1.35 -2.28,-1.26 -2.7,-3.1 4.6,-2.76 7.09,0.63 10.9,-2.58 -1.76,-0.86 -2.75,0.95 -4.77,0.2 -0.12,-0.04 -0.24,-0.13 -0.36,-0.18l-0.69 -0.4c-0.12,-0.06 -0.24,-0.14 -0.37,-0.19 -0.93,-0.42 -2.35,-0.68 -3.13,-1.07l-2.49 -1.98 2.65 -0.99c-0.52,-0.57 -0.71,-1.24 -2.48,-1.79l-0.07 -0.02 -0.07 -0.02 -0.04 -0.01 -0.11 -0.03c-0.95,-0.28 -1.92,-0.57 -2.75,-1.09 -0.25,-0.15 -0.49,-0.33 -0.72,-0.52 -1.3,-0.87 -2.46,-2.05 -3.79,-3.7 -1.54,-1.9 -2.7,-2.79 -3.16,-4.84 -0.4,-1.04 -0.31,-1.93 -0.18,-3.22 0.03,-0.57 0.08,-1.2 0.17,-1.9l0 -0.02c0.08,-1.41 0.07,-3.25 -0.25,-5.82l-5.78 2.62 0 0 0 -0.01 0.01 -0.03 0.01 -0.03 0 -0.03 0.01 -0.05 0.02 -0.05 0.01 -0.06 0 -0.01 0.01 -0.06 0.02 -0.08 0.02 -0.08 0.01 -0.05c0.35,-1.54 1.46,-6 2.85,-7.81l0 0c0.65,-1.52 1.31,-3.05 1.9,-4.49 0.94,-3.05 1.65,-6.36 1.65,-6.36l0 -0.01 -3.12 -3.26c-4.4,-4.29 -10.98,-10.15 -11.88,-12.4l13.36 -1.09 -0.03 -7.43 25.62 0.39 0.64 -10.26 10.45 -0.1 0.17 74.2 -0.03 0.11 0.01 1.23 0 0.01c-0.01,0.01 -0.02,0.01 -0.07,0l-0.86 -0.02 -0.16 0.01c0.39,0.79 -0.68,1.15 1.46,1.39 -3.67,-0.15 -1.9,0.8 -5.17,0.41l-1.85 0.13c-0.04,-0.01 -0.17,-0.02 -0.22,-0.03 -6.03,-1 -2.31,-1.15 -3.38,1.4 0.97,0.37 1.23,0.22 1.89,0.43 3.9,1.24 -1.47,2.04 3.79,1.55 1.7,-0.16 0.86,0.53 1.55,-0.94 1.15,0.4 1.47,0.61 2.07,1.55 2.13,-0.69 1.27,-1.75 3.55,-0.94l1.19 0.48c0.1,0.05 0.29,0.13 0.43,0.2l-0.06 -81.16 0.1 0 0 -0.11 26.66 -0.01c0,0 0.03,58.9 0.13,68.75 0.02,0.41 0.02,0.8 0.02,1.17l0 0.06 0 0.13 0 0.02 0 0.01c-0.04,1.48 -0.29,2.74 -1.2,3.92 1.22,2.5 1.91,4.06 0.7,6.45l2.13 1.03c-0.99,1.79 -1.04,0.55 -2.24,2.63l4.24 0.22c0.23,1.41 -1.45,-0.93 -0.09,1.5 1.12,2 1.05,-0.93 1.37,2.45 0.13,-0.09 0.3,-0.37 0.36,-0.27 0.06,0.1 0.27,-0.2 0.35,-0.27l11.25 -11.09c12.63,-11.53 24.89,-22 39.62,-31.7 42.52,-28.02 90.99,-44.17 145,-44.14 14.46,0.01 30.15,0.79 43.77,3.3 8.72,1.6 31.56,5.74 37.86,9.18 21.3,5.27 48.3,20.49 66.18,31.96 9.83,6.31 19.91,14.16 27.89,21.2 4.72,4.17 23.12,20.48 24.66,24.35l-2.44 2.46c2.45,4.14 14.95,18.09 15.81,21.11 0.96,-0.46 0.76,-0.08 1.71,-1.03 0.17,0.28 0.2,1.88 2.16,2.08 2.92,0.31 0.55,0.22 1.56,-0.36 -0.51,-1.11 -1.08,-0.83 -1.85,-2.31 -0.78,-1.47 -0.96,-2.5 -0.95,-3.99 4.18,0.33 -0.43,0.76 3.13,1.02 -0.21,-3.56 -1.47,-2.8 -0.09,-6.19 1.75,-4.27 -0.81,-2.49 0.8,-5.58 -1.19,-1.07 -1.48,-0.11 -1.85,-1.55 2.54,-1.52 1.52,-0.78 2.16,-3.9 0.61,-2.96 0.11,-1.34 2.94,-1.02 -0.38,-1.25 -0.86,-3 0,-4.13 0.64,-0.85 1.43,-0.72 3.2,-1.59 0.08,-0.04 0.22,-0.09 0.33,-0.16 -0.26,-0.1 -0.52,-0.23 -0.79,-0.39 -1.58,-0.79 -3.64,-2.92 -5.73,-5.17l-0.06 -0.05 -4.43 -4.6 0 -0.01 -0.01 -0.01 0 0 0 0 0 0 -0.01 0 -4.53 4.16c-1.2,-0.58 -5.04,-4.21 -5.4,-5.15l-0.13 -74.27 26.75 -0.12 0 0 0 0 0 0.01 0 0 0 0.01 0 0.02 0 0.02 0.01 0.02 0 0.03 0 0.03 0 0.03 0 0.03 0 0.04 0 0.04 0 0.04 0 0.05 0.01 0.05 0 0.05 0 0.05 0 0.12 0.01 0.06 0 0.07 0 0.02 0 0.04c0.03,0.89 0.08,2.35 0.1,3.81l0.01 0.11 0 0.11 0 0.03 0 0.13c0.28,12.94 0.05,28.2 -0.06,42.07l-0.04 19.27 0 0.16 0 0 0 0.46c0.02,2.45 0.41,3.78 -0.69,5.12 -0.07,0.08 -0.18,0.18 -0.26,0.26l-1.79 1.84c4.73,-0.39 0.72,-0.55 3.38,-1.52 0.72,6.77 -0.63,3.14 -0.62,6.88 0.89,-1.18 -0.19,-0.54 1.34,-0.64 1.16,-0.07 0.65,-0.01 1.55,0.37 -0.86,3.01 0.25,1.93 0.96,3.5 1.03,2.31 -0.91,0.51 2.56,2.84 -0.88,2 -0.3,-0.32 -0.92,2.1 -0.17,0.64 -0.12,0.82 -0.26,1.35 -0.37,1.35 0.17,0.66 -0.6,1.38l0.73 0.71c0.94,1.16 0.75,-0.31 0.91,1.66 0.09,1.18 -0.57,1.6 -0.99,3.22 2.41,-0.6 0.71,-0.41 2.8,-1.23 -0.09,1.67 0.07,1.56 0.19,2.87 0.01,0.1 0.07,1.08 0.08,1.14 0.13,0.81 -0.12,0.09 0.24,0.86 0.66,1.36 0.94,-2 0.8,5.75 1.52,-0.29 2.11,-0.52 3.07,-1.5 -0.34,2.28 -1.11,2.06 -0.87,4.8 0.16,1.86 0.29,3.77 0.2,5.11 -0.23,3.62 -2.42,5.24 -2.4,9.63 2.13,-0.16 2.19,-0.23 3.8,-0.71 -0.05,2.89 -0.04,3.25 -0.96,5.16l1.89 0.86c-0.86,3.08 -1,1.04 0.41,3.98l0.06 0.55c1.21,-0.16 2.52,-0.88 3.61,-1.39 0.4,-2.5 -0.24,-1.46 0,-3.74 0.45,-4.35 1.28,-2.87 2.14,-5.54 0.4,-1.27 -0.34,-0.63 0.53,-2.03 0.88,-1.41 2.23,-1.19 4.25,-1.04 0.33,2.98 0.32,2.69 -0.34,5.06 2.41,0 2.15,-0.15 2.32,-2.35 0.24,-2.93 1.44,-5.97 2.37,-8.11 1.63,-3.73 2.8,-8.63 3.85,-12.8 0.68,-2.68 0.7,-5.95 3.66,-7.06 3.42,2.36 4.75,22.25 7.46,16.81 1.37,-2.74 -0.07,-0.04 -1.15,-2.24 1.14,-0.95 0.85,-0.91 2.62,-0.45 -0.54,-3.36 2.81,-3.83 -3.98,-3.58l1.94 -3.28c-3.3,-2.66 -1.72,-3.42 -0.94,-9.13 0.4,-2.98 -1.52,-7.05 2.32,-8.9 1.03,0.53 1.13,1.88 2.63,1.98 2.8,0.18 0.67,0.14 1.56,-0.48 -0.48,-1.1 -0.25,-0.39 -0.96,-1.16 -2.23,-2.46 -2.3,-5.36 -0.53,-8.03 0.69,-1.06 1.19,-2.18 2.31,-2.9 -0.34,-2.68 -0.98,-2.91 0.25,-4.96l-1.98 -0.52c0.47,-1.72 1.37,-1.66 1.97,-3.51 1.15,-3.56 -0.48,-1.69 3.77,-2.52 -0.5,-1.18 -0.94,-1.71 -1.1,-3.27 1.88,-1.83 3.06,-1.69 3.59,-4.08 0.61,-2.75 -0.26,-3.68 1.02,-5.57 1.52,-2.25 0.59,-3.3 2.82,-5.06 3.86,-3.05 3.44,2.58 2.74,4.95 0.7,0.35 1.32,0.54 2.05,0.98l-2.14 2.62 4.22 0.3c0.25,0.85 -0.77,1.11 1.78,3.28 -0.59,2.12 -0.15,-0.42 -0.7,1.72 -0.83,3.21 -0.24,4.12 -4.04,3.1 1.38,1.52 1.25,1.56 4.28,1.6l0.17 3.05c1.9,-0.5 1.01,-0.66 2.16,-0.17 0.04,2.66 0.93,3.63 1.37,5.84 0.83,4.21 0.31,3.36 4.02,2.74 -0.39,2.08 0.57,0.93 -1.11,2.16l1.83 -0.21c-0.14,-4.1 -0.34,-4.09 0.85,-8.06 0.83,-2.8 -0.69,-3.06 0.73,-7.66l0.96 -2.74c2.4,-3.38 3.49,-7.68 6.02,-9.12 -0.08,-2.13 -0.58,-1.6 -0.24,-3.48 0.35,-1.99 1.03,-1.07 0.67,-3.47 -0.13,-0.85 -1.02,-3.18 0.55,-3.88 0.21,-0.1 1.05,0.04 2,0.07 -0.13,-4.7 -0.15,-3.2 2.14,-5.6 1.46,-1.53 0.59,0.18 1.09,-2.62l0.1 -3.28c0.2,-2.29 0.18,-0.5 1.17,-2.05 0.66,-1.05 2.57,-7.8 4.99,-5.41 0.99,1.14 0.82,3.64 0.62,5.44l2 1.03c-0.73,1.28 -0.54,0.59 -0.88,0.99 -1.39,1.61 -0.37,-0.73 -1.15,1.59l5.55 4.14 -1.32 4.64 -2.05 0.85 2.68 0.75 -0.03 4.06c1.56,-0.55 0.78,-0.58 2.54,-1.09 0.02,3.99 1.14,1.86 -0.59,5.25 0.09,0.04 0.25,-0.04 0.28,0.06 0.33,1.02 0.65,-0.21 1.75,0.46l-0.32 4.58 2.77 -0.66c-0.43,2.43 -0.72,6.09 0.75,8.25 2.68,-2.6 1.53,-7.96 4.65,-9.8 2.27,0.94 2.38,3.27 2.95,5.46 0.82,3.2 2.13,3.39 2.37,6.61 3.34,0.32 5.51,1.39 4.31,-2.42 -0.02,-0.08 -0.06,-0.23 -0.09,-0.3l-0.41 -0.82c-0.4,-0.77 -1.52,0.16 0.3,-2.12l-1.94 -1.03c0.81,-1.97 1.72,-1.16 0.34,-3.59l-1.76 -1.58c3.74,-2.41 -1.11,-3.4 1.23,-9.25 1.71,-4.27 -2.79,-9.17 2.52,-11.47 1.42,0.78 2.09,1.76 3.99,2.1 -0.08,-2.69 -0.04,-0.26 -1.64,-2.85 -0.87,-1.39 -0.99,-2.5 -1.05,-4.1 1.37,0.45 0.92,0.91 2.76,1.15 -0.06,-2.94 0.11,-1.81 -1.29,-2.64l-0.75 -0.32c2.72,-1.98 0.59,0.22 1.67,-2.48 1.06,-2.67 -0.07,-0.51 1.9,-2.17 -0.17,-0.48 -0.61,-1.3 -0.63,-1.37 -0.45,-1.61 -0.08,-2.06 -0.77,-3.35 -1.29,-2.38 -0.09,1.16 -0.8,-0.96 2.85,-2.2 0.79,-0.29 1.68,-3.3 0.63,-2.13 0.97,-1.75 3.35,-1.77 -0.27,-3.06 -0.12,-4.33 2.44,-5.85 0.1,-0.06 0.28,-0.17 0.37,-0.22 0.09,-0.05 0.26,-0.14 0.38,-0.23l-0.39 -0.82c-0.83,-2.13 0.2,-1.81 0.45,-4.01 0.2,-1.69 0.96,-1.85 1.58,-3.58 0.55,-1.52 0.72,-3.34 3.86,-3.67 0.07,-0.01 0.26,0.01 0.31,0.01 0.06,0 0.22,0 0.32,0.03 0.85,1.79 0.49,4.49 0.87,6.57 0.03,0.16 0.07,0.36 0.09,0.49 0.03,0.14 0.09,0.33 0.1,0.5l-1.88 1.42 4.5 0.25c-0.95,2.77 -0.06,0.21 -1.12,2.11l3.16 0.39c-0.45,2.94 -0.88,1.86 -0.95,5.79l-3.09 0.04c1.49,0.94 2.72,1.3 4.05,1.91 -0.08,1.61 -0.46,2.66 -0.62,3.79 1.12,-0.41 1.69,-1.26 2.43,-1.95 0.54,0.82 0.08,-0.12 0.47,1.16 0.11,0.34 0.39,1.61 0.39,1.7 0.18,1.91 0.37,1.21 -0.79,2.34l1.93 1.03c-1.57,6.71 0.99,4.11 2.98,3.34 -0.5,1.4 -1.3,1.94 -1.27,3.8 0.03,1.57 0.39,2.78 0.25,5.27 -0.26,4.84 -2.09,5.85 -2.15,10.16 6.52,-2.23 -0.33,-6.07 7.23,-6.35 -0.61,-1.38 -1.21,-3.45 0.48,-4.65 2.62,-1.87 2.36,0.1 2.91,-3.68 0.38,-2.58 -0.19,-2.95 0.66,-5.13 0.17,-0.42 0.09,0.03 0.44,-1.25 0.32,-1.14 0.51,-2.93 1.36,-3.74 -0.83,-0.81 -1.27,0.72 0.6,-0.02 0.04,-0.02 0.21,-0.08 0.26,-0.1l1.06 -0.97c0.52,0.28 1.45,0.77 1.9,1.13 0.13,2.24 0.44,3.48 -0.17,5.29l1.07 0.61c2.29,1.16 -0.5,-0.41 0.91,0.43l-1.57 2.33c2.05,0.78 2.5,0.6 2.75,2.52 0.01,0.05 -0.01,0.21 0.03,0.3l3.71 0.16c-0.86,-4.48 -0.57,-0.38 1.94,-3.29 0.59,-0.86 -0.26,-1.22 1.41,-3.28l2.04 -1.95c1.19,-0.88 0.45,-0.1 1.17,-1.05 3.37,-4.45 3.39,-9.03 5.75,-14.4 2.64,-0.13 3.11,3.38 3.82,5.39 1.03,2.92 -0.38,7.01 3.62,7.16 0.52,-1.1 0.51,-2.57 0.75,-4.4 0.55,-4.14 -0.15,-0.93 1.43,-3.6 1.22,-2.06 0.02,-1.9 1.47,-3.73 0.89,-1.12 2.05,-1.48 3.89,-1.12 0.43,5.58 0.24,4.92 2.22,6.04 -1.84,2.34 -1.25,-0.31 -1.94,2.74l4.57 0.17c0.09,-2.29 -0.05,-3.97 1.06,-5.86 1.3,-2.21 1.94,-1.39 2.16,-4.99 1.15,-0.25 3.55,-0.85 3.92,-0.89 1.38,-0.15 2.75,-0.07 4.75,-0.33 -0.38,-1.22 -0.11,-1.07 -1.2,-2.26 -1.63,-1.79 -4.58,-1.83 -6.2,-4.08 1.39,-0.87 1.69,-0.67 3.58,-0.51l2.57 -2.59c-2.18,-1.27 -3.14,-0.24 -3.55,-3.1 1.59,-1 4.13,-1.11 6.51,-0.88 2.6,0.26 3.83,-0.89 5.64,-1.86 -2.93,-1.01 -1.59,1.68 -8.74,-0.76 -0.13,-0.05 -0.27,-0.08 -0.4,-0.13 -1.42,-0.52 -3.02,-1.35 -3.54,-2.57 2.17,-1.33 2.95,-1.3 6.03,-1.16l-0.33 -7.01c2.87,0.17 1.01,1.16 4.07,0.81 0.8,-1.87 -0.3,-0.16 -0.13,-1.11l1.2 -1.35c-2.75,-1.71 -0.45,-0.16 -2.06,-3.61l0.75 -0.25c0.86,-0.39 0.33,0.03 1.03,-0.51l2.16 -3.07c0.45,-0.79 0.47,-1.39 0.85,-2.14l1.68 2.22c2.35,0.91 -1.07,-1.13 1.06,0.13 -0.5,0.71 -2.09,2.98 -2.2,4.42l5.33 -2.99c3.48,-3.12 1.41,-4.05 3.46,-8.46 0.73,-1.59 0.78,-4.01 1.59,-5.69 3.81,-7.91 3.3,-13.31 4.71,-15.39 0.63,-0.92 0.78,-0.9 1.52,-2.04 0.96,-1.45 0.08,-1.16 1.79,-1.82 1.87,1.05 1.26,2.46 1.26,2.51 0.04,0.54 -0.41,-0.1 0.36,1.03 1.39,2.04 1.08,2.42 2.21,4.4 1.16,2.02 0.45,4.26 1.51,6.29 0.69,1.33 1.75,3.11 2.16,5.11 1.5,7.38 1.57,2.06 2.68,7.61 3.35,-1.55 1.62,0.37 2.98,1.15 0,-2.02 -0.53,-1.64 -0.24,-2.86 0.19,-0.82 1,-1.7 1.91,-1.39 1.2,0.42 1,-0.65 0.51,2.11 -0.25,1.48 -1,0.06 -0.36,2 0.85,-0.77 2.2,-3.53 3.32,-1.03 1.21,2.71 0.27,-1.19 0.03,0.63 -0.24,1.73 -0.08,-0.07 -0.46,0.86 -0.59,1.47 -0.5,-0.56 -0.09,2.14l-2.66 0.16 0.13 5.05 2.8 -2.21c0.08,-0.09 0.17,-0.22 0.25,-0.32l0.81 -1.08 0 -76.51c-1.13,1.85 -0.99,2.43 -1.37,3.87 -0.41,1.58 -1.37,2.36 -2.16,3.69 -0.19,-3.43 -3.08,-13.14 -5.25,-15.76 -2.86,1.27 -2.93,6.81 -3.9,9.29 -1.36,3.49 -1.85,6.71 -3.85,9.56 -1.49,-1.19 -1.5,-2.03 -1.85,-4.38 -1.24,0.16 -1.68,0.31 -2.51,-0.21 -0.03,-0.2 -0.32,-1.63 -0.32,-1.66l-1.32 -4.31c-0.04,-0.17 -0.23,-0.14 -0.33,-0.23 0.68,-1.86 1.08,-4.66 0.36,-6.52 -0.04,-0.1 -0.1,-0.23 -0.15,-0.34 -0.04,-0.11 -0.1,-0.25 -0.14,-0.36 -1.37,-3.7 -1.93,-6.94 -3.5,-10.36l-0.57 -1.09c-2.12,1.47 -1.96,3.98 -3.05,6.35 -0.27,0.57 -0.35,0.71 -0.51,1.04 -0.07,0.14 -0.3,0.53 -0.37,0.68 -0.9,1.92 -1.33,4.61 -1.41,6.67 0,0.06 -0.01,0.22 -0.01,0.28 0.07,1.25 -0.23,-0.23 0.51,1.43 -1.9,-0.27 -2.37,-1.97 -2.6,1.03 -0.11,1.36 0,3.67 -0.83,4.98 -0.94,-0.04 -1.83,0.38 -2.15,-0.69 -0.48,-1.6 -0.09,0.9 1.11,-1.46 -3.81,-1.48 -1.22,-2.17 -1.56,-3.79 -0.47,-2.31 -0.52,-1.06 -1.02,-1.67 -2.13,0.94 0.14,-0.25 -1.61,1.17 -0.25,0.21 -0.5,0.51 -0.97,0.8 -0.51,-1.05 -0.48,-0.96 0.01,-1.74l1.62 -1.43 -2.15 -3.21 -2.44 5.48 -1.87 -0.35c0.24,3.25 1.03,-0.43 0.47,2.78l3.25 1.23c-3.21,0.16 -4.21,-1.2 -6.44,0.23l2.69 1.28 -2.3 1.71c1.17,1.68 1.65,0.53 0.47,2.08 -0.76,0.99 -0.42,0.17 -1.87,1.02 0.84,0.75 2.4,1.52 3.6,2.32 -0.29,0.3 0.56,1.6 -2.7,0.94 -1.99,-0.41 -0.18,0.26 -1.93,-1.48 -1.04,-1.03 -1.97,-0.92 -3.15,-1.55 -0.98,-0.52 -0.34,-0.15 -0.67,-1.2 -0.95,-3.05 -2.22,-1.73 -4.99,-1.78l-2.6 -4.72c-0.59,-0.69 -1.61,-0.92 -2.22,-0.99 -2.07,-0.2 -2.89,-0.83 -4.05,-0.18 -1.43,0.81 0.04,0.88 -2.04,1.05 -3.2,0.26 -3.41,-0.03 -4.79,-2.18 -2.97,0.64 -6.58,0.59 -8.7,2.16 -0.93,0.7 -0.92,2.51 -2.02,2.55l-1.4 -0.61c-0.07,-0.2 -0.27,-0.2 -0.2,-0.14l-1.63 3.05c-2.29,0.02 -1.69,0.28 -3.4,-0.57l-0.95 -0.54c-0.1,-0.05 -0.24,-0.11 -0.34,-0.16 -0.29,-0.12 -1.03,-0.31 -1.45,-0.51l0.8 3.2c0.35,2.31 0.87,0.73 0.49,3.23 -2.19,-1.17 0.65,-0.62 -1.92,-1.27 -1.18,4.52 -0.6,2.1 0.68,5.08 -1.87,-0.53 -0.93,-0.61 -1.97,0.08 -0.37,2 -0.27,2.11 -0.81,4.04 1.25,0.76 1.34,-0.63 2.33,0.92 0.05,0.07 0.12,0.22 0.14,0.3 0.03,0.07 0.06,0.24 0.07,0.32 0.16,1.11 -0.28,0.98 -0.57,1.78 1.9,-0.71 1.26,-0.15 2.88,-1.16 1.43,-0.88 0.22,-0.78 2.32,-0.36 -0.39,1.13 -0.26,0.52 -1.14,1.82 0.13,0.1 0.32,0.17 0.43,0.23 1.37,0.8 1.41,0.49 1.84,1.49l-2.75 0.58 -1.84 5.26c-0.03,0.05 -0.09,0.19 -0.12,0.25 -0.72,1.33 0.45,-0.53 -0.4,0.7 -2.76,3.97 -0.28,2.1 -1.61,5.33 -0.79,1.91 -1.72,1.77 0.07,3.68l-0.64 0.09c-2.77,0.43 -1.35,1.22 -2,4.58 -1.78,-0.78 -1.93,-1.42 -2.47,-3.05 -0.05,-0.15 -0.13,-0.34 -0.17,-0.47 -0.04,-0.14 -0.16,-0.22 -0.2,-0.49 -0.03,-0.28 -0.11,-0.34 -0.21,-0.49 -3.89,0.45 -0.96,0.18 -3.62,2.14 -1.65,-2.9 0.55,-1.15 1.55,-3.82 -0.98,-0.61 0.36,-0.21 -0.95,-0.2 -1.86,0 -1.76,0.5 -3.51,-0.14l0.78 2.09c0.01,-0.01 0.06,0.01 0.06,0.04l-0.69 0.49c-2.03,1.37 -2.88,-0.15 -1.48,2.33 0.59,1.05 -0.28,0.24 1.51,1.26 0.84,0.48 0.57,0.32 1.47,0.82l-5.71 -0.73c0.87,2.38 3.43,2.68 5.63,2.12 -1.12,1.39 -3.57,1.29 -5.13,0.93l-0.74 -0.32c-1.48,0.39 -0.23,0.36 -0.98,-0.23 -1.08,-0.84 -0.13,-2.24 -0.27,-3.14 -0.21,-1.26 0.11,0.07 -0.6,-1.46 -0.05,-0.12 -0.13,-0.24 -0.19,-0.36 -0.06,-0.12 -0.13,-0.25 -0.18,-0.37 -0.05,-0.13 -0.11,-0.26 -0.16,-0.39 -0.34,-0.84 -0.38,-1.41 -0.74,-2.61 -1.93,0.54 -2.91,4.76 -2.92,4.74 -0.03,-0.08 -0.1,0.28 -0.18,0.4 -0.68,-0.72 -0.35,0.96 -1,-1.77 -0.62,-2.56 0.25,-2.7 -1.62,-4.53 0.56,-1.43 1.18,-3.03 0.83,-5.04 -0.31,-1.82 -0.06,-0.31 -0.36,-1.15l-0.45 -1.06c-0.3,-0.78 -0.44,-1.34 -0.8,-2.23l-0.88 -3.84c-0.36,-1.55 0.14,0.03 -0.43,-1.11 -1.37,-2.75 -0.78,-2.68 -1.49,-4.35 -2.45,0.68 -2.39,4.61 -3.55,6.45l-0.43 0.61c-0.98,1.4 -1.08,1.95 -1.17,3.53 -0.2,3.54 -2.17,2.44 -0.15,5.99 -2.2,-0.45 -1.61,-2.03 -2.32,0.22 -0.63,1.99 -0.52,5.06 0.15,6.87l0.65 4.92c-1.48,0.61 -2.3,-0.85 -2.52,2.53 -0.16,2.45 0.74,3.52 -0.37,5.6 -0.24,-0.41 -1.11,-3.19 -1.41,-4.15 -1.07,-3.43 -1.88,-8.81 -4.38,-11.2 -3.15,2.65 -1.91,4.68 -3.55,8.76 -0.83,2.06 -1.55,6.94 -3.17,8.84 -0.08,-0.09 -0.19,-0.24 -0.24,-0.3l-2.36 -3.83c-0.04,-0.14 -0.07,-0.31 -0.1,-0.44l-0.4 -1.25c-2.67,1.45 -1.39,2.83 -2.58,5.11l-1.55 -2.95c-0.18,-0.5 -0.25,-0.93 -0.49,-1.54 -1.76,-4.59 0.31,-4.71 -3.04,-6.64l-0.09 -3.39c-1.89,0.59 -1.9,2.42 -2.52,4.29 -0.71,2.13 -2.66,3.52 -2.55,5.84 0.09,1.92 0.54,0.39 -0.24,1.93l-1.4 1.48c-0.11,0.04 -1.74,0.4 -2.26,0.66l-0.73 -1.91c-1.57,0.82 -2.4,0.25 -3.98,0.57 -1.23,0.24 -1.85,0.35 -3.33,-0.18l-3.37 4.38c-0.51,0.39 -0.53,0.45 -1.16,0.71 0.21,3.01 0.34,0.08 0.56,1.85 0.22,1.77 -1.24,1.55 -2.09,1.99 -1.99,1.05 -2.28,4.92 -2.23,7.44l3.05 -0.51 -0.58 4.21c1.26,0.68 1.25,-0.47 2.29,2.07 -1.95,3.16 -1.27,-1.15 -2.11,1.64 1.05,1.14 3.57,1.22 5.36,2.13 -1.69,1.86 -3.55,0.81 -5.86,0.36 -0.27,4.41 2.35,5.12 5.9,3.85 -0.09,1.32 -0.07,3.58 -0.77,4.62 -1.08,1.6 -1.22,0.16 -2.21,0.18 -0.7,0.85 -1.57,2.65 -2.18,3.6l-0.82 -0.44c-0.73,-0.21 0.2,-0.23 -0.82,-0.06l-1.02 0.38c-1.78,0.68 1.87,-0.24 -0.77,0.33l-1.54 -2.24 -2.06 3.17c-1.88,-0.13 -3.49,-1.1 -4.65,-2.07 -2.52,2.53 -2.78,1.43 -5.23,1.9 -2.38,0.46 1.64,0.37 -0.97,0.39 -1.59,-0.87 -0.57,-0.45 -1.81,-1.43 -0.54,-0.43 -1.28,-0.89 -1.81,-1.29 -1.32,1.27 -2.73,1.76 -3.13,3.56 -0.08,0.36 -0.11,1.5 -0.15,1.92l-3.42 -2.37c-1.8,2.92 -2.49,0.91 -4.68,2.53l-1.34 1.24c-0.88,-0.43 -2.78,-1.63 -2.78,-2.58l-1.82 1.07c-0.82,0.62 -1.77,1.14 -2.08,2.12l-0.47 3.09 -10.57 0.35 -1.29 5.32c-21.72,0.75 -44.6,0.18 -66.43,0.17l-333.23 0.02c-1.23,0 -129.95,0.95 -132.02,-0.81 -1.2,-0.98 -1.18,-5.96 -1.49,-7.74l-6.5 -0.31c-0.32,-1.54 1.31,-0.59 -0.97,-2.55 -1.48,-1.28 -1.9,-0.61 -3.01,-0.83 -3.58,-0.71 -1.43,-2.26 -5.32,-0.89 -2.2,-2.27 -2.13,-1.21 -4.26,-2.83 0.55,-2.9 5,-4.47 7.82,-4.14 3,0.35 -0.42,0.59 2.64,0.84 1.36,-0.04 0.47,-0.32 1.19,-0.66l0.46 -0.19c1.06,-0.3 -0.35,0.67 1.31,0.01 1,-0.86 -0.01,-1.39 0.74,-2.29 0.21,-0.25 1.37,0.95 0.61,-1.48 -0.13,-0.42 -1.47,-2.21 -1.64,-2.29 -0.91,-0.43 0.07,-0.11 -1.04,1.4l-0.11 -2.05c1.74,-1.14 -0.14,-0.66 3.05,-0.56 -0.75,-1.43 -0.49,-0.41 -0.96,-1.93 1.93,-0.01 2.96,0.04 4.37,-3.19 -0.76,-1.12 -0.81,-1.01 -0.99,-2.87 -1.49,0.33 -2.58,0.43 -3.7,-0.23 0.78,-2.47 -0.12,0.11 0.93,-1.98 1,-1.98 2.42,-2.56 4.2,-3.65 1.39,-0.86 2.33,-2.37 2.47,-4.19 -1.67,-0.9 -4.53,0.31 -3.13,-2.03l0.52 -0.55c0.06,-0.07 0.29,-0.08 0.33,-0.26 0.05,-0.2 0.25,-0.17 0.36,-0.26 -0.75,-0.53 1.48,-1.47 -1.82,-0.22l0.38 -2.22c-0.99,0.19 -1.82,0.42 -2.05,0.37l-1.44 -4.06c-0.06,-0.1 -0.13,-0.23 -0.18,-0.34 -0.76,-1.52 0.24,-0.65 -0.84,-2.18 -3.54,-0.1 0.02,0.79 -2.51,0.65 -2.2,-0.12 -0.06,0.11 -1.93,-1.4 1.01,-2.96 1.55,-1.99 1.03,-5.73 -2.25,1.05 -0.34,1.36 -1.76,1.74 -0.6,0.16 -0.94,-0.34 -1.49,-0.99l-1.32 -1.73c-0.04,-0.06 -0.13,-0.18 -0.16,-0.24 -0.85,-1.55 0.8,0.83 -0.46,-1.72 -3.71,0.28 -0.4,1.27 -5.27,1.47 -0.43,-0.91 -0.45,-1.92 -0.72,-3.03l-1.3 -0.12c-0.11,0.02 -0.17,1.29 -0.6,0.28 -0.04,-0.1 -0.18,0.14 -0.29,0.18 0.67,-2.5 1.07,-0.74 -0.09,-1.99 -1.46,-1.57 -3.67,-1.71 -4.43,-2.78 -1.32,-1.86 0.6,0.49 -0.32,-2.23 -2.61,0.34 -0.34,-0.13 -1.31,0.65 -0.1,0.08 -0.1,1.45 -0.51,0.6 -0.05,-0.09 -0.15,0.24 -0.24,0.35 -0.08,-0.11 -0.17,-0.27 -0.22,-0.34l-2.99 -3.89 -3.51 2.65c-2.21,-1.27 0.38,-0.5 -2.19,-1.55 0.47,2.01 0.3,0.53 -0.04,2.87 -2.4,-1.54 -0.42,0.29 -3.34,0.43 -1.65,0.08 -2.06,-0.41 -3.21,-1.59 -2.89,1.42 -1.26,0.61 -4.14,0.42 -0.59,-1.04 0.04,-1.98 -1.03,-2.72 -1.04,0.68 -0.24,0.7 -0.81,1.61 -0.05,0.07 -0.11,0.21 -0.16,0.27 -0.14,0.17 -1.47,1.62 -3.16,-0.11l-0.33 1.99c-0.11,-0.1 -0.21,-0.28 -0.28,-0.36l-0.86 -0.83c-0.08,-0.05 -0.22,-0.11 -0.3,-0.14l-3.97 -0.83c1.19,2.73 0.61,0.89 -0.34,3.7 -0.92,2.71 0.44,0.26 0.28,3.39 -1.03,-0.45 -1.02,-0.28 -1.95,-0.99 -1.12,-0.86 -0.16,-0.57 -1.35,-1.27 0.44,1.66 0.64,0.78 0.11,2.61 -0.36,0.1 0.06,0.19 -1.19,0.08 -1.84,-0.17 -4.27,-1.97 -4.9,-3.44 1.17,-1.71 0.34,-0.26 2.12,-1.55 -0.59,-1.13 -0.46,-1.83 -0.99,-2.89 -4.25,-0.23 -4.51,0.93 -6.15,-2.25 -5.02,0.98 -9.16,-1.31 -12.19,-3.79l-0.05 -5.05c-0.17,-2 0.03,-3.64 -0.11,-5.65l2 -1.01c-0.54,-2.07 -0.02,-0.2 -1.03,-2.17 2.4,0.1 1.85,0.77 3.38,0.37 0.61,-0.16 1.16,-0.95 2.89,-1.34 1.42,-0.31 5.98,-0.59 7.64,-0.71 0.14,-0.31 0.42,-1.15 0.48,-1.25 1.88,-3.13 -1.73,2.32 0.71,-0.9 0.92,-1.21 1.02,0.42 1.1,-2.81 -0.79,-0.61 -0.16,-0.22 -1.3,-0.61l-2.44 -0.48c-3.38,-1 -0.94,1 -2.16,-2.29 -5.53,-0.56 -17.47,-8.87 -20.85,-12.84 -1.81,-0.91 -2.92,-2.02 -4.64,-3.23 -2.55,-1.79 -2.64,-1.27 -2.94,-4.83 -1.84,-0.94 -3.55,-0.78 -3.16,-3.82l-1.08 -40.35c-0.12,-2.72 2.08,-3.67 -1.43,-3.79 -0.24,1.41 -0.2,4.94 -0.3,6.65 -0.1,1.89 -0.1,4.78 0,6.67l-0.25 25.86c-0.19,8.29 -0.2,6.71 -3.72,8.78l-0.24 3.25c-3.83,1.74 -11.97,8.83 -15.75,11.61 -7.33,5.36 -11.09,5.75 -12.04,6.62 -2.42,2.24 -3,1.25 -5.8,2.28 -0.29,3.02 -0.36,1.74 0.86,3.15 0.98,1.14 0.35,-1.16 1.16,2.36 9.63,0.55 5.86,0.58 10.54,1.92 2.14,0.62 0.43,-0.18 3.35,-0.27 -0.71,1.46 -0.58,0.64 -0.85,1.96l1.97 1.22 -0.11 10.93c-3.81,2.01 -5.36,4.14 -11.3,3.92 -1.56,-2.02 -1.25,-4.7 -2.64,-7.18l-1.56 -3.91c-2.11,1.01 -1.57,1.7 -2.23,3.88l-1.68 2.94c-0.47,0.62 -0.38,0.4 -0.67,0.85 -0.55,0.86 -0.52,1.16 -0.53,1.84l-0.16 2.51c-0.73,2.65 -1.5,2.16 0.08,4.36 -2.27,-0.26 -1.07,-0.69 -2.42,0l0.06 8.02c0.04,1.23 0.15,0.21 -0.09,1.2 -0.37,1.59 0.4,0.11 -0.63,1.27 -1.32,-0.5 -0.45,-0.37 -1.21,-0.98l-2.1 -1.39c1.08,-0.84 1.91,-1.24 2.65,-2.43 -2.79,-1.78 -3.98,-0.09 -5.86,-1.55 3.19,-1.2 2.97,0.88 4.9,-2.59 -1.72,-0.71 -3.41,-0.79 -5.76,-0.99l1.6 -0.71c0.88,-0.39 0.21,-0.01 1.06,-0.48 0.6,-0.33 1.38,-0.98 2.14,-1.41 -1.79,-1.22 -3.29,-0.08 -4.79,-1.22 0.61,-0.13 1.96,-0.39 2.45,-0.64 1.32,-0.65 0.74,-0.28 1.4,-1.26 -1.69,-0.79 -1.78,0.08 -2.66,-0.95 -0.99,-1.17 -0.59,0.29 0.18,-0.86 1.62,-2.41 -0.39,1.19 0.74,-0.7l-2.3 -1.62c0.14,-1.74 0.74,-2.48 -0.19,-3.88 -1.77,0.57 -1.1,1.05 -2.58,1.72 -1.73,-3.62 0.83,-0.29 1.23,-3.23 0.16,-1.16 -1.13,-1.98 -2.35,-2.46 -1.09,2.28 1.06,1.95 -2,1.66 0.51,3.52 -0.83,2.23 -1.6,4.26 1.2,1.67 1.5,1.56 3.47,2.44 -1.12,0.59 -3.69,0.23 -4.77,-0.7 -1.34,-1.16 -1.14,-2.72 -1.76,-4.38 -2.26,1.36 -2.05,3.97 -3.31,6.35 -0.07,0.13 -0.26,0.47 -0.33,0.58l-0.31 0.44c-0.01,0.01 -0.64,0.61 -0.85,0.79l-1.02 0.85 -3.45 -10.08c-2.36,1.04 -2.57,4.73 -3.89,6.87 -0.89,1.45 -2.27,6.87 -2.15,8.84l-0.9 -0.51c-0.07,-0.04 -0.22,-0.11 -0.29,-0.15l-0.55 -0.31c-0.89,-0.72 -0.01,0.21 -0.66,-0.75 -0.84,-1.23 -2.43,-3.85 -1.28,-5.5 1.07,-1.55 0.66,0.02 0.77,-1.87 0.1,-1.75 -0.01,-1.56 -0.44,-3.05l2.07 -1.08c0.04,-0.03 0.18,-0.1 0.22,-0.13 1.27,-0.89 -0.02,0.94 0.52,-0.56 0.43,-1.22 -0.6,0.85 0.19,-1.08 0.03,-0.08 0.11,-0.23 0.15,-0.3l0.75 -1.07c1.18,-1.99 -0.76,0.6 0.49,-1.01 0.97,-1.27 1.2,-0.59 2.46,-1.49 -0.15,-0.54 -0.6,-2.53 -0.77,-2.85 -0.05,-0.1 -0.14,-0.23 -0.2,-0.32 -0.06,-0.09 -0.17,-0.21 -0.23,-0.3 -0.61,-0.84 -0.48,0.26 -0.98,-1.15 1.48,-0.56 1.36,-1.71 1.47,-3.51 -1.72,0.92 -1.3,2.01 -3.3,0.35l-0.7 -1.03c-0.89,2.19 -0.03,1.11 -1.48,1.58 -1.59,-2.42 -1.06,-2.41 -2.79,-4.1 -0.86,-0.84 -0.27,-0.12 -0.84,-1.21 -2.6,-4.9 -2.57,-2.63 -3.89,-2.16 -0.06,-0.11 -0.19,-0.24 -0.24,-0.31l-0.7 -0.93c-2.67,-3.86 -0.04,-3.11 -5.02,-2.75l-2.7 -4.53c-0.84,-1.04 -1.93,-1.2 -3.07,-1.35 -0.1,-0.01 -0.25,-0.02 -0.35,-0.04 -0.1,-0.01 -0.25,-0.03 -0.36,-0.05 -5.64,-0.96 0.15,0.88 -5.08,0.84 -4.12,-0.04 -2.69,0.03 -4.46,-2.3 -2.26,1.19 -1.73,-0.23 -3.62,1.86zm729.74 122.61l5.78 0 0.25 7.85 22.07 1.17 0.01 8.44 17.06 0.06 -0.19 6.4 -12.23 4.17 6.72 6.34c0,0 -35.33,32.43 -36.56,35.22 -1.23,2.8 -3.04,8.69 -3.04,8.69l0.13 -78.34zm-62.44 0.03l27.32 0 -0.09 70.24c0,0 -5.85,-4.55 -15.74,-12.47 -9.89,-7.91 -11.13,-8.9 -11.13,-8.9l-0.36 -48.87zm-31.24 -0.01l24.9 -0.13c0,0 1.12,-0.34 2,0.7 0.87,1.04 0.33,2.3 0.29,4.95 -0.04,2.65 -0.18,21.45 0.5,24.25 0.67,2.8 -0.39,15.97 -0.39,15.97 0,0 -10.2,-6.9 -15.89,-10.19 -5.69,-3.29 -11.29,-6.57 -11.29,-6.57 0,0 -0.08,-20.3 -0.12,-28.98zm-31.25 0.17l26.5 0 0.49 26.39c0,0 -11.73,-5.79 -18.81,-8.93 -7.09,-3.14 -8.22,-3.74 -8.22,-3.74l0.04 -13.72zm-30.75 -0.23l0 3.34c0,0 9.85,3.09 16.91,5.6 7.06,2.52 9.7,3.14 9.7,3.14l0.01 -11.92 -26.62 -0.16zm-185.76 0.05l0 11.85c0,0 9.95,-3.51 16.76,-5.53 6.81,-2.01 9.86,-3.42 9.86,-3.42l-0.03 -2.91 -26.59 0.01zm-30.97 -0.01l0 25.73c0,0 10.16,-4.84 14.55,-6.68 4.38,-1.84 12.25,-5.57 12.25,-5.57l-0.03 -13.32 -26.77 -0.16zm-30.95 0.03l26.74 0.12 0 28.08c0,0 -8.93,4.89 -14.82,8.81 -5.88,3.93 -11.96,7.41 -11.96,7.41l0.04 -44.42zm-30.74 -0.04l26.45 0 0.1 47.74c0,0 -9.07,6.62 -15.43,11.78 -6.35,5.15 -11.35,9.21 -11.35,9.21l0.23 -68.73z"/>
  <path class="fil0" d="M576.96 427.62l0.83 3.14c3.46,-0.73 0.68,-0.2 2.17,-0.96l1.75 -0.86c0.78,1.09 0.28,-0.17 0.66,1.44 0.14,0.58 0.1,1.26 0.1,1.86 2.72,-1.15 -1.04,-1.32 3.47,-1.41 -0.19,3.7 -1.04,0.64 -0.08,4.22 -1.86,0.14 -3.38,-0.5 -3.77,1.11 -0.03,0.15 0.41,3.27 0.66,3.8 1.68,-0.15 1.93,-0.74 2.74,-2.08 1.55,-2.55 0,-2.05 3.73,-2.03l0.83 3.86c0,0.1 -0.02,0.24 -0.02,0.34 -0.26,3.11 -0.22,6.58 4.21,7.08 -1.18,0.8 -4.62,2.27 -1.17,3.56 2.67,1.01 3.45,-1.35 4.15,-2.81 2.41,-5 0.9,-6.82 4.13,-9.09 0.23,0.14 1.48,0.74 1.55,0.78l3.36 12.31c0.75,2.66 -0.51,2.86 1.8,4.16 3.43,-1.65 -0.51,-2.85 3.47,-4.62l2.19 -0.87c0.61,2.21 1.13,3.41 0.13,5.7l2.06 1.03c-1.71,2.5 -1.23,-0.72 -1.77,2.57l5.34 -0.85c-0.9,-2.45 0.26,-3.69 2.59,-4.77l-0.02 -6.77c3.2,-1.5 1.46,-1.79 2.49,-4.22 0.6,-1.42 0.56,-0.93 1.86,-1.75 1.41,-0.88 0.23,-0.93 2.33,-0.98 0.74,1.92 0.57,3.3 1.05,4.72 0.76,2.26 2.23,2.44 4.4,2.54l-0.72 -5.32c-0.26,-1.07 -0.3,-1.23 -0.34,-2.6 1.98,0.14 1.07,0.61 3.36,0.91 0.25,-3.14 0.7,-3.6 -0.22,-6.21l2.8 -1.45c0.09,-0.08 0.19,-0.19 0.28,-0.27l4.4 -0.79c-1.19,1.19 -1.27,1.15 -1.52,3 0.21,-0.14 1.27,-0.87 1.71,-0.94 2.49,-0.44 1.55,-0.15 2.01,0.78 0.84,1.72 0.04,0.84 -0.2,1.59l-0.31 0.88c-0.02,0.06 -0.05,0.22 -0.07,0.28l-0.1 0.53c-2.61,0.63 -0.73,-0.29 -3.38,0.16 -0.16,1.88 0.13,2.75 0.8,3.96 1.74,-0.47 1.35,-0.1 2.71,-1.4 2.04,-1.93 0.07,-1.56 2.97,-1.9 0.63,0.51 0.4,0.01 0.94,0.82l0.35 1.19c0.05,1.82 -0.25,-0.11 0.32,2.34l-2.6 0.92c1.37,3.73 2.1,4.42 6.15,5.39 0.73,-1.23 0.85,-2.22 2.08,-3.21 -1.08,-0.94 -0.85,-0.33 -1.12,-2.06 3.29,-3.56 0.89,-3.77 4.16,-5.77l1.83 -1.14c0.7,2.78 1.06,2.12 0.68,6.04l2.98 0.6c-1.52,0.89 -1.75,0.54 -2.57,2.33 1.25,0.94 3.15,1.05 4.8,0.68 1.69,-0.39 2.78,-1.33 3.57,-2.74l-0.65 -0.63c-0.07,-0.07 -0.23,-0.21 -0.32,-0.29 -1.12,-1.03 -0.84,0.21 -1.41,-1.63 1.52,-0.73 4.52,-0.61 5.17,-2.03 0.33,-0.72 -1.78,-2.05 -2.07,-2.23 -0.4,-0.26 -1.29,-0.66 -1.7,-0.88 -1.27,-0.7 -0.56,-0.03 -1.62,-1.1 0.12,-0.08 0.32,-0.33 0.4,-0.21l1.83 -0.52c1.63,-0.13 6.03,1.39 6.03,-0.82 -0.97,-2.37 -1.07,-0.05 -2.64,-1.93l1.43 -1.17c-1.63,-2.24 -0.93,-0.32 -0.77,-3.1l2.68 0.98c0.83,-1.5 0.35,-1.72 1.37,-2.67l0.63 -0.42c-2.37,-1.45 -0.72,-1.41 -1.86,-3.2l-0.69 2.21c-3.3,1.29 1.34,-1.2 -2.56,-0.08l-0.51 -3.08c-0.02,-0.13 -0.03,-0.51 -0.05,-0.64 -0.72,-4.38 -0.1,0.87 -1.39,-3.18 -0.86,-2.73 1.15,-4.99 -2.82,-5.39 0.8,-0.89 1.19,-0.82 1.24,-1.67 -1.28,-1.12 -0.33,-0.78 -1.29,-3.33 -1.31,0.58 -1.81,1.19 -2.4,2.39l-0.43 0.99c-1.63,4.74 0.45,1.36 -2.52,5.97 -1.6,2.48 0.07,1.85 -1.73,5.1 -1.08,-1.23 -0.8,-1.16 -1.12,-3.08l-2.91 -10.24c-0.93,-2.7 -3.64,-10.28 -5.79,-11.14 -1.29,1.35 -1.09,2.1 -2.19,3.49 -3.12,3.96 -1.49,3.24 -2.09,6.65l-2.02 7.31c-0.42,1.33 -1.49,1.8 -1.81,3.04 -0.06,0.22 -0.17,1.63 -0.19,1.84 -0.51,5.43 -1.89,0.94 -1.97,8.27 -3.75,-0.52 -0.88,-1.24 -3.93,-1.39l1.68 -1.31c-0.69,-0.67 -0.54,-0.45 -0.89,-1.61 -0.13,-0.44 -0.17,-1.38 -0.39,-2.17 -1.01,0.24 -1.43,0.57 -2.12,1.76 -0.09,0.15 -0.63,1.33 -0.67,1.45 -0.62,1.64 0.2,3.52 -1.41,3.81 -1.84,0.32 0.88,-1.62 -2.08,0.27 0.47,-2.42 1.07,-1.98 -1.87,-2.78 3.03,-0.25 1.05,-0.01 2.29,-2.26 -0.82,-1.71 -0.14,-0.15 -1.29,-1.88l-1.33 -3.35c-0.2,-0.73 -0.19,-1.14 -0.45,-1.95 -2.25,0.51 -2.9,2.55 -3.33,4.68l-1.43 3.64c-0.05,0.12 -0.1,0.45 -0.15,0.56 -0.02,0.05 -0.07,0.2 -0.1,0.25l-1.33 1.47c-1.21,1.5 0.96,-1.73 -0.44,0.61 -0.05,0.09 -0.13,0.23 -0.17,0.31 -1.1,2.32 1.82,5.07 -2.87,7.74 -1.33,-1.55 -0.61,-4.51 -2.01,-5.96 -1.04,-1.07 -0.22,-0.43 -1.71,-1.01l1.25 -2.43 -1.9 -2.81c-0.03,-0.06 -0.07,-0.21 -0.1,-0.27l-1.21 -4.25c-5.56,1.66 -2.68,4.38 -6.2,5.36 -1.07,-1.31 -1.52,-3.21 -2.22,-4.73 -0.05,-0.11 -0.12,-0.24 -0.17,-0.35 -1,-2.34 -2.15,-6.82 -4.33,-8 -1.53,1.4 -1.05,1.95 -2.19,3.46 -3.38,4.47 -1.49,5.23 -3.06,9.77l-0.95 1.85c-0.78,-1.4 -0.96,-1.57 -0.19,-3.25 -2,-1.07 2.22,0.74 -0.59,-0.15l-0.61 -0.22c-0.04,-0.14 -0.23,-0.08 -0.34,-0.14 0.08,-2.04 -0.32,-2.54 -0.51,-4.7 -1.62,0.38 -1.25,1.28 -1.64,-1.62 -0.18,-1.31 -0.13,-1.63 0.6,-3.11l-0.88 -1.13c-0.03,-0.04 -0.12,-0.17 -0.16,-0.21 -0.04,-0.03 -0.14,-0.15 -0.19,-0.18 -0.46,-0.36 -0.77,-0.44 -2.5,-0.64l1.8 -1.33c-0.92,-1.09 -0.58,-1.64 -0.99,-3.36 -3.44,0.12 -3.34,5.34 -4.63,7.54l-0.93 1.54c-2.07,2.52 -1.43,2.15 -1.39,5.04 0.05,3.26 -0.02,-0.09 -0.83,2.61 -0.46,1.53 -0.17,0.49 0.51,2.13l-1.59 0.52c0.52,1.21 1.04,1.82 1.6,2.64 -2.77,-0.7 -0.55,-0.96 -3.69,-0.79z"/>
  <path class="fil0" d="M481.35 418.18c-1.1,0.86 -0.42,-0.32 -0.63,1.39 -0.19,1.53 -0.03,0.55 0.1,1.37l0.58 4.18c-0.01,0.12 -0.02,0.26 -0.04,0.39 -0.24,1.42 -0.55,1.37 -0.9,3.35 1.57,-0.25 2.81,-0.75 3.58,-1.99 -0.39,2.31 -0.44,0.69 0.15,2.71 0.98,3.33 3.02,2.57 7.19,2.91 1.56,0.12 3.63,2.16 6.57,0.51l-3.29 -1.25c-0.87,-0.48 -2.89,-0.74 -3.69,-1.5 -0.82,-0.93 -0.08,0.49 0,-0.52 0,-0.09 0.05,-0.42 0.06,-0.54l-0.34 -3.58c2.26,0.2 2.98,1.42 3.81,-0.1 1.27,-2.3 -0.08,1.51 0.04,-0.48 0.11,-1.85 -0.77,1.29 -0.13,-0.53l1.11 -0.63c0.09,-0.04 0.3,-0.09 0.43,-0.17 -1.63,-2.16 -1.6,-2.06 -0.18,-4.28 0.09,0.12 0.18,0.17 0.22,0.39l0.65 1.09c0.66,1.02 0.21,0.5 0.86,1.14 0.98,-1.96 -0.58,-2.78 -1.39,-5.05 0.72,-0.45 -0.02,-0.08 1.82,0.38l0.43 -2.63c0.03,-0.09 0.1,-0.25 0.18,-0.36 0.06,0.12 0.11,0.2 0.14,0.39 0.27,1.86 2.07,1.56 2.33,1.7 -1.09,1.38 -1.72,1.66 -1.88,4.05 1.94,-0.92 -0.03,-1.28 3.59,-1.06 -0.04,4.76 -1.08,-0.8 -0.31,3.94 -1.75,0.04 -2.09,-0.28 -3.25,0.3l0.52 4.41c4.73,-1.46 1.18,-5.51 6.84,-3.56 1.22,3.21 -0.07,0.41 -0.16,1.97 -0.06,1.15 -0.27,-0.36 0.09,0.86 0.03,0.13 0.47,0.96 0.54,1.16l-2.55 0.77c0.61,2.04 1.55,3.13 3.28,4.27 1.05,0.69 1.73,0.98 2.41,2.18 -3.86,1.61 -8.38,-0.85 -9.26,1.37l3.14 1.69c2.49,0.91 1.49,-0.97 3.97,-0.17 2.49,0.8 0.66,1.04 3.49,0.65 3.8,-0.51 0,0.73 3.24,0.61 -3.17,2.45 -4.01,2.76 -5.81,2.95l-5.06 0.61c5.04,4.05 5.3,0.02 10.38,2.23 -0.67,2.09 -1.64,2.18 -3.54,3.32 0.34,1.45 0.96,2.35 1.52,3.37 2.33,0.18 4.6,-0.35 4.71,1.76 0.09,1.83 -1.81,3.46 -1.97,5.26 2.49,0.65 1.37,1.03 4.51,0.58l-0.27 -0.99c-0.59,-2.99 0.92,-2.43 1.73,-5.2 0.51,-1.75 1.84,-2.86 3.88,-2.6l1.05 0.32c0.09,0.02 0.23,0.07 0.33,0.09 1.09,0.23 1.73,-0.17 2.61,0.27 2.93,1.69 1.47,1.79 2.12,5.09 1.9,0.29 3.94,1.18 5.52,0.31 -1.3,-0.74 -2.98,-1.31 -3.43,-2.55 -1.08,-2.97 -0.29,-0.96 0.16,-1.74 1.66,-1.62 8.79,1.09 5.42,-3.14 -0.87,-1.1 -4.34,-2.13 -7.31,-4.12 1.85,-0.59 3.09,-0.8 4.33,-0.47 0.07,-0.82 0.07,-0.61 0.27,-1.29 0.05,-0.16 0.09,-0.3 0.15,-0.48l0.58 -1.56c-1.85,-1.05 -2.2,-0.78 -2.12,-2.73 0.84,-0.17 1.27,-0.14 2.15,-0.38l2.54 -1.17c-1.18,-2.11 -3.38,-2.35 -5.29,-4.13 4.11,-2.65 7.5,0.94 11.68,0.41 2.6,-0.33 0.73,0.59 2.06,-0.93 -0.7,-1.39 1.36,0.52 -0.69,-0.7 -1.7,-1.01 0.44,-0.1 -1.07,-0.49 -1.97,-0.5 1.18,0.73 -1.57,-0.17 -1.77,-0.59 -1.46,-0.97 -4.02,-1.18 0.49,-2.4 0.21,-2.99 -0.87,-5.23 1.62,0.35 2.55,1.28 3.91,0.95 2.05,-0.5 0.23,0.07 1.05,-0.94l1.2 -1.26c0.31,2.98 0.43,1.51 1.98,2.1 -0.47,-4.58 -0.47,-3.7 -3.31,-3.93 -0.23,-2.52 -0.43,-0.67 0.56,-2.52 -3.37,-1.56 -2.79,-4.84 -5.62,-11.75 -1.18,-2.89 -1.88,-7.17 -4.46,-7.92 -0.86,1.02 -0.84,1.51 -1.48,2.6 -1.4,2.43 -4.42,4.35 -1.71,7.19 -2.96,1.96 -0.98,0.87 -1.73,3.86 -1.28,-0.35 -1.5,-1.06 -3.53,-1.19 1.28,-1.84 0.92,-1.03 -0.1,-5 -0.89,0.22 -1.41,0.56 -2.03,1.54l-0.53 1.03c-0.05,0.1 -0.11,0.25 -0.15,0.34 -1.07,2.75 0.67,1.18 -1.54,4.72l-0.4 0.65c-0.44,0.68 -0.18,0.33 -0.62,0.96 -0.21,0.29 -2.04,2.4 -2.06,3.38l0.11 0.51c1.2,6.07 -1.67,1.88 0.25,6.16 -2.51,-1.07 -1.75,-1.7 -3.6,-2.53 -2.77,3.1 0.35,4.05 -3.87,3.49 3.1,-4.15 0.37,-1.38 1.32,-5.52 -0.08,-0.04 -0.24,-0.04 -0.28,-0.06 -1.6,-0.56 -0.79,-0.48 -0.93,-0.89l-0.24 -0.85c-0.04,-0.06 -0.15,-0.2 -0.18,-0.25 -0.05,-0.06 -0.69,-0.47 -0.86,-0.53 1.42,-1.45 0.96,-0.36 1,-1.4 0.05,-1.18 0.03,0.32 -0.21,-0.92l-0.72 -4.73c-0.03,-0.23 -0.11,-0.3 -0.19,-0.43 -1.84,0.69 -1.16,0.15 -1.94,1.69 0.15,-1.47 0.46,-2.04 0.95,-3.5 0.29,-0.86 0.35,-0.88 0.49,-2.04 0.01,-0.12 0.01,-0.28 0.02,-0.39l0.06 -0.97c0.13,-1.13 0.87,-4.02 0.29,-4.5l-1.21 -0.38c0.05,-1.08 -0.08,-2.63 -0.44,-3.43 -0.53,-1.18 -0.21,-0.41 -0.72,-0.81 -2.87,-2.23 0.49,1.88 -0.72,-0.66 -0.02,-0.05 -0.07,-0.21 -0.09,-0.26l-0.38 -1.86c0.07,-1.09 0.46,-1.3 0.5,-2.79 -2.43,-1.86 0.71,-1.11 -2.63,-1.52 0.99,-1.53 0.49,-3.48 -0.38,-5.02 -1.72,0.8 -2.53,2.28 -2.99,4.56l-0.52 2.15c-1.61,3.29 -2.05,1.93 -2.91,4.19 -1.38,3.62 0.51,1.43 -0.51,5.36 -0.51,1.93 -0.92,0.43 0.09,2.68 -2.13,1.1 0.67,-1.38 -1.71,0.51 0.58,1 0.99,1.76 1.65,2.59 -0.95,0.48 -1.39,0.28 -1.73,0.18l-1.22 -0.69c-1.11,2.46 -0.48,1.4 -0.45,3.64 0.03,2.55 -0.45,1.79 -0.45,4.2 -0.93,-0.36 -0.81,-0.44 -1.12,-0.65 -0.12,-0.09 -0.73,-0.58 -0.8,-0.67 -0.9,-1.06 -0.05,0.89 -0.35,-1.08 -0.01,-0.04 -0.01,-0.18 -0.01,-0.23 -0.01,-0.05 -0.03,-0.19 -0.04,-0.25l-0.88 -3.33c-3.55,1.05 -2.4,4.19 -3.44,6.3 -0.58,1.19 -0.31,0.37 -1.04,1.46l-2.02 3.16c-1.35,1.44 1.39,0.74 -1.77,1.09 -0.51,-0.73 -0.31,-0.25 -0.63,-1.35 -0.1,-0.35 -0.03,-0.85 -0.02,-1.29z"/>
  <path class="fil0" d="M367.81 410.54c-1.06,0.72 -1.17,-1.67 -0.93,1.15 1.37,0.37 2.08,-0.02 3.72,-0.04 -0.06,7.22 -1.83,5.28 -3.43,5.26l-1.19 0.08c1.35,1.31 3.5,1.76 4.93,2.44 -0.25,2.31 -0.68,1.3 -0.87,3.61l2.62 -1.1c0.15,2.35 0.54,1.88 0.65,2.54 0.24,1.52 0.29,0.96 -0.76,2.32l1.31 0.42c0.05,0.01 0.2,0.05 0.29,0.1l0.03 4.65 1.7 0.81c0.09,0.05 0.27,0.14 0.39,0.22 -0.09,3.52 0.86,1.89 0.52,5.98 -0.01,0.16 -0.04,0.29 -0.05,0.45 -0.53,5.9 -2.2,5.83 -2.51,10.49l6.06 -0.61c1.64,-0.49 -0.19,-0.01 0.97,-0.23 0.67,-0.13 1.49,-0.15 2.46,-0.58 -0.14,-0.11 -1.84,-0.5 -1.27,-2.85 0.41,-1.72 1.69,-1.9 3.15,-2.28 -0.33,-7.47 0.55,-6.5 1.6,-8.04 1.37,-2 -0.58,-3.88 4.39,-5.4 1.29,1.86 1.03,3.47 0.97,6.16 2.1,-0.84 0.27,-1.36 3.41,-2.2l2.64 -1.38 -0.23 -5.67c0.63,-2.27 1.31,-0.79 1.7,-2.7 0.52,-2.57 -0.83,0.74 0.03,-1.8 0.51,-1.52 1.05,-0.61 2.61,-2.12l-2.7 -4.03c-0.06,-0.01 -0.2,-0.05 -0.26,-0.06l-2.07 -0.6c-0.09,-0.02 -0.28,-0.05 -0.4,-0.1 3.06,-0.39 0.87,0.19 2.41,-1.23 -1.12,-1.17 0.78,-0.08 -1.06,-0.33 -0.94,-0.13 -0.16,0.54 -1.17,-0.25 -0.46,-0.36 -1.27,-1.7 -1.75,-2.27 -1.83,0.54 -1.09,0.55 -2.04,1.98 -1.31,-2.26 -0.73,-1.52 -0.74,-2.24 -0.06,-4.04 0.36,-0.52 -0.52,-2.44 -0.28,-2.83 -0.07,-0.24 -1.05,-1.54 -1.02,-1.35 -0.08,0.75 -0.29,-0.97l-0.77 -3.89c-3.12,0.89 -2.69,4.68 -3.68,6.66 -0.2,0.4 -0.38,0.59 -0.61,0.96 -3.46,5.42 -1.27,0.52 -2.51,7.63l-0.74 2.15c-0.92,-0.37 -1.85,-0.86 -2.84,-1.34 2.99,-0.39 0.56,0.16 1.93,-2.18 -0.88,-2.12 -0.07,-0.19 -1.33,-2.07 -1.32,-1.97 -1.01,-3.72 -1.85,-5.37 -1.17,0.46 -2.03,0.78 -2.8,3.39 -0.3,1.02 -0.01,2.16 -0.82,3.61 -2.37,-0.83 -0.1,-0.97 -3.62,-5.5 -2.54,0.46 -0.03,0.35 -1.94,0.67 -2.56,0.44 -1.03,0.72 -1.69,-0.32z"/>
  <path class="fil0" d="M548.53 421.32c1.6,0.12 2.63,1.05 3.59,1.58 3,1.67 1.47,0.58 3.64,0.01 -0.05,1.7 0.22,4.29 0.55,5.44 -3.21,1.62 -2.39,0.86 -1.97,2.12 1.19,3.54 -0.87,0.75 3.81,4.47l0.67 0.64c-0.64,0.52 -0.27,0.4 -1.34,0.8 -2.66,0.99 -2.67,-0.17 -3.4,-0.31l-3.72 0.71c0.33,0.23 2.36,1.93 2.37,1.94 1.32,0.65 2.25,-0.19 3.31,-0.32 1.86,-0.22 1.62,0.6 3.06,0.89 0.62,0.13 2.94,0.18 4.23,0.33 -0.43,1.1 -0.24,0.57 -0.68,1.12l-3.31 2.24c-0.79,0.14 -1.23,0.02 -2.61,0.2 -1.52,0.2 -1.81,0.22 -3.47,0.19 1.77,3.15 7.22,1.75 11.37,2.09 -0.51,1.35 -3.66,3.24 -4.98,3.77 -0.1,0.04 -0.24,0.1 -0.34,0.13l-0.73 0.14c-0.12,0.01 -0.27,0 -0.4,0.01l-6 -0.03c0.15,2.31 4.12,2.53 6.29,2.59 9.43,0.28 3.01,-1.67 7.75,-0.48 -0.87,-1.83 -2.3,-1.4 -1.06,-3.61 0.92,-1.64 0.06,-0.57 1.27,-0.83 0.09,-0.02 1.63,-0.15 2.36,-0.28 -0.56,-1.6 -1.26,-1.2 -0.93,-2.87 0.33,-1.62 1.38,-1.47 2.27,-2.45 1.57,-1.75 0.46,-0.93 1.1,-3.62 0.04,-0.16 0.2,-0.56 0.22,-0.7 0.27,-1.28 0.05,-0.64 -0.39,-2.16 2.98,-1.46 2.49,-2.67 3.07,-5.3 -0.32,-0.06 -1.55,1.05 -2.92,-3.85 -0.76,-2.74 0.08,-3.45 0.21,-5.97 -3.03,-1.48 -1.67,-2.35 -2.53,-5.53l-6.18 -17.22c-0.5,-1.05 -1.11,-1.91 -2.18,-2.49 -1.33,1.4 -0.82,1.5 -1.77,2.98 -2.46,3.85 -1.83,-0.37 -2.51,6.86 -0.01,0.1 -0.03,0.25 -0.05,0.35 -0.02,0.11 -0.06,0.25 -0.09,0.36 -0.02,0.11 -0.08,0.24 -0.11,0.35l-2.81 8.18c-1.86,3.14 -0.07,3.48 -1.87,4.79 -1.93,1.41 -1.31,-1.44 -2.79,2.74z"/>
  <path class="fil0" d="M329.54 397.6c-1.21,0.76 -0.98,-1.95 -0.98,1.82l3.54 -0.12 -0.65 2.22c-0.19,1.03 -0.05,1.05 -0.15,2.13 -0.13,0.05 -0.34,-0.1 -0.41,0.05l-3.36 0.89c0.11,0.13 0.26,0.15 0.33,0.38l1.88 1.14c0.37,0.08 2.33,0.06 2.89,0.08l-0.78 3.92c1.16,-0.41 2.01,-1.22 2.95,-1.86 -0.3,3.07 0.86,3.33 -0.58,5.63l1.69 0.52 -0.07 5.08c3.46,-0.22 -0.45,-0.47 3.01,-0.94 -0.55,1.79 -0.99,1.48 -0.89,3.5 0.05,1.11 0.41,2.58 0.51,4.37l-1.96 0.76 1.51 1.7 -2.22 6.18c-0.62,1.45 -1.72,4.24 -1.04,5.91 1.18,-2.8 0.22,-3.36 4.06,-3.91 0.32,-4.62 1.23,-2.71 2.02,-6.14l2.83 -9.7c2.38,-5.33 0.67,-3.15 3.3,-8.6l4.43 7.53c0.09,0.12 0.24,0.27 0.33,0.37 0.08,0.1 0.22,0.26 0.35,0.37 1.75,-3.31 0.37,-2.12 3.64,-3.07l-0.16 -3.4c1.88,-1.06 3.01,-1.22 3.15,-4.96l2.9 -1.68c-2.01,-0.13 -1.41,0.43 -2.16,-1.12 1.68,-1.45 2.17,-1.88 2.17,-5.18 -1.34,-0.7 -1.06,1.45 -1.35,-2.55 -0.12,-1.57 0.07,-1.74 0.55,-2.9l-1.72 0.28c0.06,-1.92 0.18,-3.19 -0.89,-4.61l-0.91 -1.21c-0.68,-1.36 0.97,-0.36 -1.25,-1.32 2.53,-1.91 1.14,-3.02 -0.02,-4.81l-0.44 -0.83c-0.03,-0.06 -0.08,-0.2 -0.1,-0.26l-1.03 -4.04c-2.82,1.19 -2.79,2.94 -3.48,5.72 -0.31,1.24 -0.33,1.04 -0.43,1.24 -0.1,0.21 -0.47,0.73 -0.61,0.96l-2.6 4.08c-0.64,1.71 1.82,3.69 -1.21,5.68l1.32 1.75c-1.73,-0.7 -0.04,-1.34 -1.68,-0.26l1.55 3.29c-1.41,-0.33 -3.53,-3.06 -3.43,2.02 0.04,1.9 0.14,9.92 -3.13,6.34 -0.62,-0.68 -0.39,-0.78 -0.77,-1.82 -2.1,-5.66 -3.58,-5.69 -3.98,-6.96 -0.04,-0.13 -0.09,-0.52 -0.12,-0.67l-0.61 -3.18c-2.4,0.28 -3.44,2.21 -5.74,0.19z"/>
  <path class="fil0" d="M676.43 422.52c0.55,-0.73 0.66,0.21 2.06,-1.24 0.87,-0.9 1.69,-1.78 2.01,-3.25 1.77,0.79 0.07,0.45 1.51,0.66l1.45 -0.15c-1.02,1.8 -1.6,1.37 -1.89,4.04l0.63 -0.39c0.96,-0.45 2.28,-0.92 2.84,0.28 0.94,2.01 0.58,-2.03 0.02,0.47 -0.23,1.04 -0.1,-0.78 -0.96,1.16 1.7,0.76 0.88,0.85 1.83,1.3 1.6,0.76 1.34,0.08 2.42,0.77 1.48,0.94 0.18,2.1 1.12,4.56 -1.06,0.26 -1.53,0.39 -2.6,0.72 0.19,0.68 0.31,1.57 0.44,2.04 0.26,0.93 0.12,1.2 1.28,2.14 1.07,0.87 1.18,0.74 3.68,0.7 1.04,-3.26 1.07,-2.17 1.23,-5.68 2.24,-0.26 3.1,-0.76 4.46,-1.78l-3.01 -2.7c-0.1,-0.05 -0.23,-0.13 -0.33,-0.18 -0.63,-0.35 -0.98,-0.32 -1.73,-0.74l1.64 -1.34c0.09,-0.04 0.23,-0.12 0.32,-0.16 1.36,-0.52 1.23,-0.21 2.8,0.15 0.46,-2.3 1.26,-2.14 1.29,-3.7l-0.4 -3.17 3.58 0.09c-0.57,-1.69 -0.17,-1.61 -0.13,-3.39 0.07,-3.38 -0.31,-0.03 -0.56,-2.95l2.47 -0.26c-0.26,-3.13 -0.54,-1.58 0.52,-3.74 0.77,-1.59 0.08,0.22 0.77,-1.78l-2.15 0.12 -2.58 -6.68c-1.98,0.68 -2.42,1.85 -2.91,3.68 -1.3,4.87 -3.16,6.26 -3.2,6.32 -2.51,3.45 0.42,3.67 -1.11,6.51l-1.9 -3.74c-0.64,-1.59 -0.92,-2.79 -2.68,-3.62 -1.7,1.66 -0.91,2.63 -2.59,3.77 -2.64,-1.47 0.15,-2.01 -3.61,-5.16l-3.62 5.03c-0.02,0.03 -0.75,1.75 -0.76,1.8 -0.75,3.34 0.23,5.13 -1.89,8.04l-0.52 0.56c0.31,1.9 -0.07,0.54 0.76,0.89z"/>
  <path class="fil0" d="M-0.02 208.4l0 349.63 991.94 0 0 -364.13c0,0 -125.66,38.56 -144.93,63.34 -19.28,24.78 -33.05,29.6 -55.08,53 -22.03,23.41 -39.92,27.54 -41.99,46.82 -2.07,19.27 -8.15,36.59 -21.97,47.21 -13.83,10.61 -22.54,16.43 -51.67,23.25 -29.13,6.81 -23.93,1.82 -70.44,9.1 -8.53,1.34 -16.48,-14.31 -28.05,-5.86 -6.97,5.09 -19.74,-9.32 -20.61,-9.27 -6.76,0.38 -44.32,9.27 -46.88,7.36 -6.82,-5.1 -10.62,-14.64 -11.62,-14.62 -0.6,0.02 -8.79,8.72 -7.82,13.17 4.75,21.77 -80.13,4.38 -138.78,-6.52 -73.03,-13.57 -81.23,-3.57 -113.65,-32.56 -32.43,-28.98 -53.23,-112.84 -76.61,-130.69 -23.37,-17.85 -161.84,-49.23 -161.84,-49.23z"/>
 </g>
</svg>
