<?xml version="1.0" encoding="UTF-8"?>
<!DOCTYPE svg PUBLIC "-//W3C//DTD SVG 1.1//EN" "http://www.w3.org/Graphics/SVG/1.1/DTD/svg11.dtd">
<!-- Creator: CorelDRAW 2021 (64-Bit) -->
<svg xmlns="http://www.w3.org/2000/svg" xml:space="preserve" width="992px" height="558px" version="1.1" style="shape-rendering:geometricPrecision; text-rendering:geometricPrecision; image-rendering:optimizeQuality; fill-rule:evenodd; clip-rule:evenodd"
viewBox="0 0 992 557.97"
 xmlns:xlink="http://www.w3.org/1999/xlink"
 xmlns:xodm="http://www.corel.com/coreldraw/odm/2003">
 <defs>
  <style type="text/css">
   <![CDATA[
    .fil0 {fill:#F6F8F6}
   ]]>
  </style>
 </defs>
 <g id="Layer_x0020_1">
  <metadata id="CorelCorpID_0Corel-Layer"/>
  <path class="fil0" d="M628.78 182.79c-2.17,2.33 -3.21,-0.26 -4.56,3.26 1.32,2.41 6.03,3.96 8.56,5.23 3.64,1.83 5.76,3.37 9.04,4.91l19.6 8.34c7.5,2.8 34.01,15.17 38.82,16.48 3.59,-0.22 56.83,-24.4 62.94,-28.62 6.18,-4.26 28.49,-20.14 33.08,-22.71l-0.84 -2.46c4.64,-0.28 3.63,0.43 6.85,-1.89 2.2,-1.59 3.44,-2.43 5.5,-3.79 10.81,-7.15 47.74,-17.45 64.55,-25.85 7.74,-3.87 15.95,-8.51 23.99,-12.66 8.39,-4.33 16.13,-8.48 23.82,-12.43l47.59 -25.15c8.35,-4.31 16.01,-8.79 24.2,-12.56l0 -72.83 -14.61 0c0.91,1.81 1.4,1.23 1.21,3.47 -0.35,4.38 -1.54,-0.03 -0.7,12.55 2.77,1.97 0.77,-0.37 2.23,1.97 3.51,5.67 5.04,4.29 7.78,6.29 -2.58,3.09 -5.24,1.13 -8.81,6.74 -3.78,5.94 -2.34,5.24 -2.61,12.91 -1.56,0.89 -4.61,2.75 -5.72,4.07 -1.76,2.09 -1.68,3.89 -5.1,4.11 -9.06,0.58 -13.68,4.62 -17.51,11.58 -1.53,2.79 -1.68,3.83 -1.89,7.61 -0.21,3.84 -2.56,3 -6.25,7.92 -0.7,0.94 -0.88,1.91 -1.63,3.04 -4.09,-0.03 -7.06,-1.87 -12.27,-0.42 -2.19,0.61 -5.84,3.37 -6.92,5.67 -2.95,6.31 -3.01,5.27 -6.71,5.9 -2.55,0.44 -2.31,1.01 -4.15,2.13 -2.17,1.32 -0.34,-0.35 -1.91,1.32 -1.31,1.38 0.52,0.68 -1.22,1.52 -1.7,-0.76 -6.49,-13.7 -22.08,-11.56 -3.37,0.46 -4.29,1.04 -6.6,2.19 -6.41,3.21 -7.56,6.44 -10.13,11.18 -0.72,1.34 -0.48,1.71 -1.19,2.89 -6.03,0.28 -5.09,0.57 -9.36,2.48 -2.78,1.25 -7.06,0.03 -10.56,0.78 -4.02,0.85 -2.4,2.67 -8.42,1.26 -3.13,-0.73 -8.13,-0.78 -10.76,0.32 -1.68,0.7 -6.17,2.74 -7.52,3.9 -1,0.85 -1.72,1.7 -2.58,3.11 -3.44,5.63 -6.05,0.36 -13.16,3.76 -3.88,1.85 -5.15,4.07 -6.65,4.65 -1.08,-0.54 -2.22,-2.04 -5.5,-3.71 -4.15,-2.11 -10.46,-1.77 -14.53,1.4 -2.36,1.85 -2.8,2.54 -4.43,4.84 -2.34,3.31 -1.55,2.07 -5.15,4.2 -4.48,2.66 -6.6,4.88 -7.98,10.64 -0.72,3.01 0.39,5 0.28,7.97 -5.81,1.79 -10.52,2.02 -13.26,8.97 -0.35,0.88 -0.62,1.66 -0.97,2.57 -0.95,2.47 -0.55,3.33 -0.96,2.37 -0.03,-0.08 -0.12,0.3 -0.2,0.43 -3.59,-0.13 -6.5,-0.25 -8.94,1.65 -2.36,1.84 -3.6,1.94 -5.46,4.96 -5.38,8.74 -0.59,13.77 -0.85,17.1 -2.17,-0.14 -3.07,-1.35 -8.96,0.78 -2.11,0.76 -4.51,3.27 -5.82,5.09 -3.14,4.34 -0.19,3.2 -6.2,4.74 -7.68,1.96 -5.79,5.49 -10.06,1.39 -1.96,-1.75 -3.92,-2.68 -5.75,-3.96 -0.93,-0.62 -2.96,-1.03 -4.82,-1.05 -3.33,-0.03 -2.62,1.13 -4.1,2.03 -0.68,-0.2 -1.33,-0.32 -1.84,-0.47 -2.12,-0.62 -2.47,-1.1 -4.88,-1.09 -1.85,-0.41 -2.89,-2.15 -3.1,-2.52 -1.22,-2.81 -6.96,-4.45 -10.86,-4.2 -6.65,0.43 -6.87,3.06 -10.84,4.01l-0.64 -0.63c-4.02,-4.45 -1.58,-2.56 -8.11,-6.44 -4.36,-2.59 -8.01,-1.29 -13.41,-1.68z"/>
  <path class="fil0" d="M-0.02 42.77l0 42.62c2.14,-0.89 8.52,-6.08 10.84,-7.86 3.43,-2.63 7.69,-5.81 11.09,-7.95 7.92,-5.01 15.09,-10.14 22.45,-15.53 0.04,-2.02 0.26,-0.83 -0.46,-1.82 -13.83,-0.72 -12.82,2.78 -16.54,3.65 -2.83,-2.15 -3.51,-8 -9.77,-11.01 -2.97,-1.42 -3.62,-2.43 -7.77,-2.69 -3.63,-0.23 -6.69,-0.22 -9.84,0.59z"/>
 </g>
</svg>
