<?xml version="1.0" encoding="UTF-8"?>
<!DOCTYPE svg PUBLIC "-//W3C//DTD SVG 1.1//EN" "http://www.w3.org/Graphics/SVG/1.1/DTD/svg11.dtd">
<!-- Creator: CorelDRAW 2021 (64-Bit) -->
<svg xmlns="http://www.w3.org/2000/svg" xml:space="preserve" width="992px" height="558px" version="1.1" style="shape-rendering:geometricPrecision; text-rendering:geometricPrecision; image-rendering:optimizeQuality; fill-rule:evenodd; clip-rule:evenodd"
viewBox="0 0 992 557.97"
 xmlns:xlink="http://www.w3.org/1999/xlink"
 xmlns:xodm="http://www.corel.com/coreldraw/odm/2003">
 <defs>
  <style type="text/css">
   <![CDATA[
    .fil0 {fill:#A2FDF2}
   ]]>
  </style>
 </defs>
 <g id="Layer_x0020_1">
  <metadata id="CorelCorpID_0Corel-Layer"/>
  <path class="fil0" d="M-0.02 42.77c3.15,-0.81 6.21,-0.82 9.84,-0.59 4.15,0.26 4.8,1.27 7.77,2.69 6.26,3.01 6.94,8.86 9.77,11.01 3.72,-0.87 2.71,-4.37 16.54,-3.65 0.72,0.99 0.5,-0.2 0.46,1.82 2.07,-1.3 4.04,-3.43 6.13,-5.05l17.86 -14.64c4.41,-3.75 7.46,-6.11 11.78,-9.95 6.83,-6.07 8.67,-9.95 13.06,-6.76 7.74,1.4 21.51,7.35 29,11.13 4.03,2.04 8.5,4.82 12.63,6.94 1.29,0.65 1.97,0.91 3.11,1.56l36.05 19.19c4.16,2.15 8.58,4.55 12.94,6.74 5.59,2.8 10.12,13.01 14.45,15.49 7.99,4.6 25.06,11.72 33.34,16.22 2.85,1.54 11.4,4.12 14.9,5.23 23.43,7.39 19.54,7.29 39.91,19.51 4.21,2.52 8.83,4.72 12.18,7.85 -1.85,-1.61 -1.04,0.35 -1.55,-2.94 14.28,0 15.82,-0.55 22.21,8.79 5.78,0.21 9.76,0.38 13.2,4.36 1.35,1.54 1.41,1.2 2.21,3.22l10.9 -6.07c0.09,-0.06 0.2,-0.16 0.29,-0.23l20.6 -12.46c1.93,-0.81 0.53,0.73 2.51,-1.12 0.79,-0.74 0.55,-1.02 1.44,-2.02 5.51,-0.17 2.09,-0.79 4.95,-2.4l3.32 -1.88c0.65,-0.48 2.03,-1.5 2.59,-2.02l1.85 -2.34c8.3,-9.36 6.2,-6.97 17,-13.47 3.13,-1.88 2.97,-0.59 5.78,-4.04l6.23 -6.67c0.63,-0.75 0.27,-0.32 0.74,-0.81l2.49 -2.69c2.75,0.41 1.52,0.64 3.38,1.73 1.43,0.84 2.24,0.73 3.4,1.84l22.96 14.23c1.82,1.58 1.62,0.82 3.37,1.82 1.96,1.13 0.74,1.31 2.82,2.25 2.47,1.1 1.65,0.29 3.81,1.94l6.56 3.85c2.57,0.8 2.92,1.72 5.1,2.65 3.69,1.59 6.33,4.49 9.75,6.18l5.02 3.25c2.89,2.8 4.75,5.06 8.4,7.22 2.96,1.75 0.44,0.52 2.69,2.82 1.21,1.23 0.91,0.39 2.32,1.37 1.02,0.72 1.8,2.49 3.14,3.57l4.69 3.72c2.54,1.41 1.82,0.82 4.11,3.46l1.78 1.84c0.08,0.07 0.21,0.17 0.29,0.24 0,0.01 0.46,0.37 0.56,0.48 1.73,1.81 0.06,1.41 2.17,3.04 3.57,2.76 2.82,5.14 10.41,2.57 3,-1.02 -0.33,-0.42 3.33,-1.26 1.71,-0.39 2.5,-1.37 7.42,-2.43 5.66,-1.21 8.57,-4.34 15.87,-2.31 7.12,1.97 4.74,0.8 11.12,4.8 0.11,0.07 0.24,0.16 0.34,0.23l2.01 1.41c2.83,1.2 7.41,4.17 9.55,6.08l0.82 0.74c0.08,0.07 0.18,0.18 0.26,0.25 1.5,1.37 3.84,1.1 5.41,2.36l9.12 5.88c2.45,1.98 -0.09,0.45 3.49,1.69 2.35,0.81 4.04,2.83 6.26,3.87l2.21 1.14c1.91,1.61 4.02,1.86 5.21,2.46 1.54,0.79 -0.88,-0.28 1.08,0.58l11.75 5.82c3.22,1.43 4.71,-1 8.34,-1.31 5.4,0.39 9.05,-0.91 13.41,1.68 6.53,3.88 4.09,1.99 8.11,6.44l0.64 0.63c3.97,-0.95 4.19,-3.58 10.84,-4.01 3.9,-0.25 9.64,1.39 10.86,4.2 -3.04,0.01 -7.69,-2.82 -11.51,0.63 -0.18,0.15 -0.29,0.3 -0.44,0.44 -0.15,0.15 -0.31,0.31 -0.45,0.48 5.09,0 4.7,-0.01 8.79,1.03 -0.02,0.03 -0.22,0.54 -0.21,0.66 0.06,1.84 -0.14,0.06 0.21,1.41 6.37,0 1.53,-2.1 6.71,-2.13 2.41,-0.01 2.76,0.47 4.88,1.09 0.51,0.15 1.16,0.27 1.84,0.47 1.48,-0.9 0.77,-2.06 4.1,-2.03 1.86,0.02 3.89,0.43 4.82,1.05 -4.01,5.92 -9.39,3.55 -12.95,8.32 -1.67,2.23 -0.63,-0.43 -1.14,2.93 1.88,-0.5 1.23,-0.03 2.92,-1.11 0.38,-0.25 0.52,-0.43 0.82,-0.71l1.02 -0.98c0.61,-0.44 0.93,-0.51 2.07,-0.83l3.51 -0.9c0.49,3.11 -1.05,2.09 3.09,1.91 1.59,-3.78 -0.02,-2.05 -0.52,-3.46 4.57,-2.42 2.04,-5.9 6.93,-1.21 4.27,4.1 2.38,0.57 10.06,-1.39 6.01,-1.54 3.06,-0.4 6.2,-4.74 1.31,-1.82 3.71,-4.33 5.82,-5.09 5.89,-2.13 6.79,-0.92 8.96,-0.78 0.26,-3.33 -4.53,-8.36 0.85,-17.1 1.86,-3.02 3.1,-3.12 5.46,-4.96 2.44,-1.9 5.35,-1.78 8.94,-1.65 0.08,-0.13 0.17,-0.51 0.2,-0.43 0.41,0.96 0.01,0.1 0.96,-2.37 0.35,-0.91 0.62,-1.69 0.97,-2.57 2.74,-6.95 7.45,-7.18 13.26,-8.97 0.11,-2.97 -1,-4.96 -0.28,-7.97 1.38,-5.76 3.5,-7.98 7.98,-10.64 3.6,-2.13 2.81,-0.89 5.15,-4.2 1.63,-2.3 2.07,-2.99 4.43,-4.84 4.07,-3.17 10.38,-3.51 14.53,-1.4 3.28,1.67 4.42,3.17 5.5,3.71 1.5,-0.58 2.77,-2.8 6.65,-4.65 7.11,-3.4 9.72,1.87 13.16,-3.76 0.86,-1.41 1.58,-2.26 2.58,-3.11 1.35,-1.16 5.84,-3.2 7.52,-3.9 2.63,-1.1 7.63,-1.05 10.76,-0.32 6.02,1.41 4.4,-0.41 8.42,-1.26 3.5,-0.75 7.78,0.47 10.56,-0.78 4.27,-1.91 3.33,-2.2 9.36,-2.48 0.71,-1.18 0.47,-1.55 1.19,-2.89 2.57,-4.74 3.72,-7.97 10.13,-11.18 2.31,-1.15 3.23,-1.73 6.6,-2.19 15.59,-2.14 20.38,10.8 22.08,11.56 1.74,-0.84 -0.09,-0.14 1.22,-1.52 1.57,-1.67 -0.26,0 1.91,-1.32 1.84,-1.12 1.6,-1.69 4.15,-2.13 3.7,-0.63 3.76,0.41 6.71,-5.9 1.08,-2.3 4.73,-5.06 6.92,-5.67 5.21,-1.45 8.18,0.39 12.27,0.42 0.75,-1.13 0.93,-2.1 1.63,-3.04 3.69,-4.92 6.04,-4.08 6.25,-7.92 0.21,-3.78 0.36,-4.82 1.89,-7.61 3.83,-6.96 8.45,-11 17.51,-11.58 3.42,-0.22 3.34,-2.02 5.1,-4.11 1.11,-1.32 4.16,-3.18 5.72,-4.07 0.27,-7.67 -1.17,-6.97 2.61,-12.91 3.57,-5.61 6.23,-3.65 8.81,-6.74 -2.74,-2 -4.27,-0.62 -7.78,-6.29 -1.46,-2.34 0.54,0 -2.23,-1.97 -0.84,-12.58 0.35,-8.17 0.7,-12.55 0.19,-2.24 -0.3,-1.66 -1.21,-3.47l-977.33 0 0 42.71z"/>
 </g>
</svg>
