<?xml version="1.0" encoding="UTF-8"?>
<!DOCTYPE svg PUBLIC "-//W3C//DTD SVG 1.1//EN" "http://www.w3.org/Graphics/SVG/1.1/DTD/svg11.dtd">
<!-- Creator: CorelDRAW 2021 (64-Bit) -->
<svg xmlns="http://www.w3.org/2000/svg" xml:space="preserve" width="992px" height="558px" version="1.1" style="shape-rendering:geometricPrecision; text-rendering:geometricPrecision; image-rendering:optimizeQuality; fill-rule:evenodd; clip-rule:evenodd"
viewBox="0 0 992 557.97"
 xmlns:xlink="http://www.w3.org/1999/xlink"
 xmlns:xodm="http://www.corel.com/coreldraw/odm/2003">
 <defs>
  <style type="text/css">
   <![CDATA[
    .fil0 {fill:#BDEBFE}
   ]]>
  </style>
 </defs>
 <g id="Layer_x0020_1">
  <metadata id="CorelCorpID_0Corel-Layer"/>
  <path class="fil0" d="M301.7 127.51l26.97 16.51c1.29,0.87 1.15,0.59 2.47,1.22l10.04 4.38c0.55,0.26 0.54,0.24 1.06,0.51l3.97 1.6c4.01,0.98 4.99,2.8 7.28,3.52 7.3,2.33 8.7,2.58 15.96,5.91 2.22,1.01 2.43,1.31 4.97,2.19l15.64 6.59c9.31,4.87 22.55,5.51 28.47,7.69 3.47,1.27 12.01,0.84 17.5,4.27l4.71 2.49c1.57,0.82 3.02,1.54 4.91,2.23 3.86,1.42 2.22,1.27 4.69,2.62l15.53 6.75c13.03,6.23 5.15,1.8 18.21,10.75 4.86,3.33 11.78,9.04 17.61,11.24 7.04,2.65 14.1,5.09 21.34,7.61 13.82,4.81 8.45,3.37 23.1,6.26 12.85,2.54 9.75,1.03 22.1,6.94 6.42,3.07 37.37,14.1 43.41,14.81 7.9,0.92 19,3.87 26.32,3.68l32.13 -16.94c5.9,-2.94 9.82,-6.32 14.79,-10.05 2.37,-1.78 4.68,-3.53 7.14,-5.23 2.33,-1.6 6.42,-2.5 8.22,-4.05 -4.81,-1.31 -31.32,-13.68 -38.82,-16.48l-19.6 -8.34c-3.28,-1.54 -5.4,-3.08 -9.04,-4.91 -2.53,-1.27 -7.24,-2.82 -8.56,-5.23 1.35,-3.52 2.39,-0.93 4.56,-3.26 -3.63,0.31 -5.12,2.74 -8.34,1.31l-11.75 -5.82c-1.96,-0.86 0.46,0.21 -1.08,-0.58 -1.19,-0.6 -3.3,-0.85 -5.21,-2.46l-2.21 -1.14c-2.22,-1.04 -3.91,-3.06 -6.26,-3.87 -3.58,-1.24 -1.04,0.29 -3.49,-1.69l-9.12 -5.88c-1.57,-1.26 -3.91,-0.99 -5.41,-2.36 -0.08,-0.07 -0.18,-0.18 -0.26,-0.25l-0.82 -0.74c-2.14,-1.91 -6.72,-4.88 -9.55,-6.08l-2.01 -1.41c-0.1,-0.07 -0.23,-0.16 -0.34,-0.23 -6.38,-4 -4,-2.83 -11.12,-4.8 -7.3,-2.03 -10.21,1.1 -15.87,2.31 -4.92,1.06 -5.71,2.04 -7.42,2.43 -3.66,0.84 -0.33,0.24 -3.33,1.26 -7.59,2.57 -6.84,0.19 -10.41,-2.57 -2.11,-1.63 -0.44,-1.23 -2.17,-3.04 -0.1,-0.11 -0.56,-0.47 -0.56,-0.48 -0.08,-0.07 -0.21,-0.17 -0.29,-0.24l-1.78 -1.84c-2.29,-2.64 -1.57,-2.05 -4.11,-3.46l-4.69 -3.72c-1.34,-1.08 -2.12,-2.85 -3.14,-3.57 -1.41,-0.98 -1.11,-0.14 -2.32,-1.37 -2.25,-2.3 0.27,-1.07 -2.69,-2.82 -3.65,-2.16 -5.51,-4.42 -8.4,-7.22l-5.02 -3.25c-3.42,-1.69 -6.06,-4.59 -9.75,-6.18 -2.18,-0.93 -2.53,-1.85 -5.1,-2.65l-6.56 -3.85c-2.16,-1.65 -1.34,-0.84 -3.81,-1.94 -2.08,-0.94 -0.86,-1.12 -2.82,-2.25 -1.75,-1 -1.55,-0.24 -3.37,-1.82l-22.96 -14.23c-1.16,-1.11 -1.97,-1 -3.4,-1.84 -1.86,-1.09 -0.63,-1.32 -3.38,-1.73l-2.49 2.69c-0.47,0.49 -0.11,0.06 -0.74,0.81l-6.23 6.67c-2.81,3.45 -2.65,2.16 -5.78,4.04 -10.8,6.5 -8.7,4.11 -17,13.47l-1.85 2.34c-0.56,0.52 -1.94,1.54 -2.59,2.02l-3.32 1.88c-2.86,1.61 0.56,2.23 -4.95,2.4 -0.89,1 -0.65,1.28 -1.44,2.02 -1.98,1.85 -0.58,0.31 -2.51,1.12l-20.6 12.46c-0.09,0.07 -0.2,0.17 -0.29,0.23l-10.9 6.07c-0.8,-2.02 -0.86,-1.68 -2.21,-3.22 -3.44,-3.98 -7.42,-4.15 -13.2,-4.36 -6.39,-9.34 -7.93,-8.79 -22.21,-8.79 0.51,3.29 -0.3,1.33 1.55,2.94z"/>
  <rect class="fil0" x="-0.08" y="223.03" width="992" height="337.85"/>
 </g>
</svg>
