<?xml version="1.0" encoding="UTF-8"?>
<!DOCTYPE svg PUBLIC "-//W3C//DTD SVG 1.1//EN" "http://www.w3.org/Graphics/SVG/1.1/DTD/svg11.dtd">
<!-- Creator: CorelDRAW 2021 (64-Bit) -->
<svg xmlns="http://www.w3.org/2000/svg" xml:space="preserve" width="992px" height="558px" version="1.1" style="shape-rendering:geometricPrecision; text-rendering:geometricPrecision; image-rendering:optimizeQuality; fill-rule:evenodd; clip-rule:evenodd"
viewBox="0 0 992 557.97"
 xmlns:xlink="http://www.w3.org/1999/xlink"
 xmlns:xodm="http://www.corel.com/coreldraw/odm/2003">
 <defs>
  <style type="text/css">
   <![CDATA[
    .fil1 {fill:#69CEFE}
    .fil0 {fill:#97DBFE}
   ]]>
  </style>
 </defs>
 <g id="Layer_x0020_1">
  <metadata id="CorelCorpID_0Corel-Layer"/>
  <path class="fil0" d="M127.35 154.07c3.38,3.97 15.32,12.29 20.84,12.85 1.23,3.29 -1.21,1.28 2.16,2.29l2.45 0.48c1.13,0.39 0.51,0 1.3,0.61 -0.08,3.23 -0.18,1.6 -1.1,2.81 -2.44,3.22 1.17,-2.23 -0.71,0.9 -0.06,0.1 -0.35,0.94 -0.48,1.25 -1.66,0.12 -6.22,0.4 -7.64,0.71 -1.73,0.38 -2.28,1.18 -2.89,1.34 -1.53,0.4 -0.99,-0.27 -3.38,-0.37 1.01,1.97 0.49,0.1 1.03,2.17l-2 1c0.14,2.02 -0.06,3.66 0.11,5.66l0.04 5.04c3.03,2.49 7.17,4.78 12.2,3.8 1.64,3.18 1.89,2.01 6.15,2.25 0.53,1.06 0.4,1.75 0.98,2.89 -1.78,1.28 -0.94,-0.16 -2.12,1.55 0.64,1.47 3.07,3.26 4.91,3.44 1.25,0.11 0.83,0.02 1.18,-0.08 0.53,-1.83 0.34,-0.95 -0.11,-2.62 1.2,0.71 0.24,0.42 1.36,1.28 0.92,0.71 0.91,0.54 1.95,0.99 0.16,-3.13 -1.2,-0.68 -0.28,-3.39 0.95,-2.81 1.53,-0.97 0.34,-3.7l3.97 0.83c0.08,0.03 0.22,0.09 0.29,0.14l0.86 0.83c0.08,0.08 0.18,0.25 0.29,0.36l0.32 -2c1.7,1.74 3.02,0.29 3.16,0.12 0.05,-0.06 0.12,-0.21 0.16,-0.27 0.57,-0.91 -0.22,-0.93 0.82,-1.61 1.07,0.74 0.44,1.68 1.03,2.72 2.87,0.19 1.24,0.99 4.13,-0.43 1.16,1.19 1.57,1.68 3.22,1.6 2.92,-0.14 0.94,-1.97 3.34,-0.43 0.33,-2.35 0.51,-0.87 0.03,-2.88 2.58,1.06 -0.01,0.29 2.2,1.56l3.5 -2.65 3 3.89c0.04,0.07 0.14,0.23 0.21,0.33 0.1,-0.1 0.2,-0.44 0.24,-0.34 0.41,0.85 0.42,-0.53 0.52,-0.61 0.97,-0.78 -1.31,-0.3 1.31,-0.65 0.91,2.73 -1,0.38 0.32,2.24 0.76,1.06 2.96,1.2 4.42,2.78 1.17,1.25 0.76,-0.51 0.1,1.99 0.11,-0.04 0.25,-0.28 0.29,-0.19 0.42,1.02 0.49,-0.25 0.6,-0.27l1.29 0.12c0.28,1.11 0.3,2.12 0.73,3.03 4.87,-0.2 1.56,-1.19 5.26,-1.47 1.27,2.55 -0.39,0.17 0.47,1.72 0.03,0.06 0.12,0.18 0.16,0.24l1.31 1.73c0.55,0.65 0.9,1.15 1.5,0.99 1.42,-0.38 -0.49,-0.69 1.76,-1.74 0.51,3.74 -0.02,2.77 -1.04,5.73 1.88,1.51 -0.27,1.27 1.94,1.4 2.53,0.14 -1.03,-0.75 2.51,-0.65 1.07,1.52 0.07,0.66 0.84,2.18 0.05,0.11 0.12,0.24 0.18,0.34l1.43 4.06c0.24,0.05 1.07,-0.19 2.05,-0.37l-0.37 2.22c3.29,-1.26 1.07,-0.31 1.82,0.22 -0.12,0.09 -0.31,0.06 -0.36,0.25 -0.05,0.19 -0.27,0.2 -0.33,0.27l-0.52 0.55c-1.4,2.34 1.45,1.13 3.13,2.03 -0.15,1.82 -1.08,3.33 -2.48,4.19 -1.77,1.09 -3.2,1.67 -4.19,3.65 -1.06,2.09 -0.15,-0.49 -0.93,1.97 1.12,0.67 2.21,0.57 3.69,0.24 0.19,1.86 0.24,1.75 1,2.86 -1.41,3.24 -2.44,3.19 -4.37,3.2 0.46,1.52 0.21,0.5 0.95,1.93 -3.19,-0.1 -1.3,-0.59 -3.04,0.56l0.1 2.05c1.12,-1.51 0.14,-1.83 1.05,-1.4 0.17,0.07 1.51,1.87 1.64,2.29 0.75,2.42 -0.4,1.23 -0.61,1.48 -0.75,0.9 0.26,1.43 -0.74,2.29 -1.66,0.66 -0.25,-0.31 -1.31,-0.02l-0.46 0.2c-0.73,0.34 0.16,0.61 -1.19,0.66 -3.06,-0.25 0.36,-0.49 -2.64,-0.84 -2.82,-0.33 -7.28,1.24 -7.83,4.14 2.14,1.62 2.06,0.56 4.27,2.83 3.89,-1.37 1.74,0.18 5.32,0.89 1.11,0.22 1.53,-0.45 3.01,0.83 2.27,1.96 0.64,1.01 0.97,2.55l6.5 0.31c0.31,1.78 0.29,6.75 1.48,7.74 4.41,-0.67 45.34,-0.17 53.5,-0.17 35.19,0 328.71,0.56 333,-0.01 1.87,-0.25 2.89,-1.49 4.46,-2.43l0.67 -0.36c0.1,-0.06 0.23,-0.13 0.33,-0.18 0.33,-0.19 0.57,-0.32 0.99,-0.55 0.8,-0.44 1.35,-0.71 2.02,-1.11 2.09,-1.24 2.29,-1.3 3.92,-2.86 1.75,-1.67 2.18,-0.74 4.5,-2.19 3.29,-2.05 2.27,-1.91 6.23,-3.6 0.38,-0.16 0.83,-0.33 1.17,-0.5l1.18 -0.74c-7.31,0.19 -18.41,-2.76 -26.32,-3.69 -6.03,-0.7 -36.98,-11.73 -43.41,-14.8 -12.35,-5.92 -9.24,-4.4 -22.1,-6.94 -14.65,-2.9 -9.27,-1.46 -23.09,-6.26 -7.24,-2.52 -14.3,-4.96 -21.34,-7.62 -5.84,-2.19 -12.76,-7.9 -17.61,-11.23 -13.06,-8.95 -5.19,-4.52 -18.22,-10.75l-15.53 -6.75c-2.46,-1.35 -0.82,-1.21 -4.68,-2.62 -1.9,-0.69 -3.34,-1.41 -4.91,-2.23l-4.72 -2.49c-5.48,-3.43 -14.03,-3 -17.49,-4.28 -5.92,-2.17 -19.16,-2.81 -28.47,-7.68l-15.64 -6.59c-2.54,-0.88 -2.75,-1.18 -4.97,-2.2 -7.27,-3.32 -8.67,-3.57 -15.97,-5.9 -2.28,-0.73 -3.26,-2.54 -7.27,-3.52l-3.97 -1.61c-0.52,-0.27 -0.51,-0.25 -1.06,-0.5l-10.04 -4.38c-1.33,-0.63 -1.19,-0.35 -2.47,-1.22l-26.97 -16.51c-3.36,-3.13 -7.97,-5.33 -12.19,-7.85 -20.37,-12.22 -16.48,-12.12 -39.9,-19.51 -3.5,-1.11 -12.05,-3.69 -14.9,-5.23 -8.29,-4.5 -25.35,-11.62 -33.34,-16.22 -4.34,-2.49 -8.87,-12.69 -14.45,-15.49 -4.36,-2.2 -8.78,-4.59 -12.95,-6.74l-36.05 -19.19c-1.14,-0.65 -1.81,-0.91 -3.1,-1.57 -4.13,-2.11 -8.61,-4.9 -12.64,-6.93 -7.48,-3.78 -21.26,-9.73 -28.99,-11.14 0.53,3.12 2.85,6.8 4.11,9.68 0.78,1.79 1.46,2.69 2.29,4.36l6.41 13.3c1.25,2.36 3.51,5.84 4.94,7.86 2.01,2.84 3.36,5.55 5.27,8.16 2,2.73 9.77,12.74 10.83,15.04l5.33 14.3c1.84,5.55 4.1,9.36 5.9,13.77 4.95,12.11 6.59,6.38 8.65,24.3 0.62,5.43 -1.54,4.77 -6.46,12.62 -2.7,4.3 -11.69,9.78 -13.05,13.29z"/>
  <path class="fil0" d="M296.21 368.76c-0.25,0.77 -0.52,2.65 -0.91,4.42l-2.85 0.43 4.05 1.24 -1.04 4.4c4.67,-2.76 5.54,-5.41 6.56,-2.65l0.39 1.15c0.26,0.85 0.64,0.33 0,1.77 -0.04,0.08 -0.17,0.25 -0.2,0.32 -0.04,0.07 -0.16,0.21 -0.23,0.33 3.86,0.37 1.79,2.72 2.86,5.35 1.5,3.71 0.49,-1.3 1.34,2.76 0.32,1.48 0.2,2.71 1.14,3.9 7.89,-7.35 -0.59,-2.19 5.88,-7.74 1.39,-1.19 -0.43,-0.41 1.25,-1.06 1.4,1.74 1.88,4 0.73,6.49 0.16,0.07 1.39,0.07 2.59,1.03 -1.38,1.1 -1.71,0.75 -2.33,2.07 0.12,0.08 0.33,0.02 0.4,0.19l0.84 0.33c0.14,0.03 0.29,0.07 0.45,0.1 0.24,0.04 1.53,0.09 1.91,0.11 -0.06,2.15 -0.05,0.54 -1.45,2.45l5.03 -0.84c-1.52,-0.59 -1.73,-0.83 -2.55,-1.83l1.55 -1.75c2.26,-2.93 -0.91,-2.09 2.98,-4.78 0.09,-0.06 0.21,-0.15 0.3,-0.21 0.09,-0.06 0.21,-0.16 0.3,-0.22 0.89,-0.6 -0.03,-0.42 1.23,-0.78 1.39,1.94 1.42,4.13 0.54,6.19 1.88,0.83 -1.94,-0.86 1.1,0.33l1.48 0.71c-1.38,1.37 -1.88,1.07 -3.12,1.99 -1.08,0.8 -0.51,-0.45 -0.75,0.81l5.35 0.08c-0.83,1.92 0.27,1.03 -1.55,1.5 2.3,2.02 3.34,0.09 5.73,-0.19l0.62 3.18c0.03,0.14 0.08,0.54 0.12,0.67 0.39,1.27 1.88,1.3 3.97,6.96 0.38,1.04 0.15,1.14 0.78,1.82 3.27,3.58 3.17,-4.44 3.13,-6.34 -0.1,-5.08 2.02,-2.36 3.42,-2.02l-1.55 -3.3c1.65,-1.07 -0.04,-0.43 1.69,0.27l-1.32 -1.75c3.02,-1.99 0.57,-3.97 1.21,-5.68l2.59 -4.08c0.15,-0.24 0.52,-0.75 0.62,-0.96 0.09,-0.2 0.12,-0.01 0.43,-1.24 0.69,-2.79 0.66,-4.53 3.47,-5.72l1.04 4.04c0.02,0.06 0.07,0.2 0.09,0.26l0.45 0.83c1.16,1.79 2.54,2.89 0.02,4.81 2.21,0.96 0.57,-0.04 1.24,1.32l0.91 1.2c1.08,1.43 0.96,2.7 0.9,4.62l1.72 -0.29c-0.48,1.17 -0.67,1.33 -0.56,2.9 0.3,4 0.02,1.86 1.36,2.56 0.26,-1.07 2.89,-2.77 3.1,-2.84 1.41,1.76 1.5,3.48 0.91,5.95 0.11,0.09 0.32,0.03 0.38,0.21 0.36,1.06 0.12,0.01 0.74,0.42 1.36,0.9 0.17,-0.6 1.17,0.92l-2.36 1.45c-0.11,0.06 -0.25,0.12 -0.36,0.18 -0.1,0.05 -0.24,0.12 -0.33,0.17 -1.29,0.73 -0.24,-0.3 -1.06,0.74l5.68 0.28c-0.91,1.91 0.1,1.16 -1.69,1.59 0.67,1.04 -0.86,0.76 1.7,0.32 1.91,-0.32 -0.6,-0.21 1.94,-0.67 3.52,4.53 1.25,4.67 3.62,5.5 0.81,-1.45 0.52,-2.59 0.82,-3.61 0.77,-2.61 1.63,-2.93 2.79,-3.39 0.85,1.65 0.54,3.39 1.86,5.37 1.26,1.87 0.44,-0.05 1.33,2.07 -1.37,2.33 1.06,1.78 -1.93,2.18 0.99,0.48 1.92,0.97 2.84,1.34l0.73 -2.16c1.25,-7.1 -0.94,-2.2 2.51,-7.63 0.23,-0.36 0.41,-0.55 0.61,-0.95 1,-1.98 0.57,-5.78 3.68,-6.66l0.77 3.88c0.21,1.73 -0.73,-0.37 0.29,0.98 0.98,1.3 0.78,-1.29 1.06,1.54 0.88,1.92 0.45,-1.61 0.52,2.44 0.01,0.72 -0.57,-0.02 0.73,2.23 0.95,-1.42 0.22,-1.44 2.05,-1.97 0.48,0.57 1.28,1.91 1.75,2.27 1,0.79 0.23,0.11 1.17,0.24 1.84,0.26 -0.06,-0.83 1.06,0.34 1.28,0.26 1.1,0.45 2.75,0.79 0.44,-4.31 -1.52,-1.14 0.7,-4.21 -1.63,-2.63 -1.08,-0.04 -1.29,-2.04l0.06 -2.07c1.5,0.56 2.07,1.44 3.84,1.27 -0.01,-2.21 -0.03,-4.5 -0.87,-6.46 0.1,-0.05 0.28,-0.18 0.33,-0.08 0.04,0.11 0.27,-0.06 0.33,-0.08 0.23,-0.05 1.52,-0.12 2.02,-1.1 0.02,-0.05 0.05,-0.21 0.08,-0.27l0.25 -0.84c0.03,-0.07 0.11,-0.2 0.15,-0.27l3.79 -7.12c1.48,-1.64 1.33,-0.64 1.57,-0.57l0.63 2.28c2.45,0.08 0.06,1.18 3.23,-0.29l18.91 -11.65c6.83,-4.4 4.44,-1.55 9.55,-8.05 1.51,-1.93 2.93,-3.16 4.17,-4.56l3.83 -5.11c1.65,-0.66 -0.4,0.35 1.17,-1.79 1.98,-2.67 0.44,1.31 3.01,-4.27 0.46,-1.02 0.51,-1.09 1.36,-2.07 2.18,0.6 0.78,0.76 2.36,1.87 2.08,-1.81 4.5,-3.1 6.38,-4.63 5.31,-4.3 3.73,-2.62 6.31,-4.51 1.41,-1.04 0.62,-1.19 6.04,-4.84l12.58 -9.54c5.26,-3.11 15.38,0.39 20.21,-1.66l16.68 -10.51c7.18,-3.37 10.28,-6.04 16.69,-9.75l11.18 -6.91c1.37,-1.19 2.23,-0.95 3.76,-1.94l6.75 -4.11c4.23,-2.32 5.26,-3.9 7.34,-4.27 -2.2,0.53 -0.17,0.12 -1.07,-0.82 -6.3,-3.43 -29.14,-7.57 -37.86,-9.17 -13.62,-2.51 -29.31,-3.29 -43.77,-3.3 -54.02,-0.03 -102.48,16.12 -145,44.14 -14.73,9.7 -27,20.16 -39.62,31.7l-11.26 11.09c-0.07,0.07 -0.29,0.37 -0.34,0.27 -0.06,-0.1 -0.24,0.18 -0.36,0.26z"/>
  <path class="fil1" d="M44.29 53.8c-7.35,5.39 -14.52,10.52 -22.44,15.52 -3.4,2.15 -7.66,5.32 -11.1,7.96 -2.32,1.78 -8.7,6.97 -10.83,7.86l0 72.78c1.88,-2.09 1.36,-0.68 3.62,-1.86 1.77,2.33 0.34,2.26 4.46,2.3 5.22,0.04 -0.56,-1.8 5.08,-0.84 0.1,0.01 0.26,0.04 0.36,0.05 0.1,0.02 0.25,0.03 0.35,0.04 1.14,0.15 2.22,0.31 3.07,1.35l2.7 4.53c4.98,-0.37 2.34,-1.11 5.02,2.75l0.7 0.93c0.05,0.06 0.17,0.19 0.23,0.31 1.33,-0.47 1.29,-2.74 3.89,2.16 0.58,1.09 -0.02,0.36 0.84,1.2 1.74,1.7 1.21,1.69 2.79,4.1 1.46,-0.46 0.6,0.62 1.49,-1.57l0.7 1.03c1.99,1.66 1.57,0.57 3.29,-0.35 -0.11,1.8 0.01,2.94 -1.47,3.51 0.5,1.41 0.37,0.31 0.99,1.15 0.06,0.09 0.16,0.2 0.22,0.3 0.06,0.09 0.15,0.21 0.21,0.32 0.17,0.32 0.62,2.31 0.76,2.85 -1.25,0.9 -1.49,0.22 -2.46,1.49 -1.24,1.61 0.7,-0.98 -0.48,1.01l-0.76 1.07c-0.04,0.07 -0.11,0.22 -0.14,0.29 -0.8,1.94 0.24,-0.13 -0.2,1.09 -0.53,1.49 0.76,-0.33 -0.52,0.56 -0.03,0.03 -0.17,0.1 -0.21,0.12l-2.07 1.09c0.43,1.49 0.54,1.29 0.44,3.05 -0.11,1.88 0.29,0.32 -0.78,1.86 -1.15,1.66 0.45,4.28 1.29,5.51 0.65,0.96 -0.23,0.02 0.66,0.74l0.54 0.32c0.07,0.04 0.22,0.1 0.29,0.14l0.91 0.52c-0.12,-1.97 1.26,-7.39 2.15,-8.85 1.31,-2.13 1.52,-5.82 3.89,-6.86l3.44 10.08 1.02 -0.85c0.21,-0.18 0.85,-0.78 0.86,-0.79l0.31 -0.45c0.06,-0.1 0.26,-0.44 0.32,-0.57 1.27,-2.38 1.05,-4.99 3.32,-6.35 0.62,1.66 0.41,3.22 1.75,4.37 1.09,0.94 3.65,1.3 4.78,0.71 -1.98,-0.88 -2.27,-0.77 -3.48,-2.44 0.78,-2.03 2.11,-0.74 1.61,-4.26 3.05,0.29 0.9,0.62 2,-1.66 1.22,0.47 2.51,1.3 2.35,2.46 -0.41,2.94 -2.97,-0.39 -1.24,3.23 1.48,-0.67 0.82,-1.16 2.59,-1.72 0.93,1.4 0.32,2.14 0.19,3.87l2.3 1.63c-1.13,1.89 0.87,-1.72 -0.74,0.69 -0.77,1.16 -1.18,-0.3 -0.18,0.87 0.88,1.03 0.97,0.16 2.65,0.95 -0.65,0.98 -0.08,0.61 -1.39,1.26 -0.5,0.25 -1.85,0.51 -2.45,0.64 1.49,1.14 3,-0.01 4.78,1.22 -0.75,0.43 -1.54,1.08 -2.14,1.41 -0.84,0.46 -0.17,0.09 -1.06,0.48l-1.6 0.71c2.35,0.2 4.05,0.28 5.76,0.99 -1.92,3.47 -1.7,1.39 -4.9,2.59 1.88,1.46 3.07,-0.23 5.87,1.55 -0.75,1.19 -1.58,1.59 -2.66,2.43l2.11 1.39c0.76,0.61 -0.12,0.48 1.21,0.98 1.03,-1.17 0.25,0.32 0.63,-1.27 0.24,-0.99 0.13,0.03 0.09,-1.2l-0.07 -8.02c1.35,-0.69 0.16,-0.27 2.43,0 -1.59,-2.2 -0.82,-1.71 -0.08,-4.36l0.15 -2.51c0.02,-0.69 -0.02,-0.99 0.54,-1.84 0.29,-0.45 0.19,-0.24 0.67,-0.85l1.67 -2.94c0.66,-2.19 0.13,-2.87 2.23,-3.88l1.57 3.91c1.39,2.48 1.08,5.16 2.63,7.18 5.95,0.22 7.5,-1.92 11.31,-3.92l0.1 -10.94 -1.96 -1.21c0.26,-1.32 0.14,-0.5 0.84,-1.96 -2.91,0.09 -1.2,0.88 -3.34,0.27 -4.69,-1.34 -0.91,-1.37 -10.54,-1.92 -0.81,-3.52 -0.18,-1.22 -1.16,-2.37 -1.22,-1.41 -1.16,-0.12 -0.86,-3.14 2.79,-1.03 3.38,-0.04 5.8,-2.28 0.94,-0.87 4.71,-1.26 12.03,-6.63 3.79,-2.77 11.93,-9.86 15.76,-11.6l0.24 -3.25c3.52,-2.07 3.52,-0.49 3.72,-8.78l0.25 -25.86c-0.11,-1.89 -0.1,-4.78 0,-6.67 0.09,-1.71 0.06,-5.25 0.29,-6.65 3.52,0.12 1.32,1.06 1.43,3.79l1.08 40.35c-0.38,3.04 1.32,2.88 3.16,3.82 0.31,3.56 0.4,3.04 2.95,4.83 1.71,1.21 2.83,2.32 4.64,3.22 1.36,-3.51 10.35,-8.99 13.05,-13.29 4.92,-7.85 7.08,-7.19 6.46,-12.62 -2.06,-17.92 -3.7,-12.19 -8.65,-24.3 -1.8,-4.41 -4.06,-8.22 -5.9,-13.77l-5.33 -14.3c-1.06,-2.3 -8.83,-12.31 -10.83,-15.04 -1.91,-2.61 -3.26,-5.32 -5.27,-8.16 -1.43,-2.02 -3.69,-5.5 -4.94,-7.86l-6.41 -13.3c-0.83,-1.67 -1.51,-2.57 -2.29,-4.36 -1.26,-2.88 -3.58,-6.56 -4.11,-9.68 -4.4,-3.18 -6.24,0.7 -13.07,6.77 -4.31,3.84 -7.36,6.2 -11.77,9.94l-17.87 14.65c-2.08,1.62 -4.06,3.75 -6.13,5.05z"/>
  <path class="fil0" d="M238.41 354.01c2.43,0.16 3.38,0.38 5.46,1.14 1.59,0.57 4.09,1.3 4.41,-0.93 -1.17,-0.37 0.89,0.3 -1.1,0.21 -2.27,-0.1 -0.74,-0.98 -3.46,-1.59 -0.92,-0.21 -1.77,-0.17 -2.82,-0.38l1.39 -1.98c-1.55,-1.13 -2,-2.91 -1.62,-3.8l3.54 1.61 0.48 -1.83c0.7,-1.36 -0.4,0.25 1.44,-1.02 -1.49,-0.83 -2.05,-2.67 -2.37,-4.61 2.2,0.74 1.1,0.58 3.06,-0.02 0.08,0.47 0.1,0.9 0.29,1.35 0.05,0.11 0.11,0.27 0.16,0.38l0.72 0.96c-0.13,-3.89 -1.15,-2.12 -1.74,-5.26l1.84 1.31c0.11,-0.57 0.13,-1.57 0.18,-1.89l0.69 -2.11 0.64 3.18c1.24,-0.94 1.01,-1.07 1.91,-0.53 -1.04,1.79 -1.93,1.91 -2.13,4.65 0.1,-0.07 0.23,-0.36 0.27,-0.27 0.24,0.51 -0.18,-1.39 3.42,-1.9l1.29 2.17c-1.35,0.75 -2.91,-0.03 -1.2,1.89 1.35,1.52 2,1.06 3.53,0.12l0.91 5.55c-1.16,0.58 -2.11,0.77 -2.85,1.23 2.42,1.69 2.49,-0.39 0.79,2.7 3.08,0.18 0.11,0.26 3.6,1.74 1.86,-0.21 0.65,0.66 1.1,-1.34l-0.16 -74.2 -10.46 0.1 -0.63 10.26 -25.62 -0.39 0.02 7.43 -13.35 1.09c1.19,2.98 12.38,12.32 15.21,15.93 -0.51,4.65 -5.58,13.29 -6.73,18.94l5.77 -2.62c1.3,10.26 -2.51,8.9 3.43,15.22 1.35,1.45 2.7,3.68 4.5,4.8 1.98,1.22 4.72,1.18 6.19,2.71z"/>
  <path class="fil0" d="M264.45 361.71l0.87 0.02c-1.48,1.86 -1.14,2.48 -0.78,4.89l1.97 0.86c-1.78,1.19 -1.14,0.29 -2.04,2.24 0.97,2.36 0.49,-0.46 1.76,2.32 0.47,1.05 0.9,6.07 4.58,2 2.22,-2.46 17.42,-18.7 19.29,-19.55 1.71,-2.24 1.09,-4.76 1.08,-8.54l-0.13 -65.42 -26.66 0.02 0.06 81.16z"/>
  <path class="fil0" d="M295.32 349.25l13.3 -10.79c4.21,-3.45 8.95,-6.74 13.49,-10.2l0 -47.64 -26.56 -0.1 -0.23 68.73z"/>
  <path class="fil0" d="M186.34 161.12c0.69,6.21 12.59,260.67 12.59,260.67l421.75 -35.98 -7.29 -113.29 -427.05 -111.4z"/>
  <path class="fil0" d="M-0.02 208.41l0 349.62 991.94 0 0 -168.37c0,0 -649.75,-119.96 -761.67,-157.82 -111.93,-37.85 -165.47,-0.98 -189.93,-9.51 -24.46,-8.52 -40.34,-13.92 -40.34,-13.92z"/>
 </g>
</svg>
