<?xml version="1.0" encoding="UTF-8"?>
<!DOCTYPE svg PUBLIC "-//W3C//DTD SVG 1.1//EN" "http://www.w3.org/Graphics/SVG/1.1/DTD/svg11.dtd">
<!-- Creator: CorelDRAW 2021 (64-Bit) -->
<svg xmlns="http://www.w3.org/2000/svg" xml:space="preserve" width="992px" height="558px" version="1.1" style="shape-rendering:geometricPrecision; text-rendering:geometricPrecision; image-rendering:optimizeQuality; fill-rule:evenodd; clip-rule:evenodd"
viewBox="0 0 992 557.97"
 xmlns:xlink="http://www.w3.org/1999/xlink"
 xmlns:xodm="http://www.corel.com/coreldraw/odm/2003">
 <defs>
  <style type="text/css">
   <![CDATA[
    .fil0 {fill:#7FD2FE}
   ]]>
  </style>
 </defs>
 <g id="Layer_x0020_1">
  <metadata id="CorelCorpID_0Corel-Layer"/>
  <path class="fil0" d="M700.24 221.01c-1.8,1.55 -5.89,2.45 -8.22,4.05 -2.46,1.7 -4.77,3.45 -7.14,5.23 -4.97,3.73 -8.89,7.11 -14.79,10.05l-32.13 16.94 -1.19 0.74c-0.34,0.17 -0.79,0.35 -1.16,0.5 -3.97,1.69 -2.95,1.55 -6.24,3.61 -2.32,1.44 -2.74,0.51 -4.5,2.18 -1.63,1.57 -1.83,1.62 -3.92,2.86 -0.67,0.4 -1.22,0.68 -2.02,1.11 -0.42,0.23 -0.65,0.37 -0.99,0.55 -0.1,0.05 -0.23,0.12 -0.33,0.18l-0.66 0.36c-1.58,0.94 -2.6,2.19 -4.46,2.43 32.81,8.93 32.81,8.93 78.75,0.97 21.83,0.01 44.71,0.58 66.43,-0.17l1.29 -5.32 10.57 -0.35 0.47 -3.09c0.31,-0.98 1.26,-1.5 2.08,-2.12l1.82 -1.07c0,0.95 1.9,2.15 2.78,2.58l1.34 -1.24c2.19,-1.62 2.88,0.39 4.68,-2.53l3.42 2.37c0.04,-0.42 0.07,-1.56 0.15,-1.92 0.4,-1.8 1.81,-2.29 3.13,-3.56 0.53,0.4 1.27,0.86 1.81,1.29 1.24,0.98 0.22,0.56 1.81,1.43 2.61,-0.02 -1.41,0.07 0.97,-0.39 2.45,-0.47 2.71,0.63 5.23,-1.9 1.16,0.97 2.77,1.94 4.65,2.07l2.06 -3.17 1.54 2.24c2.64,-0.57 -1.01,0.35 0.77,-0.33l1.02 -0.38c1.02,-0.17 0.09,-0.15 0.82,0.06l0.82 0.44c0.61,-0.95 1.48,-2.75 2.18,-3.6 0.99,-0.02 1.13,1.42 2.21,-0.18 0.7,-1.04 0.68,-3.3 0.77,-4.62 -3.55,1.27 -6.17,0.56 -5.9,-3.85 2.31,0.45 4.17,1.5 5.86,-0.36 -1.79,-0.91 -4.31,-0.99 -5.36,-2.13 0.84,-2.79 0.16,1.52 2.11,-1.64 -1.04,-2.54 -1.03,-1.39 -2.29,-2.07l0.58 -4.21 -3.05 0.51c-0.05,-2.52 0.24,-6.39 2.23,-7.44 0.85,-0.44 2.31,-0.22 2.09,-1.99 -0.22,-1.77 -0.35,1.16 -0.56,-1.85 0.63,-0.26 0.65,-0.32 1.16,-0.71l3.37 -4.38c1.48,0.53 2.1,0.42 3.33,0.18 1.58,-0.32 2.41,0.25 3.98,-0.57l0.73 1.91c0.52,-0.26 2.15,-0.62 2.26,-0.66l1.4 -1.48c0.78,-1.54 0.33,-0.01 0.24,-1.93 -0.11,-2.32 1.84,-3.71 2.55,-5.84 0.62,-1.87 0.63,-3.7 2.52,-4.29l0.09 3.39c3.35,1.93 1.28,2.05 3.04,6.64 0.24,0.61 0.31,1.04 0.49,1.54l1.55 2.95c1.19,-2.28 -0.09,-3.66 2.58,-5.11l0.4 1.25c0.03,0.13 0.06,0.3 0.1,0.44l2.36 3.83c0.05,0.06 0.16,0.21 0.24,0.3 1.62,-1.9 2.34,-6.78 3.17,-8.84 1.64,-4.08 0.4,-6.11 3.55,-8.76 2.5,2.39 3.31,7.77 4.38,11.2 0.3,0.96 1.17,3.74 1.41,4.15 1.11,-2.08 0.21,-3.15 0.37,-5.6 0.22,-3.38 1.04,-1.92 2.52,-2.53l-0.65 -4.92c-0.67,-1.81 -0.78,-4.88 -0.15,-6.87 0.71,-2.25 0.12,-0.67 2.32,-0.22 -2.02,-3.55 -0.05,-2.45 0.15,-5.99 0.09,-1.58 0.19,-2.13 1.17,-3.53l0.43 -0.61c1.16,-1.84 1.1,-5.77 3.55,-6.45 0.71,1.67 0.12,1.6 1.49,4.35 0.57,1.14 0.07,-0.44 0.43,1.11l0.88 3.84c0.36,0.89 0.5,1.45 0.8,2.23l0.45 1.06c0.3,0.84 0.05,-0.67 0.36,1.15 0.35,2.01 -0.27,3.61 -0.83,5.04 1.87,1.83 1,1.97 1.62,4.53 0.65,2.73 0.32,1.05 1,1.77 0.08,-0.12 0.15,-0.48 0.18,-0.4 0.01,0.02 0.99,-4.2 2.92,-4.74 0.36,1.2 0.4,1.77 0.74,2.61 0.05,0.13 0.11,0.26 0.16,0.39 0.05,0.12 0.12,0.25 0.18,0.37 0.06,0.12 0.14,0.24 0.19,0.36 0.71,1.53 0.39,0.2 0.6,1.46 0.14,0.9 -0.81,2.3 0.27,3.14 0.75,0.59 -0.5,0.62 0.98,0.23l0.74 0.32c1.56,0.36 4.01,0.46 5.13,-0.93 -2.2,0.56 -4.76,0.26 -5.63,-2.12l5.71 0.73c-0.9,-0.5 -0.63,-0.34 -1.47,-0.82 -1.79,-1.02 -0.92,-0.21 -1.51,-1.26 -1.4,-2.48 -0.55,-0.96 1.48,-2.33l0.69 -0.49c0,-0.03 -0.05,-0.05 -0.06,-0.04l-0.78 -2.09c1.75,0.64 1.65,0.14 3.51,0.14 1.31,-0.01 -0.03,-0.41 0.95,0.2 -1,2.67 -3.2,0.92 -1.55,3.82 2.66,-1.96 -0.27,-1.69 3.62,-2.14 0.1,0.15 0.18,0.21 0.21,0.49 0.04,0.27 0.16,0.35 0.2,0.49 0.04,0.13 0.12,0.32 0.17,0.47 0.54,1.63 0.69,2.27 2.47,3.05 0.65,-3.36 -0.77,-4.15 2,-4.58l0.64 -0.09c-1.79,-1.91 -0.86,-1.77 -0.07,-3.68 1.33,-3.23 -1.15,-1.36 1.61,-5.33 0.85,-1.23 -0.32,0.63 0.4,-0.7 0.03,-0.06 0.09,-0.2 0.12,-0.25l1.84 -5.26 2.75 -0.58c-0.43,-1 -0.47,-0.69 -1.84,-1.49 -0.11,-0.06 -0.3,-0.13 -0.43,-0.23 0.88,-1.3 0.75,-0.69 1.14,-1.82 -2.1,-0.42 -0.89,-0.52 -2.32,0.36 -1.62,1.01 -0.98,0.45 -2.88,1.16 0.29,-0.8 0.73,-0.67 0.57,-1.78 -0.01,-0.08 -0.04,-0.25 -0.07,-0.32 -0.02,-0.08 -0.09,-0.23 -0.14,-0.3 -0.99,-1.55 -1.08,-0.16 -2.33,-0.92 0.54,-1.93 0.44,-2.04 0.81,-4.04 1.04,-0.69 0.1,-0.61 1.97,-0.08 -1.28,-2.98 -1.86,-0.56 -0.68,-5.08 2.57,0.65 -0.27,0.1 1.92,1.27 0.38,-2.5 -0.14,-0.92 -0.49,-3.23l-0.8 -3.2c0.42,0.2 1.16,0.39 1.45,0.51 0.1,0.05 0.24,0.11 0.34,0.16l0.95 0.54c1.71,0.85 1.11,0.59 3.4,0.57l1.63 -3.05c-0.07,-0.06 0.13,-0.06 0.2,0.14l1.4 0.61c1.1,-0.04 1.09,-1.85 2.02,-2.55 2.12,-1.57 5.73,-1.52 8.7,-2.16 1.38,2.15 1.59,2.44 4.79,2.18 2.08,-0.17 0.61,-0.24 2.04,-1.05 1.16,-0.65 1.98,-0.02 4.05,0.18 0.61,0.07 1.63,0.3 2.22,0.99l2.6 4.72c2.77,0.05 4.04,-1.27 4.99,1.78 0.33,1.05 -0.31,0.68 0.67,1.2 1.18,0.63 2.11,0.52 3.15,1.55 1.75,1.74 -0.06,1.07 1.93,1.48 3.26,0.66 2.41,-0.64 2.7,-0.94 -1.2,-0.8 -2.76,-1.57 -3.6,-2.32 1.45,-0.85 1.11,-0.03 1.87,-1.02 1.18,-1.55 0.7,-0.4 -0.47,-2.08l2.3 -1.71 -2.69 -1.28c2.23,-1.43 3.23,-0.07 6.44,-0.23l-3.25 -1.23c0.56,-3.21 -0.23,0.47 -0.47,-2.78l1.87 0.35 2.44 -5.48 2.15 3.21 -1.62 1.43c-0.49,0.78 -0.52,0.69 -0.01,1.74 0.47,-0.29 0.72,-0.59 0.97,-0.8 1.75,-1.42 -0.52,-0.23 1.61,-1.17 0.5,0.61 0.55,-0.64 1.02,1.67 0.34,1.62 -2.25,2.31 1.56,3.79 -1.2,2.36 -1.59,-0.14 -1.11,1.46 0.32,1.07 1.21,0.65 2.15,0.69 0.83,-1.31 0.72,-3.62 0.83,-4.98 0.23,-3 0.7,-1.3 2.6,-1.03 -0.74,-1.66 -0.44,-0.18 -0.51,-1.43 0,-0.06 0.01,-0.22 0.01,-0.28 0.08,-2.06 0.51,-4.75 1.41,-6.67 0.07,-0.15 0.3,-0.54 0.37,-0.68 0.16,-0.33 0.24,-0.47 0.51,-1.04 1.09,-2.37 0.93,-4.88 3.05,-6.35l0.57 1.09c1.57,3.42 2.13,6.66 3.5,10.36 0.04,0.11 0.1,0.25 0.14,0.36 0.05,0.11 0.11,0.24 0.15,0.34 0.72,1.86 0.32,4.66 -0.36,6.52 0.1,0.09 0.29,0.06 0.33,0.23l1.32 4.31c0,0.03 0.29,1.46 0.32,1.66 0.83,0.52 1.27,0.37 2.51,0.21 0.35,2.35 0.36,3.19 1.85,4.38 2,-2.85 2.49,-6.07 3.85,-9.56 0.97,-2.48 1.04,-8.02 3.9,-9.29 2.17,2.62 5.06,12.33 5.25,15.76 0.79,-1.33 1.75,-2.11 2.16,-3.69 0.38,-1.44 0.24,-2.02 1.37,-3.87l0 -93.15c-8.19,3.77 -15.85,8.25 -24.2,12.56l-47.59 25.15c-7.69,3.95 -15.43,8.1 -23.82,12.43 -8.04,4.15 -16.25,8.79 -23.99,12.66 -16.81,8.4 -53.74,18.7 -64.55,25.85 -2.06,1.36 -3.3,2.2 -5.5,3.79 -3.22,2.32 -2.21,1.61 -6.85,1.89l0.84 2.46c-4.59,2.57 -26.9,18.45 -33.08,22.71 -6.11,4.22 -59.35,28.4 -62.94,28.62z"/>
  <path class="fil0" d="M461.64 357.51l3.86 9.87c2.17,3.34 2.8,9.23 3.42,10.99 1.03,2.95 1.02,-0.13 2.2,5.92 0.46,2.4 -0.38,-0.47 0.16,2.07 0.44,2.08 1.36,1.8 2.56,3.24 0.23,0.69 -2.18,6.4 1.41,11.38 0.44,0.62 0.62,0.72 1.28,1.36 1.3,1.27 0.67,-0.37 1.05,1.35 0.38,1.73 -1.01,1.61 -0.52,3.34 0.94,3.26 1.1,-0.76 2.9,2.16 0.82,1.33 -0.02,2.04 -0.05,3.66 -0.06,3.05 0.76,0.39 -0.49,3.61 1.84,0.1 1.62,-0.02 2.9,1.04 -0.3,1.26 0.25,0.5 -0.97,0.68 -0.01,0.44 -0.08,0.94 0.02,1.29 0.32,1.1 0.12,0.62 0.63,1.35 3.16,-0.35 0.42,0.35 1.77,-1.09l2.02 -3.16c0.73,-1.09 0.46,-0.27 1.04,-1.46 1.04,-2.11 -0.11,-5.25 3.44,-6.3l0.88 3.33c0.01,0.06 0.03,0.2 0.04,0.25 0,0.05 0,0.19 0.01,0.23 0.3,1.97 -0.55,0.02 0.35,1.08 0.07,0.09 0.68,0.58 0.8,0.67 0.31,0.21 0.19,0.29 1.12,0.65 0,-2.41 0.48,-1.65 0.45,-4.2 -0.03,-2.24 -0.66,-1.18 0.45,-3.64l1.22 0.69c0.34,0.1 0.78,0.3 1.73,-0.18 -0.66,-0.83 -1.07,-1.59 -1.65,-2.59 2.38,-1.89 -0.42,0.59 1.71,-0.51 -1.01,-2.25 -0.6,-0.75 -0.09,-2.68 1.02,-3.93 -0.87,-1.74 0.51,-5.36 0.86,-2.26 1.3,-0.9 2.91,-4.19l0.52 -2.15c0.46,-2.28 1.27,-3.76 2.99,-4.56 0.87,1.54 1.37,3.49 0.38,5.02 3.34,0.41 0.2,-0.34 2.63,1.52 -0.04,1.49 -0.43,1.7 -0.5,2.79l0.38 1.86c0.02,0.05 0.07,0.21 0.09,0.26 1.21,2.54 -2.15,-1.57 0.72,0.66 0.51,0.4 0.19,-0.37 0.72,0.81 0.36,0.8 0.49,2.35 0.44,3.43l1.21 0.38c0.58,0.48 -0.16,3.37 -0.29,4.5l-0.06 0.97c-0.01,0.11 -0.01,0.27 -0.02,0.39 -0.14,1.16 -0.2,1.18 -0.49,2.04 -0.49,1.46 -0.8,2.03 -0.95,3.5 0.78,-1.54 0.1,-1 1.94,-1.69 0.08,0.13 0.16,0.2 0.19,0.43l0.72 4.73c0.24,1.24 0.26,-0.26 0.21,0.92 -0.04,1.04 0.42,-0.05 -1,1.4 0.17,0.06 0.81,0.47 0.86,0.53 0.03,0.05 0.14,0.19 0.18,0.25l0.24 0.85c0.14,0.41 -0.67,0.33 0.93,0.89 0.04,0.02 0.2,0.02 0.28,0.06 -0.95,4.14 1.78,1.37 -1.32,5.52 4.22,0.56 1.1,-0.39 3.87,-3.49 1.85,0.83 1.09,1.46 3.6,2.53 -1.92,-4.28 0.95,-0.09 -0.25,-6.16l-0.11 -0.51c0.02,-0.98 1.85,-3.09 2.06,-3.38 0.44,-0.63 0.18,-0.28 0.62,-0.96l0.4 -0.65c2.21,-3.54 0.47,-1.97 1.54,-4.72 0.04,-0.09 0.1,-0.24 0.15,-0.34l0.53 -1.03c0.62,-0.98 1.14,-1.32 2.03,-1.54 1.02,3.97 1.38,3.16 0.1,5 2.03,0.13 2.25,0.84 3.53,1.19 0.75,-2.99 -1.23,-1.9 1.73,-3.86 -2.71,-2.84 0.31,-4.76 1.71,-7.19 0.64,-1.09 0.62,-1.58 1.48,-2.6 2.58,0.75 3.28,5.03 4.46,7.92 2.83,6.91 2.25,10.19 5.62,11.75 0.21,-0.84 -1.11,-0.62 0.76,-0.71 0.33,2.06 0.04,1.55 1.06,2.73 0.07,-2.69 -0.63,-2.84 -1.68,-4.66 0.88,-0.4 -0.23,-0.32 2.02,0.44l0.75 -3.66 0.55 2.85c-0.01,-0.02 0.96,-0.45 1.07,-0.45 1.41,-0.03 -0.03,-0.33 0.87,0.3 -0.9,1.33 -2.55,2.59 -1.65,4.85 1.48,-4.18 0.86,-1.33 2.79,-2.74 1.8,-1.31 0.01,-1.65 1.87,-4.79l2.81 -8.18c0.03,-0.11 0.09,-0.24 0.11,-0.35 0.03,-0.11 0.07,-0.25 0.09,-0.36 0.02,-0.1 0.04,-0.25 0.05,-0.35 0.68,-7.23 0.05,-3.01 2.51,-6.86 0.95,-1.48 0.44,-1.58 1.77,-2.98 1.07,0.58 1.68,1.44 2.18,2.49l6.18 17.22c0.86,3.18 -0.5,4.05 2.53,5.53 -0.13,2.52 -0.97,3.23 -0.21,5.97 1.37,4.9 2.6,3.79 2.92,3.85 0.84,-1.09 0.39,-0.35 1.52,-1.3 0.95,-0.8 0.14,-1.02 1.31,-0.85 3.14,-0.17 0.92,0.09 3.69,0.79 -0.56,-0.82 -1.08,-1.43 -1.6,-2.64l1.59 -0.52c-0.68,-1.64 -0.97,-0.6 -0.51,-2.13 0.81,-2.7 0.88,0.65 0.83,-2.61 -0.04,-2.89 -0.68,-2.52 1.39,-5.04l0.93 -1.54c1.29,-2.2 1.19,-7.42 4.63,-7.54 0.41,1.72 0.07,2.27 0.99,3.36l-1.8 1.33c1.73,0.2 2.04,0.28 2.5,0.64 0.05,0.03 0.15,0.15 0.19,0.18 0.04,0.04 0.13,0.17 0.16,0.21l0.88 1.13c-0.73,1.48 -0.78,1.8 -0.6,3.11 0.39,2.9 0.02,2 1.64,1.62 0.19,2.16 0.59,2.66 0.51,4.7 0.11,0.06 0.3,0 0.34,0.14l0.61 0.22c2.81,0.89 -1.41,-0.92 0.59,0.15 -0.77,1.68 -0.59,1.85 0.19,3.25l0.95 -1.85c1.57,-4.54 -0.32,-5.3 3.06,-9.77 1.14,-1.51 0.66,-2.06 2.19,-3.46 2.18,1.18 3.33,5.66 4.33,8 0.05,0.11 0.12,0.24 0.17,0.35 0.7,1.52 1.15,3.42 2.22,4.73 3.52,-0.98 0.64,-3.7 6.2,-5.36l1.21 4.25c0.03,0.06 0.07,0.21 0.1,0.27l1.9 2.81 -1.25 2.43c1.49,0.58 0.67,-0.06 1.71,1.01 1.4,1.45 0.68,4.41 2.01,5.96 4.69,-2.67 1.77,-5.42 2.87,-7.74 0.04,-0.08 0.12,-0.22 0.17,-0.31 1.4,-2.34 -0.77,0.89 0.44,-0.61l1.33 -1.47c0.03,-0.05 0.08,-0.2 0.1,-0.25 0.05,-0.11 0.1,-0.44 0.15,-0.56l1.43 -3.64c0.43,-2.13 1.08,-4.17 3.33,-4.68 0.26,0.81 0.25,1.22 0.45,1.95l1.33 3.35c1.15,1.73 0.47,0.17 1.29,1.88 -1.24,2.25 0.74,2.01 -2.29,2.26 2.94,0.8 2.34,0.36 1.87,2.78 2.96,-1.89 0.24,0.05 2.08,-0.27 1.61,-0.29 0.79,-2.17 1.41,-3.81 0.04,-0.12 0.58,-1.3 0.67,-1.45 0.69,-1.19 1.11,-1.52 2.12,-1.76 0.22,0.79 0.26,1.73 0.39,2.17 0.35,1.16 0.2,0.94 0.89,1.61l-1.68 1.31c3.05,0.15 0.18,0.87 3.93,1.39 0.08,-7.33 1.46,-2.84 1.97,-8.27 0.02,-0.21 0.13,-1.62 0.19,-1.84 0.32,-1.24 1.39,-1.71 1.81,-3.04l2.02 -7.31c0.6,-3.41 -1.03,-2.69 2.09,-6.65 1.1,-1.39 0.9,-2.14 2.19,-3.49 2.15,0.86 4.86,8.44 5.79,11.14l2.91 10.24c0.32,1.92 0.04,1.85 1.12,3.08 1.8,-3.25 0.13,-2.62 1.73,-5.1 2.97,-4.61 0.89,-1.23 2.52,-5.97l0.43 -0.99c0.59,-1.2 1.09,-1.81 2.4,-2.39 0.96,2.55 0.01,2.21 1.29,3.33 -0.05,0.85 -0.44,0.78 -1.24,1.67 3.97,0.4 1.96,2.66 2.82,5.39 1.29,4.05 0.67,-1.2 1.39,3.18 0.02,0.13 0.03,0.51 0.05,0.64l0.51 3.08c3.9,-1.12 -0.74,1.37 2.56,0.08l0.69 -2.21c-0.83,-0.35 -0.45,1.01 -0.76,-0.89l0.52 -0.56c2.12,-2.91 1.14,-4.7 1.89,-8.04 0.01,-0.05 0.74,-1.77 0.76,-1.8l3.62 -5.03c3.76,3.15 0.97,3.69 3.61,5.16 1.68,-1.14 0.89,-2.11 2.59,-3.77 1.76,0.83 2.04,2.03 2.68,3.62l1.9 3.74c1.53,-2.84 -1.4,-3.06 1.11,-6.51 0.04,-0.06 1.9,-1.45 3.2,-6.32 0.49,-1.83 0.93,-3 2.91,-3.68l2.58 6.68 2.15 -0.12c-0.85,-3.62 2.04,-0.95 0.24,-5.27 -0.59,-1.4 -0.54,-3.72 1.15,-4.62 -0.86,-3.02 -13.36,-16.97 -15.81,-21.11l2.44 -2.46c-1.54,-3.87 -19.94,-20.18 -24.66,-24.35 -7.98,-7.04 -18.06,-14.89 -27.89,-21.2 -17.88,-11.47 -44.88,-26.69 -66.18,-31.96 0.9,0.93 -1.13,1.34 1.07,0.81 -2.07,0.38 -3.11,1.95 -7.34,4.27l-6.74 4.11c-1.54,0.99 -2.4,0.75 -3.77,1.94l-11.17 6.91c-6.41,3.72 -9.52,6.38 -16.7,9.76l-16.68 10.5c-4.82,2.05 -14.94,-1.45 -20.21,1.67l-12.58 9.53c-5.41,3.65 -4.62,3.8 -6.04,4.84 -2.58,1.89 -0.99,0.21 -6.3,4.51 -1.89,1.53 -4.3,2.82 -6.38,4.63z"/>
  <path class="fil0" d="M719.93 366.32l-1.01 -3.16 2.64 -0.69 -2.64 -1.63c0.75,-1.26 0.48,-0.62 1.12,-1.33 2.75,-3.03 0.4,-3.88 2.75,-4.52l1.79 -1.84c0.08,-0.08 0.19,-0.18 0.26,-0.26 1.1,-1.34 0.71,-2.67 0.69,-5.12 -0.02,-3.28 0,-6.56 0,-9.83 0,-17.89 0.56,-40.21 -0.04,-57.15l-26.75 0.12 0.13 74.27c0.36,0.94 4.2,4.57 5.4,5.15l4.53 -4.16c3.71,3.44 8.49,9.75 11.13,10.15z"/>
  <path class="fil0" d="M729.59 359.12c4.52,-9.64 -3.12,-3.68 12.8,-18.08l26.8 -25.83c-1.22,-1.32 -1.98,-1.86 -3.22,-2.92l-3.5 -3.42 12.23 -4.17 0.19 -6.4 -17.06 -0.06 -0.01 -8.44 -22.07 -1.17 -0.41 -7.68 -5.62 -0.17 -0.13 78.34z"/>
  <path class="fil0" d="M667.64 329.68l19.79 15.69c2,1.6 4.73,4.61 7.08,5.68l0.02 -70.18 -27.25 -0.06 0.36 48.87z"/>
  <path class="fil0" d="M636.16 309.78c4.7,2.86 9.37,5.32 13.72,8.05 3.89,2.45 9.47,6.44 13.46,8.71 0.99,-10.14 -0.02,-25.94 -0.14,-36.65 -0.13,-10.87 2.06,-9.13 -8.64,-9.12 -6.15,0 -12.38,-0.1 -18.52,0.03l0.12 28.98z"/>
  <path class="fil0" d="M604.75 294.69c3.91,2.2 9.67,4.21 13.64,6.04 4.73,2.19 8.83,4.69 13.39,6.63 0.58,-3.59 0.61,-24.18 -0.49,-26.24 -1.85,-0.82 -23.32,-0.71 -26.5,-0.15l-0.04 13.72z"/>
  <path class="fil0" d="M632.36 260.1c0,0 -21.23,13 -40.46,24.66 -7.44,4.51 -14.57,8.81 -20.07,12.09 -19.72,11.76 -72.13,64.14 -72.13,64.14l209.27 59.49 197.79 -156.56 -274.4 -3.82z"/>
  <path class="fil0" d="M991.92 135.07l0 422.96 -991.94 0 0 -174.82c0,0 308.29,166.85 535.75,-11.98 227.45,-178.84 456.19,-267.73 456.19,-267.73l0 31.57z"/>
 </g>
</svg>
