<?xml version="1.0" encoding="UTF-8"?>
<!DOCTYPE svg PUBLIC "-//W3C//DTD SVG 1.1//EN" "http://www.w3.org/Graphics/SVG/1.1/DTD/svg11.dtd">
<!-- Creator: CorelDRAW 2021 (64-Bit) -->
<svg xmlns="http://www.w3.org/2000/svg" xml:space="preserve" width="992px" height="558px" version="1.1" style="shape-rendering:geometricPrecision; text-rendering:geometricPrecision; image-rendering:optimizeQuality; fill-rule:evenodd; clip-rule:evenodd"
viewBox="0 0 992 557.97"
 xmlns:xlink="http://www.w3.org/1999/xlink"
 xmlns:xodm="http://www.corel.com/coreldraw/odm/2003">
 <defs>
  <style type="text/css">
   <![CDATA[
    .fil0 {fill:#002645}
   ]]>
  </style>
 </defs>
 <g id="Layer_x0020_1">
  <metadata id="CorelCorpID_0Corel-Layer"/>
  <path class="fil0" d="M-0.02 294.37l2.31 -0.08c-0.71,2.14 -1.23,-0.03 -1.42,3.48 0.99,-0.4 1.58,-0.57 3.1,-0.5l0.4 1.12c0.42,1.59 -0.16,0.44 -0.1,2.02 0.01,0.08 -0.01,0.25 0,0.33 0.02,0.07 0.05,0.24 0.09,0.32 0.71,1.39 -0.6,0.13 0.8,0.66 1.65,0.62 0.52,-0.03 2.26,-0.14 0.28,1.84 1.16,3.84 0.68,4.96 -0.3,0.69 -0.95,-0.61 -0.89,2.24 0.05,2.93 1.44,3.06 3.38,4.26 0.81,0.5 0.8,0.52 1.45,1.3 -1.65,0.3 -2.09,0.75 -3.81,0.84 -4.02,0.21 -3.38,-0.81 -4.14,1.06 0.68,1.48 -0.68,0.7 1.58,1.03l8.15 0.32c4.09,-0.7 1.94,-4.79 5.28,-6.17 1.02,1.36 1.55,1.25 2.3,2.44 1.56,2.45 3.04,9.76 3.74,12.45 0.66,2.52 0.98,1.29 1.61,3.5 0.94,3.34 1.55,4.37 2.15,8.23 0.32,2.01 0.9,2.38 2.27,3.52 -0.8,11.77 3.27,8.25 2.7,14.24 -0.27,2.94 0.17,2.24 3.12,2 -0.11,-1.1 -0.57,-2.91 -0.94,-3.84 0.1,-0.09 0.28,-0.34 0.34,-0.24 0.06,0.13 0.36,-0.24 0.67,-0.44 1.84,-1.17 1.64,-0.93 2.33,-3.25l1.72 -6.24c0.03,-0.07 0.08,-0.21 0.11,-0.29l1.01 -4.51c0.5,-2.49 1.61,-2.56 2.2,-5.7l2.29 -8.55c0.38,-1.75 -0.18,-0.92 -0.03,-3.28 0.08,-1.37 4.43,-8.16 5.47,-9.06 0.39,0.52 0.59,1 1.05,1.67l5.84 17.16c-0.07,1.71 0.79,-0.64 -0.43,1.76 3.41,1.01 3.04,2.74 3.03,7.02l2.5 1.99c-0.34,12.86 -0.88,5.42 2.38,11.54 0.96,1.8 0.71,2.2 0.66,4.55l-0.63 0.42c-1.75,1.79 2.19,-0.56 3.23,2.02 1.59,3.96 -2.72,8.5 3.06,8.79l6.71 1.03c0.12,-0.01 0.29,-0.06 0.4,-0.07l0.82 -0.31c-1.29,-3.38 -2.29,-0.75 -4.47,-2 -1.13,-0.64 -0.68,-3.63 -0.76,-5.23 0.11,-0.06 0.3,-0.19 0.36,-0.08l1.58 -0.36c1.67,-0.76 0.32,1.33 1.41,-1.48 0.63,-1.63 0.16,-2.95 -0.29,-4.28 3.27,-1.83 2.49,-0.68 5.07,-5.04 1.32,2.35 -0.67,2.36 2.55,1.42 -0.18,1.42 -0.33,1.4 -0.62,2.72l2.62 0.17 -1.06 3.93c1.82,0.38 0.89,0.41 2.24,0.51 2.49,0.18 0.07,-0.16 2.53,-0.24 1.5,5.84 -0.7,7.34 0.17,9.8 4.27,1.79 3.35,-0.52 4.26,-2.2l0.73 -1.37c0.34,-1.09 0.18,-1.72 0.28,-2.87 0.27,-3.14 2.26,-4.67 3.4,-8.93 0.57,-2.15 1.78,-4.8 1.73,-6.42 -0.03,-0.95 -0.37,-1.31 -0.09,-2.71l5.02 -7.53c3.06,0.9 1.66,3.65 3.53,5.9 2.62,3.15 2.6,8.83 4.4,12.69 0.58,-1.25 0.18,-0.55 1.03,-1.66 0.54,-0.7 0.35,-0.46 0.74,-0.86l1.15 -1.05c2.24,1.15 1.93,2.85 3.06,4.83 0.78,1.38 0.45,-0.26 1.24,1.77l2.1 6.14c0.26,0.94 0.38,1.4 0.68,2.41l6.49 16.29c6.73,-0.04 1.19,-1.44 5.79,-8.41 0.95,-1.43 1.06,-2.99 2.86,-3.83 5.21,1.94 6.08,15.76 8.31,19.66 0.98,1.7 1.07,0.26 1.53,3.08 0.26,1.62 0.31,2.95 0.95,4.24 2.54,5.08 0.96,-1.4 2.06,7.19l2.39 6.99c1.51,3.08 2.63,0.65 2.49,6.94 -0.12,5.38 1.12,3.83 3.07,6.7 -1.17,2.34 -0.57,0.27 -1.48,1.88l1.12 2.26c1.26,0.32 2.08,0.24 3.06,1.03 -0.68,3.32 -0.53,1.1 -2.19,3.1 1.17,3.08 1.63,0.62 4.7,1.89 -0.88,1.84 -2.4,2.06 -3.38,4.15l-0.85 1.63c1.63,-0.26 1.26,-0.43 3.21,-0.56 0.68,1.21 0.36,1.39 1.51,1.79 0.31,0.11 2.03,-0.01 2.29,-0.12 0.41,-1.5 0.92,-4 1.15,-5.98l3.47 -9.68c0.87,-2.6 0.41,-4.19 3.27,-4.84 1.89,2.97 0.43,5.55 4.55,7.15 2.15,0.83 1.53,-0.22 4.17,0.41 1.78,0.43 3.32,0.86 5,0.02l-2.87 -1.52c-1.7,-1.09 -1.2,-0.87 -3.67,-1.07 0.71,-3.7 -0.47,0.04 -0.54,-4.25l3.25 -0.91 -0.88 -5.68 2.56 -0.42c0.02,-3.36 -0.17,-1.59 0.82,-2.73 0.07,-0.08 0.2,-0.17 0.27,-0.24 0.07,-0.08 0.2,-0.17 0.27,-0.25l1.02 -1.43 0.83 2.04c2.58,-0.81 0.15,-0.37 2.07,-0.84 -0.48,2.02 -0.74,1.02 -1.37,2.84l0.8 0.25c0.26,0.08 1.11,0.31 1.25,0.37 0.69,0.29 0.89,-1.02 1.21,1.1 0.42,2.82 -1.73,-1.62 -0.57,2.95l-3.24 0.29 0.29 4.4c4.33,-1.18 0.7,-3.77 6.58,-3.79l0.3 6.43c-0.04,0.72 -0.39,-0.92 0.07,1.02l1.5 2.07c0.13,0.09 0.9,0.51 1.04,0.59 1.19,0.66 1.68,0.89 2.26,1.94 -1.23,0.18 -3.9,0.67 -4.43,0.7 -2.88,0.16 -2.89,-1.76 -3.51,1.31 2.05,1.37 7.67,0.05 10.25,1.21 0.07,2.78 -2.98,2.99 -5.18,3.73 -0.12,0.04 -0.25,0.09 -0.37,0.13l-3.14 1.21c1.98,0.89 2.74,0.82 5.41,0.64 1.65,-0.11 3.75,0.2 5.84,0.5 -0.57,1.11 -0.11,0.34 -1.37,1.31l-2.14 1.5c-0.87,0.52 -1.2,0.56 -1.72,0.96l-1.67 2.1c3.45,-0.02 6.43,0.06 8.84,2.21 -3.38,3.09 -1.66,3.29 -5.72,4.23 -2.81,0.66 -1.6,-0.15 -2.33,1.45l2.13 0.6c1.86,-0.12 0.79,-0.5 2.21,-0.67 0.4,-0.05 3.86,0.42 5.58,0.39l0.49 -3.31c-0.45,-1.87 -0.67,-0.57 -0.67,-3.86 2.75,-0.13 1.57,2.27 4.82,1.01 1.02,-2.37 -0.19,-2.47 -0.12,-4.53 0.12,-3.8 2.46,-1.11 1.17,-4.09 1.85,0.09 1.09,0.35 2.2,-0.01l0.95 -0.47c1.12,-0.5 0.58,-0.29 1.68,-0.66 -0.58,2.54 -0.59,1.12 -1.16,2.29 -0.63,1.31 -0.84,0.97 -0.06,2.37 1.74,-0.88 0.02,0.13 1.23,-1.72l2.16 -4.04c0.92,-2.21 1.21,-5.44 2.36,-7.47 1.67,-2.96 0.49,0.73 2.1,-3.57l1.51 -4.46c0.38,-2.2 0.59,-3.5 0.58,-6.03 -0.02,-3.97 0.34,-3.11 1.82,-5.31 1.37,-2.05 0.73,-2.54 2.7,-3.85 1.04,0.74 1.54,1.42 2.17,2.83l2.85 7.54c1.17,1.98 2.71,7.85 4.04,11.46 0.81,2.22 -0.19,4.39 1.35,6.36 0.5,0.63 0.09,0.12 0.79,0.79l0.93 0.85c0.07,4.61 -0.74,6.33 1.55,9.58 1.14,1.63 1.43,1.5 1.7,3.88 0.43,3.84 -0.27,1.62 2.2,3.59 0.33,3.31 -0.37,6.2 1.17,8.61 3.59,5.6 0.95,12.94 3.34,18.9 3.56,-1.29 1.06,0.12 2.8,-2.16 3.82,-5.01 0.8,-8.36 3.14,-10.73 1.95,-1.98 0.27,1.72 3.04,-6.26 0.56,-1.63 0.13,-2.41 0.63,-4.08 0.69,-2.34 0.71,-1.21 1.72,-1.7 0.29,-6.4 1.36,-1.09 2.14,-6.67 0.45,-3.13 0.47,-4.61 3.46,-5 0.91,1.96 0.9,4.3 2.1,6.15 0.83,1.27 0.7,0.61 0.9,2.02 0.5,3.39 -0.54,1.77 1.03,4.81 0.94,1.83 0.81,2.54 0.85,5.03 3.1,0.22 2.24,1.02 4.66,-0.02 1.95,3.27 0.74,0.72 2.93,1.94 -1.37,1.58 -1.07,0.35 -1.56,2.73l4.16 -0.55c-1.52,1.33 -0.65,1.74 -0.67,4.85 0.86,-0.22 1.94,-1.29 2.9,-0.73 1.41,0.81 1.77,4.65 0.94,6.1 -2.25,3.93 -0.1,3.22 0.19,3.5 1.62,2.06 -1.76,-0.02 1.01,0.54 2.24,0.44 -0.15,-0.02 1.13,0.02 1.79,0.05 -0.02,-1.05 1.89,0.49l0.5 -1.41c0.05,-0.11 0.12,-0.28 0.16,-0.39l1.45 1.94c0.06,1.59 -0.33,1.07 -0.63,3.12 0.86,-0.49 1.51,-1.12 2.52,-0.57l-0.01 2.58c-0.7,0.49 -0.18,0.29 -1.32,0.57l-0.52 0.07c-0.08,0 -0.19,0.04 -0.23,-0.12 -0.02,2.75 -0.12,6.94 2.68,3.15 1.32,-1.79 0.2,-2.37 2.66,-2.3 2.53,0.08 1.59,1.51 1.8,3.8l-2.17 1.79c0.84,1.57 0.84,1.03 0.52,3.15 2.18,0.32 3.1,1.1 3.87,3.2l-6.34 0.26c0.41,1.18 0.72,2.07 1.42,2.82 4.4,-0.2 0.58,-1.91 5.95,0.01l2.67 -4.97c0.62,-2.37 1.47,-3.18 1.98,-5.72 0.32,-1.56 0.66,-2.68 2.16,-3.31 2.19,1.5 0.49,3.41 2.26,5.13 3.09,3 3.76,-1.16 3.84,-3.91l1.84 -1.04c-0.89,-0.6 -0.9,-0.36 -1.42,-1.55 2.24,-3.46 3.05,-0.28 2.38,-9.3 2.3,-1.65 2.04,-0.11 3.08,-3.55l1.16 -6.11c0.73,-2.45 1.44,-0.12 1.81,-5.33 0.32,-4.64 1.02,-1.83 2.14,-5.25 0.84,-2.59 0.14,-2.39 1.51,-5.07 1.45,-2.83 -0.12,-6.81 1.49,-9.44l1.19 -1.26c0.08,-0.08 0.21,-0.17 0.28,-0.25 1.23,-1.23 1.97,-3.38 3.23,-4.49 2.04,0.87 0.06,-0.23 1.21,1.33 0.06,0.08 0.14,0.22 0.21,0.3l3.69 8.21c0.87,1.96 0.28,-0.3 1.03,2.06 0.52,1.62 0.82,3.29 1.26,4.91 0.77,2.85 0.32,2.17 1.65,4.54 1.53,2.72 0.3,3.98 2.41,6.94 1.66,2.34 0.55,4.26 0.55,7.81l3.56 3.04c1.21,0.87 0.44,1.76 3.69,2.65 0,1.65 -0.97,3.04 -0.52,4.52l5.03 1.47c0.09,-0.13 0.22,-0.46 0.26,-0.37 0.46,0.92 0.46,-0.66 0.5,-0.73 0.12,-0.21 0.47,-0.92 0.55,-1.11 0.3,-0.69 0.2,-0.63 0.4,-1.13l3.16 -5.24c-0.43,-1.87 0.07,-3.17 -0.77,-4.65 -1.95,-3.43 0.26,1.83 -0.9,-1.03 0.8,-0.64 0.28,-0.01 0.83,-0.65 0.96,-1.1 0.03,0.35 0.65,-0.92 0.26,-0.55 0.6,-2.38 0.69,-3.08 0.52,-0.32 0.1,-0.01 0.98,-0.35l1.17 -0.49c0.11,-0.05 0.3,-0.11 0.43,-0.19 -0.08,-4.12 0.39,-3.71 3.27,-5.24 0.02,-2.05 0.11,-4.74 0.35,-6.64 3.47,-2.79 0.84,-0.25 2.38,-4.32 1.17,-1.11 0.59,-0.24 1.85,-1.03l1.59 -1.21c1,2.06 1.05,2.47 1.04,5.52l1.04 0.7c0.65,0.51 0.05,-0.07 0.85,0.73 0.48,0.49 0.25,0.64 1.27,1.52 -2.38,1.08 -2.53,-1.36 -3.69,0.67 1.35,0.87 3.3,0.69 5,0.74 -0.15,-2.22 -0.9,-2.54 -0.21,-4.79l1.87 -3.45c1.27,-1.92 1.46,-4.86 0.94,-6.87 -0.28,-1.12 -0.65,-0.41 -0.96,-1.65 2.88,-1.46 0.6,-1.12 2.03,-3.42 1.08,-1.74 1.32,-0.57 4.15,-1.57 -0.7,-1.93 -0.95,-0.81 -1.6,-2.76l1.09 -1.69c-3.14,0.84 -1.31,1.36 -3.41,2.2 0.06,-2.69 0.32,-4.3 -0.97,-6.16 -4.97,1.52 -3.02,3.4 -4.39,5.4 -1.05,1.54 -1.93,0.57 -1.6,8.04 -1.46,0.38 -2.74,0.56 -3.15,2.28 -0.57,2.35 1.13,2.74 1.27,2.85 -0.97,0.43 -1.79,0.45 -2.46,0.58 -1.16,0.22 0.67,-0.26 -0.97,0.23l-6.06 0.61c0.31,-4.66 1.98,-4.59 2.51,-10.49 0.01,-0.16 0.04,-0.29 0.05,-0.45 0.34,-4.09 -0.61,-2.46 -0.52,-5.98 -0.12,-0.08 -0.3,-0.17 -0.39,-0.22l-1.7 -0.81 -0.03 -4.65c-0.09,-0.05 -0.24,-0.09 -0.29,-0.1l-1.31 -0.42c1.05,-1.36 1,-0.8 0.76,-2.32 -0.11,-0.66 -0.5,-0.19 -0.65,-2.54l-2.62 1.1c0.19,-2.31 0.62,-1.3 0.87,-3.61 -1.43,-0.68 -3.58,-1.13 -4.93,-2.44l1.19 -0.08c1.6,0.02 3.37,1.96 3.43,-5.26 -1.64,0.02 -2.35,0.41 -3.72,0.04 -0.24,-2.82 -0.13,-0.43 0.93,-1.15 1.79,-0.43 0.77,0.33 1.69,-1.59l-5.69 -0.28c0.82,-1.04 -0.23,-0.01 1.06,-0.74 0.09,-0.05 0.24,-0.12 0.34,-0.17 0.1,-0.06 0.25,-0.12 0.35,-0.17l2.36 -1.45c-1,-1.53 0.19,-0.03 -1.17,-0.93 -0.62,-0.41 -0.37,0.64 -0.73,-0.42 -0.06,-0.18 -0.27,-0.12 -0.39,-0.2 0.59,-2.48 0.5,-4.19 -0.9,-5.95 -0.22,0.06 -2.85,1.76 -3.11,2.83 0,3.3 -0.49,3.73 -2.17,5.18 0.76,1.55 0.15,0.99 2.16,1.12l-2.9 1.68c-0.14,3.74 -1.27,3.9 -3.15,4.96l0.16 3.4c-3.27,0.95 -1.89,-0.24 -3.64,3.07 -0.13,-0.11 -0.27,-0.27 -0.35,-0.37 -0.09,-0.1 -0.24,-0.25 -0.33,-0.37l-4.43 -7.53c-2.63,5.45 -0.92,3.27 -3.3,8.6l-2.83 9.7c-0.79,3.43 -1.7,1.52 -2.02,6.14 -3.84,0.55 -2.88,1.11 -4.06,3.91 -0.68,-1.67 0.42,-4.46 1.04,-5.91l2.22 -6.18 -1.51 -1.7 1.96 -0.76c-0.1,-1.79 -0.46,-3.26 -0.51,-4.37 -0.1,-2.02 0.34,-1.71 0.89,-3.5 -3.46,0.47 0.45,0.72 -3.01,0.94l0.07 -5.08 -1.69 -0.52c1.44,-2.3 0.28,-2.56 0.58,-5.63 -0.94,0.64 -1.79,1.45 -2.95,1.86l0.78 -3.92c-0.56,-0.02 -2.52,0 -2.89,-0.08l-1.88 -1.14c-0.07,-0.23 -0.22,-0.25 -0.33,-0.38l3.36 -0.89c0.07,-0.15 0.28,0 0.41,-0.05 0.1,-1.08 -0.04,-1.1 0.15,-2.13l0.65 -2.22 -3.54 0.12c0,-3.77 -0.23,-1.06 0.98,-1.82 1.82,-0.46 0.72,0.42 1.55,-1.5l-5.35 -0.08c0.24,-1.26 -0.33,-0.01 0.75,-0.81 1.24,-0.92 1.75,-0.62 3.13,-1.99l-1.49 -0.71c-3.04,-1.18 0.79,0.5 -1.09,-0.32 0.87,-2.07 0.85,-4.25 -0.54,-6.19 -1.27,0.35 -0.35,0.17 -1.24,0.78 -0.09,0.05 -0.21,0.15 -0.3,0.21 -0.08,0.06 -0.21,0.15 -0.3,0.21 -3.88,2.69 -0.72,1.85 -2.97,4.78l-1.56 1.76c0.83,0.99 1.04,1.23 2.56,1.82l-5.03 0.84c1.4,-1.91 1.39,-0.3 1.45,-2.44 -0.39,-0.03 -1.67,-0.07 -1.92,-0.12 -0.15,-0.03 -0.31,-0.07 -0.44,-0.1l-0.84 -0.32c-0.08,-0.18 -0.28,-0.11 -0.41,-0.2 0.63,-1.32 0.96,-0.96 2.33,-2.07 -1.2,-0.96 -2.43,-0.96 -2.58,-1.03 1.14,-2.49 0.66,-4.74 -0.74,-6.49 -1.68,0.65 0.14,-0.13 -1.25,1.06 -6.47,5.56 2.02,0.39 -5.88,7.74 -0.94,-1.19 -0.82,-2.41 -1.13,-3.89 -0.86,-4.07 0.16,0.95 -1.35,-2.77 -1.06,-2.63 1,-4.97 -2.85,-5.35 0.06,-0.11 0.19,-0.26 0.22,-0.33 0.04,-0.06 0.17,-0.24 0.2,-0.32 0.65,-1.43 0.26,-0.92 0.01,-1.77l-0.4 -1.15c-1.02,-2.75 -1.88,-0.11 -6.56,2.65l1.05 -4.4 -4.05 -1.24 2.84 -0.43c0.39,-1.76 0.66,-3.64 0.91,-4.41 -0.32,-3.38 -0.25,-0.45 -1.37,-2.45 -1.36,-2.43 0.32,-0.09 0.09,-1.5l-4.24 -0.22c1.2,-2.08 1.25,-0.84 2.24,-2.63l-2.13 -1.03c1.21,-2.39 0.52,-3.95 -0.7,-6.45 -1.86,0.85 -17.06,17.09 -19.29,19.55 -3.67,4.07 -4.1,-0.95 -4.58,-1.99 -1.26,-2.79 -0.79,0.04 -1.76,-2.33 0.9,-1.95 0.26,-1.04 2.04,-2.24l-1.97 -0.86c-0.36,-2.41 -0.7,-3.03 0.79,-4.89l-0.88 -0.02c-0.14,-0.07 -0.33,-0.15 -0.43,-0.2l-1.19 -0.48c-2.28,-0.81 -1.42,0.25 -3.55,0.94 -0.6,-0.94 -0.92,-1.15 -2.07,-1.55 -0.69,1.47 0.15,0.78 -1.55,0.94 -5.26,0.49 0.11,-0.31 -3.79,-1.55 -0.66,-0.21 -0.92,-0.06 -1.89,-0.43 1.07,-2.55 -2.65,-2.4 3.38,-1.4 0.05,0.01 0.18,0.02 0.22,0.03l1.85 -0.13c3.27,0.39 1.5,-0.56 5.17,-0.41 -2.14,-0.24 -1.07,-0.6 -1.46,-1.39 -3.49,-1.48 -0.51,-1.56 -3.59,-1.74 1.69,-3.09 1.62,-1.01 -0.8,-2.7 0.75,-0.46 1.69,-0.65 2.86,-1.22l-0.92 -5.55c-1.52,0.93 -2.17,1.4 -3.53,-0.13 -1.71,-1.92 -0.15,-1.14 1.2,-1.88l-1.29 -2.18c-3.6,0.52 -3.18,2.42 -3.42,1.9 -0.04,-0.09 -0.16,0.2 -0.27,0.28 0.2,-2.75 1.09,-2.86 2.13,-4.65 -0.9,-0.55 -0.66,-0.42 -1.9,0.52l-0.65 -3.17 -0.68 2.1c-0.06,0.32 -0.07,1.32 -0.19,1.9l-1.83 -1.32c0.59,3.14 1.61,1.37 1.73,5.26l-0.71 -0.96c-0.06,-0.11 -0.12,-0.27 -0.17,-0.38 -0.18,-0.45 -0.2,-0.88 -0.29,-1.35 -1.96,0.6 -0.86,0.76 -3.05,0.02 0.31,1.94 0.87,3.78 2.36,4.61 -1.84,1.27 -0.73,-0.33 -1.43,1.02l-0.48 1.83 -3.55 -1.61c-0.38,0.89 0.07,2.68 1.63,3.8l-1.4 1.98c1.05,0.21 1.9,0.17 2.82,0.38 2.72,0.61 1.19,1.49 3.47,1.59 1.98,0.09 -0.07,-0.58 1.09,-0.21 -0.31,2.24 -2.82,1.51 -4.41,0.93 -2.07,-0.75 -3.03,-0.98 -5.46,-1.14l-3.31 1.24 2.49 1.98c0.78,0.39 2.2,0.65 3.13,1.07 0.13,0.05 0.25,0.13 0.37,0.19l0.69 0.4c0.12,0.05 0.24,0.14 0.36,0.18 2.02,0.75 3.01,-1.06 4.77,-0.2 -3.81,3.21 -6.3,-0.18 -10.9,2.58 0.42,1.84 1.36,1.75 2.7,3.1 -0.11,0.08 -0.24,0.2 -0.3,0.26l-0.92 0.77c-0.85,0.58 -0.13,0.55 -1.53,0.73 -2.7,0.36 -1.29,-0.26 -3.16,-1.35 -0.67,1.87 -0.29,0.13 -1.05,2.06 -0.87,2.2 -1.12,4.54 -2.29,6.99 -1.8,3.75 -1.2,8.26 -3.77,8.63 -0.99,-1.49 -0.25,-0.16 -0.64,-1.95 -0.17,-0.81 -0.23,-1.08 -0.37,-2.33l-3.12 0.75c-0.69,1.26 -0.63,2.98 -2.36,3.24 -1.81,0.28 -1.37,-1.97 -1.25,-4.09l3.2 -0.16c-1.45,-2.48 -0.14,-0.59 0.97,-2.62 -2.52,-1.36 -0.95,-1.27 -4.48,-0.9 0.46,-1.66 1.77,-1.71 0.24,-3.24 -1.58,-1.57 -1.47,-0.18 -1.52,-0.17 -2.77,0.74 2.1,0.26 -1.46,0.58 -0.37,-1.63 -0.35,-1.3 -1,-2.59l-1.51 -6.83c-2.51,-0.01 -1.13,0.1 -3.11,0.55 0.82,-2.62 1.62,0.08 0.61,-3.03l-2.21 -5.11c-0.11,-0.08 -0.28,-0.15 -0.36,-0.19 -0.09,-0.05 -0.28,-0.15 -0.37,-0.2l-1.38 -0.64c1.59,-1.31 0.81,-0.12 1.23,-2.53 0.31,-1.84 0.09,-1.35 0.56,-3.16l-2.6 -1.28c0.44,-1.03 1.14,-0.94 0.78,-1.99l-4.79 -0.34c0.49,-1.58 -0.65,0.31 0.53,-0.64 0.33,-0.27 -0.17,0.06 0.56,-0.38 0.09,-0.05 0.23,-0.12 0.33,-0.17 0.88,-0.46 1,-0.5 1.91,-0.85 -0.93,-2.27 0.45,-0.28 -1.98,-1.58 1.25,-3.29 0.15,-2.66 -0.04,-5.91 -2.06,0.86 -2.11,1.76 -4.33,2.12 -0.1,4.86 0.24,2.33 -2.29,4.82 0.16,3.42 1.14,6.8 -2.81,7.42 -2.27,-2.81 -1.41,-8.6 -5.17,-12.36 -1.11,1.25 -2.05,1.76 -2.42,3.9 -0.26,1.48 -0.28,3 -1.21,4.18 -0.81,1.05 0.26,0.06 -1.02,0.85 -0.96,-1.4 -0.49,-3.03 0.22,-4.35l-3.09 0.57c-0.03,-2.17 0.07,-2.28 -1.08,-3.5 -0.08,-0.08 -0.2,-0.18 -0.28,-0.26 -2.06,-2.3 0.64,-0.83 -3.08,-2.46 -0.16,-2.78 -0.92,-5.67 -1.38,-8.29 -0.75,-4.18 0.9,-2.9 0.54,-7.91 -1.29,-0.57 -1.01,-0.27 -2.37,-1.03l-0.16 -9.94 -2.53 -0.58c0.27,-3.23 0.19,-4.15 -1.68,-6.15 -1.5,-1.6 -1.8,-2.24 -1.88,-5.04 -0.35,-11.9 -1.87,-1.49 -2.28,-13.04 -3.91,-2.21 -1.5,-7.12 -3.99,-11.45l-0.6 -0.99c-1.3,-3.15 -0.95,-6.72 -4.77,-8.25 -1.45,0.8 -1.2,0.87 -1.93,2.41 -1.44,3.04 -0.56,0.33 -1.93,2.69 -0.07,0.11 -0.14,0.24 -0.2,0.36 -0.79,1.71 -1.34,3.72 0.22,5.03 -1.96,1.69 -1.19,0.59 -1.71,3.88 -0.44,2.8 -1.38,2.89 -2.25,5.31 -1.01,2.84 -2.18,1.43 -2.34,5.25 -0.18,4.25 -1.19,4.21 -2.18,8.79 -0.94,4.4 -2.84,6.13 -2.87,7.76 0.26,3.18 0.8,0.85 1.02,3.62l-2.42 2.52c-0.08,0.09 -0.2,0.21 -0.27,0.29 -0.27,0.27 -0.58,0.66 -0.64,0.54 -0.06,-0.09 -0.25,0.17 -0.36,0.27 0.41,1.14 0.93,1.15 0.95,2.58 -1.73,1.27 -1.2,-0.14 -2.11,1.69 -0.7,1.41 -0.16,2.07 -0.44,3.88 -0.5,3.19 -2.16,1.76 -1.98,6.17 0,0.03 -0.02,0.16 -0.02,0.19 0.01,0.03 0,0.17 0,0.21l0.23 0.78c2.34,4.75 1.21,4.18 -4.16,5.25 0.27,-3.12 2.14,-6 0.81,-8.87 2.61,-2.06 1.23,-2.29 1.44,-8.79 -1.6,0.52 -1,0.68 -2.45,0.74l0.07 -4.35c-0.14,-0.09 -0.34,-0.19 -0.45,-0.25 -0.1,-0.05 -0.29,-0.17 -0.41,-0.23l-1.26 -0.55c2.59,-2.42 0.85,-1.6 0.85,-5.26 -1.49,0.75 -0.82,0.8 -2.65,1.13 0.37,-2.27 0.79,-1.34 0.92,-3.83l-2.93 -0.83c2.13,-1.65 1.35,0.09 1.97,-2.58l1.02 -3.53c-1.76,-0.81 -1.11,-0.67 -3.42,-0.78 0.94,-2.49 0.72,0.92 0.9,-2.33l-4.15 -0.14c0.77,-1.2 0.16,0.41 0.77,-1.35l0.18 -2.52c0.28,-2.79 1.01,-4.44 -0.95,-6.16 -1.46,0.5 0.26,-0.23 -0.78,0.56 -1.61,1.23 -2.39,1.98 -2.93,3.79 -0.55,1.84 -0.04,0.53 -0.8,1.88 -1.17,2.08 -0.79,-0.16 -0.8,1.95 -0.01,1.93 -0.01,-1.15 0.2,0.83 0.15,1.4 -0.73,2.79 -0.67,4.55 -0.25,0.09 -1.01,0.37 -1.25,0.46 -0.25,0.08 -0.97,0.27 -1,0.28 -1.5,0.54 0.42,-1.11 -0.83,0.47 -1.11,1.41 -0.84,2.53 -1.94,3.7 -2.89,3.05 0.78,2.39 -3.44,6.61 0.16,0.07 0.78,0.27 0.89,0.33 1.24,0.74 0.02,-0.23 1.12,0.95 -1.91,2.05 0.05,2.2 0.22,4.29 -4,-0.53 -5.05,-6.6 -4.55,-10.12 0.43,-3.03 -0.37,-1.75 -1.19,-4.26l-0.87 -3.22c-0.04,-0.15 -0.07,-0.29 -0.1,-0.43l-1.21 -2.71c-1.47,-2.07 -2.06,-6.2 -2.8,-8.71l-1.34 -3.2c-0.98,-2.77 -1.69,-7.43 -4.87,-8.92 -1.52,1.32 -2.79,3.9 -3.9,5.76 -1.74,2.94 -2.62,3.12 0.15,5.35 -0.7,0.61 -1.11,0.87 -2.38,1.17 0.06,2.35 0.22,1.81 -0.4,3.74 -3.05,0.69 -2.52,0.6 -5.54,-0.02l1.19 -0.74c2.76,-1.41 3.69,-0.57 3.63,-4.53l-4.82 0.56 0.83 -2.56c0.02,-0.07 0.17,-0.16 0.27,-1.06l-6.11 -0.17c0.66,-1.69 -1.4,1.3 0.5,-0.53l2.39 -2.63c2.19,-1.11 2.97,-0.61 2.96,-3.53 -3.24,-1.33 -4.58,-1.03 -7.37,-1.22 -1.92,-0.13 -0.21,0.05 -1.45,-0.31 -0.13,-0.04 -0.35,-0.03 -0.44,-0.23 -0.1,-0.2 -0.3,-0.15 -0.44,-0.25 1.8,-2.62 7,-0.04 8.78,-5.17 -1.33,-1.52 -2.82,-0.99 -4.77,-1.56 -0.14,-0.03 -0.27,-0.1 -0.39,-0.14 -0.12,-0.04 -0.25,-0.11 -0.36,-0.15 -1.42,-0.47 1.01,-0.4 -1.66,-0.3 -5.02,0.19 -3.74,-0.69 -7.81,-1.73 2.18,-0.71 4.97,-0.43 7.55,0.28 0.48,-0.61 1.84,-2.18 2.51,-2.61 1.39,-0.91 1.75,0.03 2.56,-2.05 -3.14,-3.13 -6.62,2.19 -9.88,-1.55l0.7 -0.23c0.12,-0.04 0.52,-0.15 0.64,-0.19l0.57 -0.18c0.11,-0.05 0.4,-0.21 0.52,-0.25 2.9,-1.23 3.27,-0.03 6.32,-2.47 0.07,-0.06 0.2,-0.16 0.25,-0.21 1.19,-1 0.01,1.04 0.56,-0.61 -2.71,-1.2 -4.39,-1.26 -6.92,-1.53 -2.75,-0.28 -1.71,0.65 -3.96,0.3 -1.51,-0.23 -0.64,-0.54 -2.98,-1.35 0.67,-1.24 0.09,-1.02 1.58,-1.13 2.37,-0.18 5.26,0.83 7.19,-1.19 -1.44,-1.21 -2.53,-1.21 -3.96,-2.23 -1.29,-0.93 -0.59,-0.03 -0.99,-1.28l-0.67 -1.92c0.17,-0.06 0.76,-0.24 0.87,-0.29 0.78,-0.36 0.78,-0.41 1.24,-0.74 0.05,-3.48 1.93,-5.01 -2.9,-4.67 -1.03,1.58 -0.67,3.41 -2.87,3.82 -2.21,0.42 -1.7,-2.17 -1.49,-4.04 1.77,-1.03 1,-0.03 2.81,-0.56l1.48 -4.28 -3.62 0.08c0.43,-1.04 0.73,-1.33 0.96,-2.75 0,0 -1,-0.58 -1.18,-0.7 -1.12,-0.72 0.38,-0.02 -1.22,-0.82 -0.28,0.71 -0.41,1.46 -0.84,1.98l-2.07 2.29c-0.69,0.53 -0.23,0.14 -1.07,0.56l-0.77 0.31c0.92,1.35 0.85,2.63 2,3.61 -1.33,0.94 -1.21,1.52 -1.94,2.69 -2.55,-0.59 -1.24,-1.16 -3.45,-1.46 0.18,2.8 1.3,3.18 0.54,5.84 0.83,0.13 0.93,0.12 1.65,0.35 0.16,0.05 0.6,0.23 0.74,0.29l2.75 2.23c-2.82,0.03 -1.76,-0.36 -3.56,-0.66 -1.79,-0.29 -0.42,0.33 -2.7,-0.05 -1.75,-0.3 -1.46,-0.88 -3,-0.21l-1.64 0.8c0.43,0.89 0.18,0.42 0.84,1.1 0.1,0.1 0.4,0.4 0.52,0.49l0.59 0.43c1.54,0.92 4.33,2.13 6.14,2.04l2.8 -0.06c0.05,-0.12 0.23,0.07 0.34,0.13 -0.73,0.6 -1.57,1.28 -2.65,1.32 -0.6,0.02 -3.96,-1.6 -7.79,1.26 1.04,2.1 1.37,1.48 3.16,2.59 -0.11,0.07 -0.28,0.12 -0.34,0.16 -0.07,0.03 -0.26,0.12 -0.34,0.17l-1.83 2.16c-1.88,-0.72 -1.99,-0.41 -3.59,0.61 1.2,1.17 0.64,1.12 2.08,1.97 3.25,1.92 3.08,1.19 6.79,4.23l-7.25 1.04c-0.09,-0.15 -0.31,0.07 -0.46,0.12 -0.58,1.54 -0.87,1.8 0.83,3.01 0.86,0.61 1.41,0.43 2.4,0.99 -3.71,2.27 -8.44,-3.37 -9.16,-6.62 -0.23,-1.06 -0.13,-1.47 -0.47,-2.65 -0.69,-2.32 -1.31,-1.39 -2.05,-4.67 -0.41,-1.8 -0.66,-4.3 -1.04,-5.79 -0.66,-2.6 -1,-1.46 -1.65,-3.55l-1.94 -4.68c-0.54,-1.84 -1.14,-3.61 -3.09,-4.3 -1.42,1.57 -1.38,2.84 -2.9,4.53 -2.05,2.28 -2.51,8.25 -3.49,11.36l-0.89 4.43c-0.44,1.89 0.14,0.37 -0.87,1.74 -1.79,2.44 -1.34,4.68 -1.97,7.91l-2.63 -0.29c0.59,-2.12 -0.15,0.23 1.13,-1.82 1,-1.61 0.38,0.2 0.8,-1.76 -2.68,-0.02 -5.26,0.22 -6.96,-1.07l1.61 -0.63c1.18,-0.83 0.82,-1.21 2.25,-1.81 1.03,-0.42 1.08,-0.08 2.24,-0.88 2.28,-1.59 0.73,0.1 1.72,-2.15 -2.13,-1 -3.73,-1.17 -5.36,-2.8 0.78,-1.72 3.07,-3.17 3.22,-5.36 -3.54,-0.45 -11.84,-0.28 -13.37,-3.62l5.84 0.62 5.55 -4.55c-3.45,-2.18 -8.06,1.26 -11.32,-2.13 3.19,-0.02 6.36,-0.17 8.79,-2.1 0.04,-0.03 0.69,-0.6 0.8,-0.71 0.64,-0.58 0.32,-0.24 0.73,-0.74 -3.68,-2.51 -1.45,-0.55 -5.44,-1.08 -1.94,-0.25 -0.37,-0.42 -3.09,-0.17 -1.59,0.15 0.78,0.8 -1.59,0 -1.63,-0.55 -0.11,0.71 -0.92,-0.82 0.88,-1.56 -0.44,-0.1 1,-0.8 0.12,-0.06 0.26,-0.11 0.4,-0.16 0.13,-0.05 0.28,-0.06 0.42,-0.11l4.42 -1.44c0.08,-0.21 0.3,-0.16 0.42,-0.27 -6.09,-3 -3.66,-4.62 -2.5,-7.04 -1.41,-3.66 -0.53,-2.75 -4.29,-4.75l-0.49 -4.21 -1.68 -0.34 0 81.46z"/>
  <path class="fil0" d="M722.79 355.22c-2.35,0.64 0,1.5 -2.75,4.52 -0.64,0.71 -0.37,0.07 -1.12,1.34l2.64 1.62 -2.64 0.7 1.01 3.15c-0.12,0.12 -0.32,0.19 -0.43,0.25 -1.77,0.86 -2.56,0.74 -3.2,1.59 -0.86,1.13 -0.38,2.88 0,4.12 -2.83,-0.31 -2.33,-1.94 -2.94,1.03 -0.64,3.12 0.38,2.38 -2.16,3.9 0.37,1.44 0.66,0.48 1.85,1.55 -1.61,3.09 0.95,1.3 -0.8,5.58 -1.38,3.39 -0.12,2.63 0.09,6.19 -3.56,-0.26 1.05,-0.7 -3.13,-1.02 -0.01,1.48 0.17,2.52 0.95,3.99 0.77,1.47 1.34,1.19 1.85,2.31 -1.01,0.57 1.36,0.67 -1.56,0.36 -1.96,-0.21 -1.99,-1.8 -2.16,-2.08 -0.95,0.95 -0.75,0.57 -1.71,1.03 -1.69,0.89 -1.74,3.22 -1.15,4.62 1.8,4.31 -1.09,1.65 -0.24,5.26 -0.69,2.01 0,0.2 -0.77,1.78 -1.06,2.17 -0.78,0.61 -0.52,3.74l-2.47 0.27c0.25,2.91 0.63,-0.43 0.56,2.94 -0.04,1.79 -0.44,1.7 0.13,3.4l-3.58 -0.1 0.4 3.17c-0.03,1.57 -0.83,1.4 -1.29,3.7 -1.57,-0.35 -1.44,-0.67 -2.8,-0.14 -0.09,0.04 -0.23,0.11 -0.32,0.16l-1.64 1.34c0.75,0.41 1.1,0.39 1.73,0.73 0.1,0.06 0.23,0.13 0.33,0.19l3.01 2.69c-1.36,1.03 -2.22,1.52 -4.46,1.78 -0.16,3.51 -0.19,2.42 -1.23,5.69 -2.5,0.04 -2.61,0.16 -3.68,-0.7 -1.16,-0.94 -1.02,-1.21 -1.28,-2.14 -0.13,-0.47 -0.25,-1.36 -0.44,-2.04 1.07,-0.33 1.54,-0.47 2.6,-0.73 -0.94,-2.46 0.36,-3.61 -1.12,-4.56 -1.08,-0.69 -0.82,-0.01 -2.42,-0.76 -0.95,-0.45 -0.13,-0.54 -1.83,-1.3 0.86,-1.95 0.73,-0.13 0.96,-1.16 0.56,-2.5 0.92,1.53 -0.02,-0.48 -0.56,-1.2 -1.88,-0.72 -2.84,-0.28l-0.63 0.39c0.29,-2.66 0.87,-2.24 1.89,-4.04l-1.45 0.15c-1.44,-0.21 0.26,0.13 -1.51,-0.66 -0.32,1.48 -1.14,2.36 -2.01,3.26 -1.4,1.45 -1.51,0.5 -2.06,1.23 1.14,1.8 -0.51,1.75 1.86,3.2l-0.63 0.42c-1.02,0.95 -0.54,1.18 -1.37,2.67l-2.68 -0.98c-0.16,2.78 -0.86,0.86 0.77,3.11l-1.43 1.17c1.57,1.88 1.67,-0.45 2.64,1.93 0,2.2 -4.4,0.69 -6.03,0.82l-1.83 0.52c-0.08,-0.13 -0.28,0.13 -0.4,0.21 1.06,1.06 0.35,0.39 1.62,1.09 0.41,0.23 1.3,0.62 1.7,0.88 0.29,0.18 2.4,1.52 2.07,2.24 -0.65,1.42 -3.65,1.29 -5.17,2.03 0.57,1.83 0.29,0.59 1.41,1.63 0.09,0.08 0.25,0.22 0.32,0.28l0.65 0.63c-0.79,1.42 -1.88,2.36 -3.57,2.74 -1.65,0.37 -3.55,0.27 -4.8,-0.67 0.82,-1.8 1.05,-1.45 2.57,-2.33l-2.98 -0.61c0.38,-3.91 0.02,-3.26 -0.68,-6.03l-1.83 1.14c-3.27,2 -0.87,2.2 -4.16,5.76 0.27,1.73 0.04,1.13 1.12,2.07 -1.23,0.99 -1.35,1.97 -2.08,3.2 -4.05,-0.97 -4.78,-1.66 -6.15,-5.39l2.6 -0.91c-0.57,-2.46 -0.27,-0.53 -0.32,-2.34l-0.35 -1.19c-0.54,-0.82 -0.31,-0.31 -0.94,-0.83 -2.9,0.35 -0.93,-0.03 -2.97,1.91 -1.36,1.3 -0.97,0.93 -2.71,1.4 -0.67,-1.21 -0.96,-2.09 -0.8,-3.96 2.65,-0.45 0.77,0.46 3.38,-0.16l0.1 -0.54c0.02,-0.05 0.05,-0.22 0.07,-0.28l0.31 -0.87c0.24,-0.76 1.04,0.13 0.2,-1.6 -0.46,-0.93 0.48,-1.21 -2.01,-0.78 -0.44,0.08 -1.5,0.81 -1.71,0.94 0.25,-1.84 0.33,-1.81 1.52,-3l-4.4 0.8c-0.09,0.08 -0.19,0.19 -0.28,0.26l-2.8 1.46c0.92,2.61 0.47,3.07 0.22,6.21 -2.29,-0.3 -1.38,-0.78 -3.36,-0.92 0.04,1.38 0.08,1.53 0.34,2.6l0.72 5.33c-2.17,-0.11 -3.64,-0.28 -4.4,-2.54 -0.48,-1.42 -0.31,-2.81 -1.05,-4.73 -2.1,0.05 -0.92,0.1 -2.33,0.98 -1.3,0.82 -1.26,0.33 -1.86,1.75 -1.03,2.43 0.71,2.72 -2.49,4.23l0.02 6.76c-2.33,1.09 -3.49,2.33 -2.59,4.78l-5.34 0.84c0.54,-3.28 0.06,-0.07 1.77,-2.56l-2.06 -1.04c1,-2.29 0.48,-3.48 -0.13,-5.7l-2.19 0.87c-3.98,1.78 -0.04,2.98 -3.47,4.62 -2.31,-1.3 -1.05,-1.49 -1.8,-4.15l-3.36 -12.32c-0.07,-0.03 -1.32,-0.64 -1.55,-0.77 -3.23,2.27 -1.72,4.08 -4.13,9.09 -0.7,1.46 -1.48,3.81 -4.15,2.81 -3.45,-1.3 -0.01,-2.77 1.17,-3.57 -4.43,-0.49 -4.47,-3.96 -4.21,-7.07 0,-0.1 0.02,-0.25 0.02,-0.34l-0.83 -3.87c-3.73,-0.02 -2.18,-0.51 -3.73,2.04 -0.81,1.33 -1.06,1.92 -2.74,2.08 -0.25,-0.54 -0.69,-3.66 -0.66,-3.8 0.39,-1.61 1.91,-0.97 3.77,-1.11 -0.96,-3.59 -0.11,-0.52 0.08,-4.23 -4.51,0.09 -0.75,0.26 -3.47,1.41 0,-0.59 0.04,-1.28 -0.1,-1.85 -0.38,-1.62 0.12,-0.35 -0.66,-1.44l-1.75 0.86c-1.49,0.75 1.29,0.22 -2.17,0.95l-0.83 -3.14c-1.17,-0.17 -0.36,0.05 -1.31,0.85 -1.13,0.96 -0.68,0.21 -1.52,1.31 -0.58,2.63 -0.09,3.83 -3.07,5.29 0.44,1.52 0.66,0.89 0.39,2.17 -0.02,0.13 -0.18,0.53 -0.22,0.69 -0.64,2.7 0.47,1.88 -1.1,3.62 -0.89,0.99 -1.94,0.84 -2.27,2.46 -0.33,1.66 0.37,1.27 0.93,2.86 -0.73,0.13 -2.27,0.27 -2.36,0.28 -1.21,0.27 -0.35,-0.81 -1.27,0.84 -1.24,2.2 0.19,1.77 1.06,3.6 -4.74,-1.19 1.68,0.77 -7.75,0.49 -2.17,-0.07 -6.14,-0.29 -6.29,-2.6l6 0.03c0.13,0 0.28,0.01 0.4,-0.01l0.73 -0.13c0.1,-0.03 0.24,-0.09 0.34,-0.13 1.32,-0.54 4.47,-2.42 4.98,-3.77 -4.15,-0.35 -9.6,1.06 -11.37,-2.09 1.66,0.03 1.95,0.01 3.47,-0.19 1.38,-0.18 1.82,-0.06 2.61,-0.21l3.31 -2.23c0.44,-0.56 0.25,-0.02 0.68,-1.12 -1.29,-0.16 -3.61,-0.2 -4.23,-0.33 -1.44,-0.3 -1.2,-1.11 -3.06,-0.89 -1.06,0.13 -1.99,0.97 -3.31,0.31 -0.01,-0.01 -2.04,-1.71 -2.37,-1.94l3.72 -0.71c0.73,0.14 0.74,1.31 3.4,0.31 1.07,-0.4 0.7,-0.28 1.34,-0.79l-0.67 -0.64c-4.68,-3.72 -2.62,-0.93 -3.81,-4.48 -0.42,-1.25 -1.24,-0.5 1.97,-2.11 -0.33,-1.16 -0.6,-3.75 -0.55,-5.45 -2.17,0.58 -0.64,1.66 -3.64,0 -0.96,-0.54 -1.99,-1.46 -3.59,-1.58 -0.9,-2.26 0.75,-3.52 1.65,-4.86 -0.9,-0.63 0.54,-0.33 -0.87,-0.3 -0.11,0.01 -1.08,0.44 -1.07,0.46l-0.55 -2.85 -0.75 3.65c-2.25,-0.75 -1.14,-0.83 -2.02,-0.44 1.05,1.83 1.75,1.97 1.68,4.66 -1.02,-1.17 -0.73,-0.67 -1.06,-2.73 -1.87,0.1 -0.55,-0.13 -0.76,0.72 -0.99,1.84 -0.79,0 -0.56,2.52 2.84,0.23 2.84,-0.65 3.31,3.93 -1.55,-0.6 -1.67,0.87 -1.98,-2.1l-1.2 1.25c-0.82,1.02 1,0.45 -1.05,0.95 -1.36,0.33 -2.29,-0.61 -3.91,-0.96 1.08,2.25 1.36,2.84 0.87,5.24 2.56,0.2 2.25,0.59 4.02,1.17 2.75,0.91 -0.4,-0.33 1.57,0.18 1.51,0.38 -0.63,-0.53 1.07,0.49 2.05,1.22 -0.01,-0.7 0.69,0.7 -1.33,1.51 0.54,0.59 -2.06,0.92 -4.18,0.53 -7.57,-3.06 -11.68,-0.41 1.91,1.78 4.11,2.03 5.29,4.13l-2.54 1.17c-0.88,0.24 -1.31,0.21 -2.15,0.38 -0.08,1.96 0.27,1.69 2.12,2.73l-0.58 1.57c-0.06,0.17 -0.1,0.31 -0.15,0.47 -0.2,0.69 -0.2,0.48 -0.27,1.3 -1.24,-0.34 -2.48,-0.13 -4.33,0.46 2.97,1.99 6.44,3.02 7.31,4.12 3.37,4.23 -3.76,1.53 -5.42,3.14 -0.45,0.79 -1.24,-1.23 -0.16,1.75 0.45,1.23 2.13,1.81 3.43,2.55 -1.58,0.86 -3.62,-0.03 -5.52,-0.32 -0.65,-3.3 0.81,-3.39 -2.12,-5.09 -0.88,-0.43 -1.52,-0.04 -2.61,-0.26 -0.1,-0.02 -0.24,-0.08 -0.33,-0.1l-1.05 -0.32c-2.04,-0.26 -3.37,0.85 -3.88,2.61 -0.81,2.76 -2.32,2.21 -1.73,5.2l0.27 0.99c-3.14,0.45 -2.02,0.07 -4.51,-0.58 0.16,-1.81 2.06,-3.43 1.97,-5.26 -0.11,-2.12 -2.38,-1.59 -4.71,-1.76 -0.56,-1.03 -1.18,-1.92 -1.52,-3.38 1.9,-1.14 2.87,-1.22 3.54,-3.31 -5.08,-2.21 -5.34,1.81 -10.38,-2.23l5.06 -0.61c1.8,-0.19 2.64,-0.51 5.81,-2.95 -3.24,0.11 0.56,-1.13 -3.24,-0.61 -2.83,0.39 -1,0.15 -3.49,-0.65 -2.48,-0.8 -1.48,1.07 -3.97,0.16l-3.14 -1.68c0.88,-2.23 5.4,0.24 9.26,-1.37 -0.68,-1.21 -1.36,-1.5 -2.41,-2.18 -1.73,-1.14 -2.67,-2.23 -3.28,-4.27l2.55 -0.77c-0.07,-0.2 -0.51,-1.04 -0.54,-1.17 -0.36,-1.21 -0.15,0.3 -0.09,-0.85 0.09,-1.56 1.38,1.24 0.16,-1.98 -5.66,-1.94 -2.11,2.11 -6.84,3.57l-0.52 -4.41c1.16,-0.59 1.5,-0.27 3.25,-0.3 -0.77,-4.74 0.27,0.82 0.31,-3.94 -3.62,-0.23 -1.65,0.13 -3.59,1.05 0.16,-2.38 0.79,-2.66 1.88,-4.05 -0.26,-0.13 -2.06,0.17 -2.33,-1.69 -0.03,-0.2 -0.08,-0.28 -0.14,-0.4 -0.08,0.11 -0.15,0.28 -0.18,0.36l-0.43 2.64c-1.84,-0.46 -1.1,-0.83 -1.82,-0.39 0.81,2.27 2.37,3.09 1.39,5.06 -0.65,-0.65 -0.2,-0.13 -0.86,-1.15l-0.65 -1.09c-0.04,-0.21 -0.13,-0.26 -0.22,-0.39 -1.42,2.22 -1.45,2.12 0.18,4.29 -0.13,0.07 -0.34,0.13 -0.43,0.17l-1.11 0.62c-0.64,1.83 0.24,-1.31 0.13,0.53 -0.12,1.99 1.23,-1.82 -0.04,0.48 -0.83,1.52 -1.55,0.31 -3.81,0.11l0.34 3.58c-0.01,0.12 -0.06,0.45 -0.06,0.53 -0.08,1.02 -0.82,-0.41 0,0.52 0.8,0.77 2.82,1.03 3.69,1.5l3.29 1.26c-2.94,1.65 -5.01,-0.39 -6.57,-0.52 -4.17,-0.34 -6.21,0.43 -7.19,-2.9 -0.59,-2.03 -0.54,-0.4 -0.15,-2.72 -0.77,1.25 -2.01,1.75 -3.58,2 0.35,-1.99 0.66,-1.94 0.9,-3.36 0.02,-0.13 0.03,-0.26 0.04,-0.39l-0.58 -4.17c-0.13,-0.82 -0.29,0.15 -0.1,-1.38 0.21,-1.7 -0.47,-0.52 0.63,-1.39 1.22,-0.18 0.67,0.58 0.97,-0.67 -1.28,-1.07 -1.06,-0.94 -2.9,-1.05 1.25,-3.21 0.43,-0.56 0.49,-3.61 0.03,-1.61 0.87,-2.32 0.05,-3.65 -1.8,-2.93 -1.96,1.09 -2.9,-2.16 -0.49,-1.73 0.9,-1.61 0.52,-3.35 -0.38,-1.72 0.25,-0.07 -1.05,-1.34 -0.66,-0.64 -0.84,-0.74 -1.28,-1.37 -3.59,-4.97 -1.18,-10.68 -1.41,-11.37 -1.2,-1.44 -2.12,-1.17 -2.56,-3.25 -0.54,-2.53 0.3,0.34 -0.16,-2.06 -1.18,-6.05 -1.17,-2.98 -2.2,-5.93 -0.62,-1.76 -1.25,-7.64 -3.42,-10.98l-3.86 -9.88c-1.59,-1.11 -0.18,-1.27 -2.37,-1.86 -0.85,0.98 -0.89,1.05 -1.36,2.06 -2.56,5.59 -1.03,1.6 -3,4.28 -1.57,2.13 0.47,1.13 -1.18,1.79 -0.07,1.17 -0.41,2.53 -0.35,3.12l0.78 1.86c0.04,-0.09 0.18,0.28 0.24,0.44 -2.46,1.53 -0.99,0.51 -1.8,3.99 -0.42,1.83 -0.21,-0.29 -0.32,1.44 -0.11,1.81 0.43,0.37 -0.38,1.94 -0.8,1.55 -0.7,1.61 -0.62,3.74 -2.78,1.26 -2.52,1.42 -2.76,3.18l-0.42 4.66c-0.36,1.7 -1.51,1.91 -1.82,2.41 -0.73,1.22 0.39,2.22 -1.39,6.8 -0.4,1.03 -0.23,1.03 -0.54,2.06 -0.96,3.18 -1.72,1.59 -3.56,2.59l1.31 3.21c0.05,0.1 0.14,0.22 0.19,0.32 0.76,1.37 0.63,-0.16 0.86,1.63 -0.67,0.83 -0.94,0.83 -1.28,1.18 -2.15,2.26 -0.48,2.68 -3.79,2.95 0.22,-0.98 0.76,-4.12 0.44,-4.68 -0.51,-0.91 -0.02,0.14 -0.5,-0.34 -0.57,-0.57 0.09,0.54 -0.58,-0.7 -0.06,-0.12 -0.49,-1.73 -0.49,-1.73 -0.83,-4.18 -0.3,-0.89 -1.4,-2.38 -1.31,-1.77 1.94,-0.33 -1.96,-2.42 4.37,-0.85 0.37,-4.72 0.37,-4.72 -0.05,-0.07 -0.14,-0.19 -0.17,-0.25 -0.75,-1.22 -0.59,-2.97 -1.39,-4.46 -1.6,0.79 -2.4,1.67 -2.82,4.3 -0.39,2.42 -0.41,1.96 -1.86,4.44 -0.05,0.1 -0.13,0.24 -0.19,0.34 -1.59,2.61 -0.7,-1.12 -1.17,2.83 -0.87,7.24 -2.46,5.04 -0.72,6.68l-1.55 0.51c0.49,1.85 0.36,1.52 1.58,2.59 -0.59,0.39 0.62,0.77 -1.58,0.24 -0.05,-0.01 0.51,-0.25 -0.98,-0.6 -2.13,2.2 -0.48,2.2 -1.23,5.43 -3.4,-0.78 -3.03,-0.51 -2.9,-3.73l0.22 -4.74c-0.57,-2.51 -2.7,-5.77 -2.93,-6.34 -1.03,-2.56 0.58,-3.07 -0.47,-4.66l-1.14 -0.86c-0.88,-0.33 -0.99,-0.21 -1.86,-0.24 0.85,-0.72 0.56,-0.21 1.14,-0.86 1.75,-1.97 -1.78,0.25 0.1,-1.51l-0.63 -2.28c-0.24,-0.07 -0.09,-1.07 -1.56,0.57l-3.79 7.11c-0.04,0.07 -0.12,0.21 -0.16,0.28l-0.25 0.84c-0.02,0.06 -0.05,0.21 -0.08,0.27 -0.5,0.98 -1.78,1.05 -2.02,1.1 -0.06,0.02 -0.28,0.18 -0.33,0.08 -0.04,-0.1 -0.23,0.03 -0.33,0.08 0.85,1.96 0.86,4.25 0.88,6.45 -1.78,0.17 -2.35,-0.7 -3.85,-1.26l-0.06 2.07c0.21,1.99 -0.33,-0.59 1.3,2.04 -2.22,3.06 -0.27,-0.1 -0.71,4.21 -1.64,-0.34 -1.46,-0.53 -2.75,-0.8 -1.54,1.42 0.65,0.84 -2.41,1.24 0.12,0.05 0.31,0.07 0.4,0.1l2.07 0.59c0.06,0.02 0.2,0.05 0.26,0.07l2.7 4.03 1.27 -1.33c1.16,1.95 2.45,4.55 0.42,6.15 0.71,0.66 2.01,0.85 2.32,0.59 0.21,1.14 0.14,0.52 -0.13,1.28 -0.04,0.1 -0.11,0.25 -0.15,0.34 -0.04,0.1 -0.13,0.26 -0.18,0.36l2.58 1.57c-0.13,3.16 -0.8,0.73 2.02,3.3 -0.44,1.95 -1.27,2.18 -0.88,5.13 0.42,3.27 0.6,1.51 0.08,5.32 2.27,-0.93 0.99,-1.3 3.04,-1.56 -0.3,2.52 0.12,3.4 -0.81,5.57 2.21,0.96 -2.22,-0.64 0.73,0.13 0.72,0.18 0.74,0.1 1.17,0.39l-0.25 3.62c0.19,0.1 0.41,0.05 0.49,0.26 0.39,0.99 0.79,0.3 1.87,0.77 -0.12,1.93 -0.04,3.34 -0.07,5.19l-0.25 3.48c-0.11,2.88 -1.92,6.02 -2.28,9.55 1.84,-0.03 2.88,-0.4 4.2,-0.64 -0.07,1.72 -0.52,3.06 1.06,3.55 1.03,-1.62 0.53,-4.63 1.15,-6.48 0.84,-2.51 1.54,-1.91 1.86,-5.96 2.69,-0.31 2.61,-0.91 3.84,-1.07 1.04,2.64 0.38,4.29 1.53,6.24 0.62,1.07 0.16,-0.51 0.54,0.81 0.25,0.85 0.15,0.02 0.02,1.07l-0.37 1.47c2.44,0.23 2.04,-0.3 2.9,1.17 0.07,0.13 0.22,0.57 0.29,0.71l0.35 0.73c0.34,0.58 0.73,0.93 1.09,1.36 -1.37,1.31 -0.52,-0.38 -0.94,2.04 -0.15,0.83 -0.14,2.13 -0.27,3.13l0.62 0.3c0.73,0.69 0.61,-0.46 0.52,3.65 1,-0.34 1.43,-0.61 2.1,-0.33 0.03,3.13 0.96,6.04 1.09,10.54 2.04,-0.38 1.53,-0.57 3.13,-1.06 -0.3,2.28 -0.77,0.29 -1.01,3.42 -0.17,2.18 0.45,2.48 0.32,4.48 -0.06,0.92 -0.66,3.26 -0.21,4.77 0.54,1.81 1.52,1.72 1.35,3.91l2.58 0.06c-0.44,2.14 -0.72,0.73 0.63,2.29 -0.81,0.45 -1.16,0.24 -1.47,0.79 -0.26,0.46 -0.38,0.72 0.45,1.35 0.18,0.14 -0.51,1.12 1.96,0.37 3.66,-1.11 2.55,-11.53 3.85,-14.42 2.08,-4.63 1.21,-2.2 3.32,-4.86 0.75,-0.95 0.57,-1.35 1.09,-2.08 1.59,-2.25 1.31,0.51 3.07,-2.64l0.1 -0.74c-0.06,-1.85 -0.26,-4.05 -1.49,-5.15 2.04,-1.73 1.99,-1.79 2.41,-5.17l2.57 -0.35c-0.26,-4.72 0.13,-2.9 2.12,-5.06 1.42,-1.54 0.99,-3.43 1.15,-5.68 0.16,-2.35 1.25,-1.09 2.17,-4.37 0.7,-2.5 1.5,-2.79 4.3,-3.29 0.32,1.54 0.18,3.99 0.86,5.41 1.19,2.49 -1.63,-2.38 0.42,0.63 2.6,3.82 -0.96,-3.03 0.77,0.97 -1.95,0.92 -1.7,0.98 -3.1,2.29l4.15 0.13 -0.11 2.28 2.25 0.84c-0.08,3.82 0.43,4.48 -1.8,6.18 2.51,0.8 1.82,1.32 1.74,4.16 1.23,0.62 0.75,0 2.14,0.73 0.65,0.35 0.7,0.73 1.62,1.15 1.85,-3.27 0.71,-5.46 3.57,-7.05 -0.79,-2.16 -1.29,0.87 -0.97,-3.07 0.13,-1.65 0.77,-2.08 1.77,-3.12 1.29,-1.35 0.88,-0.11 1.28,-1.79 0.57,-2.41 0.07,-1.76 1.24,-3.42 3.03,0.75 2.81,3.96 4.25,6.16 1,1.54 0.22,0.15 0.87,1.69l0.79 1.78c0.91,1.97 0.63,2.28 1.12,4.6 0.64,3.05 1.82,4.81 2.73,7.65 1.52,4.7 -0.91,4.52 3.14,7.6 -0.05,7.05 -1.1,7.91 3.1,11.88l-0.17 4.14c1.38,0.76 3.05,1.7 4.55,0.82 1.96,-1.15 -0.17,-0.54 -0.29,-4.44 2.03,0.48 1.02,0.72 3.2,0.86 0.47,-0.75 0.15,-0.19 0.66,-1.24 0.04,-0.08 0.13,-0.22 0.16,-0.3 0.04,-0.08 0.12,-0.22 0.14,-0.31 0.4,-1.14 -0.26,-2.57 -0.62,-4.36 1.78,-0.97 1.15,-1.07 2.2,-1.93l3.35 -1.13c-0.3,2.52 -1.38,2.34 -0.72,4.01 3.33,-0.84 -1.1,-1.9 3.67,-1.86l-0.78 2.95c-0.77,1 -1.46,0.88 -2.77,1.39l0.04 4.29c3.4,0.13 2.42,-2.04 4.62,-3.38 2.19,-1.33 2.29,0.17 5.19,-1.57 -0.79,-1.99 -1.58,-1.5 0.07,-5.29 0.42,-0.96 -0.02,-0.24 0.56,-1.12l2.46 -3.76 1.73 0.35c0.15,0.06 0.3,0.1 0.45,0.18 2.03,1.02 0.96,1.77 3.66,2.25l2.23 0.63 -2.11 -2.54c0.6,-1.06 0.19,-0.25 0.61,-1.02 0.31,-0.56 0.4,-0.81 0.71,-1.39 0.96,-1.75 0.55,-1 1.84,-2.24 -0.66,-1.63 -0.45,-1.32 -0.9,-3.16l-0.57 -1.55c-1.58,-2.72 0.1,1.11 -0.84,-0.97 2.2,-1.62 1.13,-1.85 2.56,-3.93 0.45,-0.66 1.17,-1.4 1.2,-1.44 2.39,-3.49 -0.88,-3.01 3.83,-5.39l0.35 -6.51 2.39 -1.61c-0.03,-1.98 -0.27,-1.73 -0.38,-3.34l2.71 -1.44c1.2,-0.72 0.11,-0.73 1.9,-0.86 1.45,2.14 0.64,1.36 1.31,4.05 1.02,4.08 0.67,0.28 2.05,3.77 -0.92,-0.02 -0.02,-0.22 -0.93,0.23 -1.42,0.72 -0.73,0.35 -1.49,0.97 0.95,0.79 1.71,0.75 2.68,1.78l2.19 2.35c-0.25,1.35 -0.29,1.44 -0.51,3.15 -0.36,2.77 0.57,1.75 -1.15,2.4 0.1,0.11 0.31,0.07 0.36,0.27 0.35,1.18 1.76,0.03 1.67,3.7 1.34,-0.27 1.7,-0.68 2.59,-0.22 -0.91,1.72 -0.28,2.48 0.18,4.55 0.31,1.39 0.32,3.87 0.33,6.04 2.49,-0.52 1.28,-0.79 3.04,-1 -0.05,1.14 -0.81,9.2 -0.99,9.76 5.96,-1.09 3.17,-5.05 6.86,-7.01 -0.47,-3.1 -0.64,-2.42 0.11,-5.11 -0.08,-0.04 -0.24,-0.15 -0.27,-0.07 -0.03,0.09 -0.23,-0.06 -0.28,-0.07l-1.46 -0.37c2.18,-3.24 1.63,0.77 2.41,-5.27l2.59 -1.45 -0.13 -2.74c1.78,-0.92 1.33,-1.24 3.74,-2.01 -0.54,-6.59 1.28,-7.28 1.66,-8.05 0.42,-0.83 0.46,-2.39 0.82,-3.4 2.34,-0.78 4.49,-2.51 4.46,1.68 -0.02,1.59 0.5,4.46 -1.02,6.04l3.97 0.3c-0.09,1.32 -0.23,1.27 -0.51,2.35l2.89 0.51c-0.22,2.5 -1.29,1.61 -0.97,4.77 0.33,3.18 1.01,0.38 1.01,4.68l1.04 0.33c0.88,0.22 -0.35,-0.57 0.99,0.19l0.63 3.68c0.95,2.27 0.3,3.34 0.35,6.43 2.4,-0.32 1.79,-1.48 3.48,-0.81 -0.4,1.34 -0.88,0.58 -1.3,2.61 -0.15,0.72 -0.16,1.28 -0.04,2l0.49 1.44c0.05,0.13 0.13,0.3 0.21,0.45 3.18,-1.08 0.57,-4.3 4.65,-5.43 0.84,1.55 0.08,1.5 1.04,3.13 1.38,-0.5 2.1,-3.08 3.16,-5.66 0.56,-1.36 0.33,-1.06 0.54,-2.61 0.82,-6.24 1.69,-0.8 3.26,-9.03l1.97 -6.78c-0.18,-4.41 -0.49,-3.59 2.2,-6.73 1.08,-1.26 1.21,-2.88 1.97,-4.18 3.06,0.4 3.97,5.03 4.67,8.04l5.62 18.54c0.58,2.34 1.07,1.26 2.49,3.17 -0.01,3.35 -0.35,6.4 0.72,9.11 0.43,1.08 1.22,1.63 1.85,2.77 1.09,1.97 0.36,2.26 0.96,4.18 2.36,-0.89 1.6,-2.4 3.36,-4.45 1.11,-1.3 0.76,-0.44 1.56,-2.02 1.03,-2.05 -0.2,-1.2 1.83,-2.46 2.03,0.85 1.96,1.74 2.87,3.96l2.48 6.33c1.58,3.18 2.94,5.11 7.31,3.25 -0.51,-2.28 -0.42,-0.81 -2.33,-2.07l-0.5 -4.22c1.83,-0.88 1.04,-0.41 2.93,-0.05 0.46,-2.37 1.22,-3.86 0.05,-6.06l2.53 -1.55c0.13,-3.49 0.66,-3.04 0.22,-6.38 -0.34,-2.58 0.56,-3.74 2,-5.11 1.9,0.8 0.7,2.07 4.14,2.06 0.73,-0.93 0.46,-0.63 1.29,-1.42 -2.29,-1.32 -1.46,0.55 -3.28,-2.71 -1.63,-2.93 -0.08,-3.89 1.24,-6.43 0.84,-1.64 1.33,-3.56 1.09,-5.37 -0.53,-4.17 0.26,0.38 -1.05,-2.54 0.91,-1.65 -0.66,1.17 1.11,-1.11 1.05,-1.36 1.14,-3.62 3.13,-4.69 0.11,-0.07 0.3,-0.15 0.4,-0.2 0.1,-0.05 0.29,-0.11 0.42,-0.2 -0.21,-4.39 0.77,-3.55 3.68,-5.16 -0.39,-1.85 0.16,-3.32 0.29,-4.25 0.01,-0.09 0.01,-0.24 0.02,-0.33 0.01,-0.14 -0.05,-0.92 -0.02,-1.11 0.33,-2.48 1,-1.66 1.34,-3.71 0.16,-1 0.6,-2.03 1.8,-2.82 0.09,-0.06 0.22,-0.14 0.31,-0.2l1.66 -0.9c1.29,2.35 0.81,5.61 1.55,6.75 0.21,0.33 0.29,-0.21 0.74,1.06 -1.5,0.37 -1.98,1.02 -3.18,1.67 1.22,0.55 3.2,0.51 5.02,0.74l0.13 0.85c0.36,1.59 1.45,1.51 1.66,2.76 -0.31,3.61 0.45,3.79 -2.13,5.29 2.22,0.83 1.79,1.48 2.36,4.01l2.2 0.52c0.21,1.38 0.34,1.32 0.74,2.58l-0.65 0.62c-0.08,0.08 -0.48,0.44 -0.58,0.54 -1.13,1.09 -0.3,-0.5 -0.85,0.91l2.83 -0.12c-0.29,1.63 -0.76,3.37 -0.02,5.09 2.37,-0.58 2,-4.79 3.27,-6.43 0.85,-1.11 1.02,-0.72 1.44,-1.21 -0.52,-1.2 -0.4,-4.38 -0.32,-6.11l3.63 -4.45c0.06,-0.1 0.15,-0.26 0.24,-0.38 0.58,0.48 0.35,0.17 0.93,0.79 0.6,0.65 0.5,0.53 0.9,1.22 2,3.45 2.42,5.84 3.25,7.53 4.08,-0.01 3.82,-5.36 6.67,-7.42 3.41,2.33 2.3,2.26 6.97,2.3 0.28,-5.62 -1.2,-1.64 -1.41,-5.79 1.37,-0.53 3.76,-0.72 5.2,-1.26 -0.89,-1.31 -1.28,-1.44 -2.74,-2.06 -0.88,-0.37 -2.07,-0.9 -2.64,-1.85 1.62,-3.33 5.18,0.28 8.46,-2.07l-2.69 -1.03c0.77,-3.85 -0.74,-0.98 -0.54,-5.49 1.81,0.01 2.35,0.52 3.7,1.02 -0.14,-2.88 0.39,-4.16 -0.72,-6.38l1.87 -0.8c2.44,-1.3 0.57,-0.24 1.06,-1.37 0.43,-0.96 -0.04,-0.26 0.86,-1.25 0.58,-0.64 0.95,-1.15 1.36,-1.68l2.49 2c-0.87,1.33 -1.52,1.82 -1.93,3.59 3.01,-0.94 -0.37,-1.8 4.51,-1.36 -0.11,1.85 -0.6,2.16 -1.27,3.65 -0.18,0.4 1.16,0.59 -1.86,1.16 -0.76,0.15 -0.39,-0.12 -0.98,0.19 -0.01,0.67 -0.09,1.38 0.02,2.05l0.38 1.23c0.03,0.09 0.11,0.25 0.18,0.36 2.39,-0.36 1.42,-0.5 2.48,-2.21 1.46,-2.35 0.39,-0.84 2.85,-1.77 4.58,-1.75 1.61,-2.91 4.87,-4.94 -0.55,-7.36 -0.63,-3.32 -1.69,-6.08 2.32,-1.79 1.29,-0.17 1.95,-3.05 0.68,-3.06 0.25,-1.97 2.72,-2.74 0.07,-3.23 0.15,-4.44 2.75,-5.15 -0.03,-1.28 -0.13,-3.82 0,-5.02 0.15,-1.34 -0.06,-0.58 0.39,-1.44 0.64,-1.25 1.31,-0.99 2.12,-2.43 1.79,-3.2 0.1,-1.39 3.26,-4.29 0.51,0.17 1.39,0.39 1.83,0.55 -1.41,-2.95 -1.27,-0.91 -0.41,-3.98l-1.89 -0.87c0.92,-1.91 0.91,-2.27 0.96,-5.15 -1.61,0.48 -1.67,0.55 -3.8,0.7 -0.02,-4.39 2.17,-6.01 2.4,-9.63 0.09,-1.33 -0.04,-3.25 -0.2,-5.1 -0.24,-2.74 0.53,-2.53 0.87,-4.81 -0.96,0.99 -1.55,1.22 -3.07,1.51 0.14,-7.76 -0.14,-4.4 -0.8,-5.76 -0.36,-0.76 -0.11,-0.05 -0.24,-0.85 -0.01,-0.06 -0.07,-1.05 -0.08,-1.14 -0.12,-1.32 -0.28,-1.21 -0.19,-2.88 -2.09,0.82 -0.39,0.64 -2.8,1.23 0.42,-1.61 1.08,-2.04 0.99,-3.22 -0.16,-1.96 0.03,-0.5 -0.91,-1.66l-0.73 -0.7c0.77,-0.73 0.23,-0.03 0.6,-1.38 0.14,-0.53 0.09,-0.72 0.26,-1.36 0.62,-2.41 0.04,-0.1 0.92,-2.09 -3.47,-2.33 -1.53,-0.54 -2.56,-2.84 -0.71,-1.57 -1.82,-0.49 -0.96,-3.5 -0.9,-0.39 -0.39,-0.44 -1.55,-0.37 -1.53,0.09 -0.45,-0.54 -1.34,0.63 -0.01,-3.74 1.34,-0.11 0.62,-6.87 -2.66,0.96 1.35,1.12 -3.38,1.51z"/>
  <path class="fil0" d="M740.14 414.35c0.27,6.02 -0.97,3.75 1.68,5.45 -0.88,2.22 -0.82,0.4 -1.53,2.59 1.42,0.91 1.38,0.55 3.38,0.74 0.17,2.8 0.57,1.68 1.12,3.6l0.19 1.33c0.01,3.97 -1.49,0.14 0.13,5.04l-0.16 3.24c1.29,0.69 0.16,-0.06 1.9,0.4 0.07,0.02 0.24,0.05 0.35,0.11l0.99 3.98c0.76,1.39 0.28,-1.15 0.77,1.72 0.09,0.56 0.03,2.31 0.08,3.08l2.04 0.06c-0.02,2.73 -1.17,2.55 0.61,3.92 1.72,-2 0.79,-3.94 2.72,-5.9 0.07,-0.07 0.18,-0.18 0.25,-0.25 1.65,-1.65 -0.7,-0.49 1.68,-1.51l2.77 7.87c0.06,2.38 0.05,1.53 -0.98,2.53 1.71,0.85 1.04,1.81 1.82,3.34l4.01 -2.93c-0.99,-2.17 1.35,2.09 -0.7,-0.76 -1.56,-2.16 -0.05,-0.79 -0.49,-3.48l2.61 0.43c-0.54,-1.79 -0.54,-2.18 -0.34,-4.31 0.6,-6.36 2.56,0.21 3.08,-11.54 1.69,-0.9 2.91,-1.79 3.87,-3.34 0.74,-1.2 0.79,-0.84 0.41,-2.26l-0.72 -3.05 3.49 -6.78c0.8,-6.06 0.72,-1.67 2.02,-9 0.44,-2.54 1.5,-2.75 2.3,-4.96 0.57,-1.59 0.25,-0.89 0.85,-2.23l0.92 -4.31c0.57,-2.58 0.72,-1.96 0.54,-4.37 -0.18,-2.32 0.71,-3.34 2.11,-4.83 1.08,-1.14 0.92,-0.69 1.59,-2 1.01,-1.97 -0.47,-0.74 1.32,-2.21 2.65,0.54 2.46,3.5 3.81,5.38 1.78,2.49 1.85,6.11 3.63,8.7 2.14,-2.03 1.02,-6.93 2.03,-9.93 2.15,0.33 1.36,2.3 4.32,1.22 1.34,-3.45 -1.08,-1.14 0.79,-4.98l-0.65 -0.52c-1.54,-1.81 0.91,-2.62 -1.3,-4.44 -1,-0.82 -0.54,-0.38 -1.87,-0.72 0.96,-2.98 2.11,0.97 0.94,-4.17 -0.92,-4.02 -0.51,-3.15 0.43,-6.58 0.78,-2.81 0.4,-7.87 0.47,-8.15 0.03,-0.11 0.12,-0.29 0.15,-0.38 0.65,-2.03 4.36,0.31 5.85,0.48 0.5,-0.73 1.02,-1.43 1.39,-2.22 -2.63,-1.12 -2.72,0.55 -3.15,-3.26l2.62 -1.03c-0.11,-1.8 -0.74,-1.77 -2.05,-2.59 0.75,-1.4 0.6,-1.62 1.13,-2.78 1.06,-2.31 0.65,0.03 1.09,-2.43 0.61,-3.44 -0.72,-2.21 1.98,-5.11 -0.36,-2.26 -0.61,-0.75 -1.16,-3.44 1.18,0.38 2.45,0.67 4.17,0.69 -0.24,-0.74 -0.07,-0.32 -0.45,-0.82l-1 -1.09c1.91,-1.28 0.88,0.01 1.5,-1.45 -1.28,-0.7 -1.89,-0.15 -1.25,-2.44 0.32,-1.13 1.22,-1.48 2.06,-2.17 1.84,-1.51 0.42,-0.15 0.89,-2.21 0.62,-2.72 -0.22,-0.67 1.82,-2.06 -1.85,-1.56 -0.9,-0.09 -1.56,-2.07 2.19,-3.22 1.53,-4.14 4.08,-6.55 0.76,-0.72 0.2,-0.39 0.82,-0.71 1.96,-1.03 2.16,0.81 2.25,2.59 0.21,3.8 -0.53,2.62 1.69,4.53 -0.82,0.85 -1.57,1.07 -2.02,2.21 0.13,0.08 0.35,-0.01 0.42,0.17l1.27 0.43c0.12,0.05 0.28,0.08 0.39,0.14l3.1 2.88c-0.28,2.72 -1.38,4.21 -0.13,6.85 0.7,1.47 0.52,0.41 0.48,2.7 1.76,-0.43 1.41,-0.62 2.21,-0.26 -0.38,1.39 -0.5,0.76 -0.3,2.46l0.87 2.75c0.5,1.51 -0.05,3.85 0.1,6.1 1.65,-0.43 0.92,-0.52 2.48,-0.9l-0.27 8.32c-0.16,5.79 -2.38,5.23 -2.29,10.75 1.25,-0.63 3.84,-0.65 5.1,-0.84 0.09,-0.01 0.27,-0.07 0.34,-0.09 1.07,-0.2 1.25,-3.81 1.58,-4.62 1.4,-3.43 0.67,-1.07 2.62,-3.03 1.53,2.41 1.05,4.03 2.25,6.51 1.24,2.57 0.85,-0.37 0.92,3.41l0.46 1.96c0.74,1.11 0.29,0.31 0.76,0.85l1.51 -4.21c1.1,-2.86 0.58,-5.79 2.54,-8.27 1.74,-2.19 2.16,-6.16 3.06,-8.87 1.58,-4.8 -0.63,-3.78 2.92,-8.95 1.42,-2.05 0.41,-2.09 2.35,-3.79 1.84,1.02 2.22,2.02 2.75,4.03 0.55,2.07 1.6,2.11 2.5,4.02 0.75,1.59 0.8,3.13 1.56,5.15 0.62,1.6 0.6,0.59 1.07,2.42 0.56,2.17 0.23,3.9 1.39,5.46 1.71,2.31 1.99,1.61 2.69,4.58l1.26 2.44c2.66,2.86 0.48,4.93 2.32,7.98 1.28,2.11 -0.3,1.51 2.03,1.23 0.75,-1.35 0.14,-2.61 1.45,-4.88 1.18,-2.02 0.77,-2.25 1.43,-4.25l1.78 -4.22c0.82,-3.45 -0.34,-2.6 2.57,-3.94 0.87,1.24 0.94,4.32 1.03,4.63 1.39,-0.56 1.22,-1.43 3.82,-1.65 -0.33,3.41 -0.93,2.97 1.3,4.85l-0.63 0.71c-0.9,1.04 -1.23,-0.1 -1.15,2.24 0.06,1.65 0.41,2.68 1.83,3.07 1.28,-0.62 1.1,-1.94 2.09,-3.36 1.77,-2.56 2.14,-0.78 2.98,-2.66 -0.69,-1.63 -0.68,-0.76 -1.91,-1.55 1.13,-2.49 -0.76,-3.02 2.96,-3.7 0.07,-3 0.89,-5.09 1.47,-7.79 0.51,-2.42 1.54,-2.42 1.94,-4.61l0.92 -2.84c1.32,-2.36 2.83,-9.77 3.46,-12.72 1.24,-5.87 -1.23,-2.54 2.53,-7.77 1.29,-1.8 1.08,-2.92 3.19,-3.63 1.87,1.14 1.98,1.68 2.6,3.85 0.39,1.37 0.46,1.47 0.75,2.36 1.46,4.54 3.54,8.5 3.59,13.6l2.22 0.86c0.14,1.84 0.36,3.13 0.49,4.35 0.15,1.43 -0.06,0.47 0.12,1.36 0.2,0.92 0.19,0.28 0.61,1.65l3.23 0.07c1.04,1.45 0.45,0.52 1.31,2.47l2.13 2.54c3.41,-1.26 1.4,-2.04 4.75,-4.52 0.29,-2.62 -0.25,-3.1 1.19,-4.87l1.81 -3.06c1.58,0.56 0.04,0.17 0.99,1.21l2.05 1.5c2.17,-3.99 0.74,-5.03 1.39,-6.57 0.03,-0.07 0.12,-0.19 0.16,-0.25 0.97,-1.94 1.55,-4.09 3.36,-5.31 -0.46,-1.48 -1.4,-3.11 -1.41,-5.06 -0.02,-2.59 -0.16,0.22 0.51,-2.13 0.35,-1.22 0.37,-1.86 0.64,-2.98 0.82,-3.49 -2.7,-6.95 2.64,-8.62 2.5,1.5 -1.38,1.72 3.78,2.17 -0.37,-1.7 -0.17,-0.76 -1.05,-1.87 -3.26,-4.07 -1.8,-7.31 1.28,-10.82 0.08,-0.09 0.2,-0.21 0.27,-0.29l-0.01 -1.67c-0.03,-0.09 -0.11,-0.25 -0.13,-0.35 -0.41,-1.46 -0.07,0.09 -0.1,-1.43 -0.08,-3.67 0.38,-0.26 -0.89,-2.78 0.8,-0.47 1.19,-0.6 2.08,-0.99 -0.43,-1.18 -0.77,-3.2 0.34,-4.3 2.31,-2.31 0.43,0.84 2.65,-3.14 0.97,-1.74 2.07,-1.07 2.77,-2.77 1.16,-2.82 -1.33,-1.27 1.7,-3.81 -0.89,-0.64 -0.63,-0.46 -1.11,-1.55 0.09,-0.12 0.24,-0.41 0.28,-0.33 0.4,0.83 1.65,-4.06 1.69,-4.16 0.73,-2.15 2.24,-2.21 4.27,-2.43 0.13,2.54 1.03,5.65 0.17,7.76 -0.45,1.12 -1.08,1.04 -1.29,1.54 4.59,0 3.41,-0.29 3.95,0.53 1.15,1.75 2.23,2.52 2.26,5.18 1.4,-0.5 0.64,-0.53 2.41,-1.01 0.05,0.1 0.08,0.18 0.08,0.33l-0.08 1.18c3.04,0.12 3.03,1.53 4.44,-0.33 -0.29,-0.88 -2.25,-1.43 -3.03,-4.57 -0.02,-0.1 -0.07,-0.25 -0.09,-0.35 -0.01,-0.09 -0.04,-0.25 -0.04,-0.34 -0.09,-1.22 -0.34,0.01 0.15,-1.06 3.89,-0.91 -1.32,0.98 3.04,0.98l-2.04 -3.06 2.73 -4c-0.55,-4.68 -0.99,-2.98 1.35,-6.71 -0.82,-0.82 -1.72,-1.09 -1.13,-2.8 0.83,-2.38 0.49,-0.74 3.03,-1.73 -0.56,-6.33 1.94,-2.83 2.79,-7.69 0.17,-0.97 0.21,-2.24 0.39,-3.21 0.56,-3.04 -0.12,0.33 1.1,-2.45 0.05,-0.12 0.11,-0.26 0.16,-0.39 1.2,-3.28 0.4,-2.47 3.52,-4.62 1.1,-0.76 -0.28,-0.17 1.09,-0.73 2.34,4.47 -0.68,4.95 2.59,7.08 -0.84,1.99 -0.61,0.22 -1.24,2.83 8.1,0.18 1.53,8.25 5.81,13.41l1.21 1.74 0 -27.61 -0.81 1.09c-0.08,0.1 -0.17,0.22 -0.25,0.32l-2.8 2.2 -0.13 -5.04 2.66 -0.17c-0.41,-2.69 -0.5,-0.67 0.09,-2.13 0.38,-0.94 0.22,0.87 0.46,-0.86 0.24,-1.83 1.18,2.08 -0.03,-0.64 -1.12,-2.49 -2.47,0.26 -3.32,1.04 -0.64,-1.95 0.11,-0.53 0.36,-2.01 0.49,-2.75 0.69,-1.68 -0.51,-2.1 -0.91,-0.31 -1.72,0.57 -1.91,1.39 -0.29,1.21 0.24,0.83 0.24,2.86 -1.36,-0.79 0.37,-2.7 -2.98,-1.15 -1.11,-5.55 -1.18,-0.23 -2.68,-7.61 -0.41,-2.01 -1.47,-3.79 -2.16,-5.11 -1.06,-2.03 -0.35,-4.27 -1.51,-6.29 -1.13,-1.98 -0.82,-2.37 -2.21,-4.41 -0.77,-1.13 -0.32,-0.49 -0.36,-1.02 0,-0.06 0.61,-1.46 -1.26,-2.51 -1.71,0.65 -0.83,0.37 -1.79,1.82 -0.74,1.14 -0.89,1.11 -1.52,2.04 -1.41,2.07 -0.9,7.47 -4.71,15.38 -0.81,1.69 -0.86,4.1 -1.59,5.69 -2.05,4.42 0.02,5.35 -3.46,8.46l-5.33 2.99c0.11,-1.44 1.7,-3.71 2.2,-4.41 -2.13,-1.27 1.29,0.78 -1.06,-0.13l-1.68 -2.22c-0.38,0.74 -0.4,1.35 -0.85,2.13l-2.16 3.08c-0.7,0.54 -0.17,0.11 -1.03,0.5l-0.75 0.25c1.61,3.46 -0.69,1.9 2.06,3.62l-1.2 1.34c-0.17,0.96 0.93,-0.75 0.13,1.11 -3.06,0.35 -1.2,-0.64 -4.07,-0.81l0.33 7.02c-3.08,-0.15 -3.86,-0.17 -6.03,1.16 0.52,1.22 2.12,2.04 3.54,2.56 0.13,0.05 0.27,0.09 0.4,0.14 7.15,2.43 5.81,-0.25 8.74,0.76 -1.81,0.96 -3.04,2.11 -5.64,1.86 -2.38,-0.24 -4.92,-0.13 -6.51,0.88 0.41,2.86 1.37,1.83 3.55,3.1l-2.57 2.58c-1.89,-0.16 -2.19,-0.35 -3.58,0.52 1.62,2.25 4.57,2.28 6.2,4.07 1.09,1.2 0.82,1.05 1.2,2.26 -2,0.27 -3.37,0.19 -4.75,0.33 -0.37,0.04 -2.77,0.64 -3.92,0.89 -0.22,3.6 -0.86,2.78 -2.16,4.99 -1.11,1.9 -0.97,3.57 -1.06,5.86l-4.57 -0.16c0.69,-3.05 0.1,-0.4 1.94,-2.74 -1.98,-1.12 -1.79,-0.46 -2.22,-6.04 -1.84,-0.37 -3,-0.01 -3.89,1.11 -1.45,1.84 -0.25,1.67 -1.47,3.73 -1.58,2.68 -0.88,-0.53 -1.43,3.61 -0.24,1.83 -0.23,3.29 -0.75,4.4 -4,-0.15 -2.59,-4.24 -3.62,-7.17 -0.71,-2.01 -1.18,-5.52 -3.82,-5.38 -2.36,5.37 -2.38,9.95 -5.75,14.4 -0.72,0.94 0.02,0.17 -1.17,1.05l-2.04 1.94c-1.67,2.06 -0.82,2.43 -1.41,3.28 -2.51,2.91 -2.8,-1.18 -1.94,3.3l-3.71 -0.16c-0.04,-0.09 -0.02,-0.25 -0.03,-0.3 -0.25,-1.93 -0.7,-1.75 -2.75,-2.53l1.57 -2.33c-1.41,-0.83 1.38,0.74 -0.91,-0.43l-1.07 -0.6c0.61,-1.81 0.3,-3.05 0.17,-5.3 -0.45,-0.35 -1.38,-0.85 -1.9,-1.12l-1.06 0.96c-0.05,0.03 -0.22,0.09 -0.26,0.11 -1.87,0.73 -1.43,-0.8 -0.6,0.01 -0.85,0.82 -1.04,2.61 -1.36,3.75 -0.35,1.27 -0.27,0.82 -0.44,1.24 -0.85,2.18 -0.28,2.56 -0.66,5.14 -0.55,3.78 -0.29,1.8 -2.91,3.67 -1.69,1.2 -1.09,3.27 -0.48,4.65 -7.56,0.29 -0.71,4.13 -7.23,6.35 0.06,-4.31 1.89,-5.31 2.15,-10.16 0.14,-2.49 -0.22,-3.7 -0.25,-5.27 -0.03,-1.85 0.77,-2.39 1.27,-3.79 -1.99,0.77 -4.55,3.37 -2.98,-3.34l-1.93 -1.04c1.16,-1.13 0.97,-0.42 0.79,-2.33 0,-0.09 -0.28,-1.36 -0.39,-1.71 -0.39,-1.27 0.07,-0.34 -0.47,-1.15 -0.74,0.68 -1.31,1.54 -2.43,1.94 0.16,-1.13 0.54,-2.17 0.62,-3.78 -1.33,-0.61 -2.56,-0.97 -4.05,-1.92l3.09 -0.04c0.07,-3.92 0.5,-2.84 0.95,-5.78l-3.16 -0.4c1.06,-1.9 0.17,0.66 1.12,-2.1l-4.5 -0.26 1.88 -1.42c-0.01,-0.16 -0.07,-0.36 -0.1,-0.49 -0.02,-0.14 -0.06,-0.33 -0.09,-0.49 -0.38,-2.09 -0.02,-4.79 -0.87,-6.57 -0.1,-0.03 -0.26,-0.04 -0.32,-0.03 -0.05,0 -0.24,-0.02 -0.31,-0.02 -3.14,0.33 -3.31,2.16 -3.86,3.68 -0.62,1.72 -1.38,1.88 -1.58,3.58 -0.25,2.2 -1.28,1.87 -0.45,4.01l0.39 0.82c-0.12,0.08 -0.29,0.17 -0.38,0.22 -0.09,0.06 -0.27,0.16 -0.37,0.23 -2.56,1.51 -2.71,2.79 -2.44,5.85 -2.38,0.01 -2.72,-0.37 -3.35,1.76 -0.89,3.01 1.17,1.1 -1.68,3.3 0.71,2.13 -0.49,-1.42 0.8,0.97 0.69,1.29 0.32,1.74 0.77,3.35 0.02,0.06 0.46,0.88 0.63,1.37 -1.97,1.66 -0.84,-0.5 -1.9,2.16 -1.08,2.7 1.05,0.51 -1.67,2.49l0.75 0.32c1.4,0.83 1.23,-0.3 1.29,2.64 -1.84,-0.24 -1.39,-0.71 -2.76,-1.16 0.06,1.61 0.18,2.71 1.05,4.11 1.6,2.58 1.56,0.16 1.64,2.85 -1.9,-0.34 -2.57,-1.33 -3.99,-2.11 -5.31,2.3 -0.81,7.2 -2.52,11.48 -2.34,5.85 2.51,6.83 -1.23,9.25l1.76 1.58c1.38,2.42 0.47,1.61 -0.34,3.58l1.94 1.04c-1.82,2.27 -0.7,1.34 -0.3,2.12l0.41 0.81c0.03,0.07 0.07,0.23 0.09,0.3 1.2,3.82 -0.97,2.74 -4.31,2.42 -0.24,-3.21 -1.55,-3.41 -2.37,-6.61 -0.57,-2.18 -0.68,-4.51 -2.95,-5.46 -3.12,1.85 -1.97,7.21 -4.65,9.8 -1.47,-2.16 -1.18,-5.81 -0.75,-8.24l-2.77 0.65 0.32 -4.57c-1.1,-0.67 -1.42,0.56 -1.75,-0.46 -0.03,-0.1 -0.19,-0.02 -0.28,-0.06 1.73,-3.4 0.61,-1.26 0.59,-5.26 -1.76,0.51 -0.98,0.55 -2.54,1.09l0.03 -4.06 -2.68 -0.74 2.05 -0.85 1.32 -4.65 -5.55 -4.13c0.78,-2.33 -0.24,0.01 1.15,-1.59 0.34,-0.4 0.15,0.28 0.88,-0.99l-2 -1.04c0.2,-1.8 0.37,-4.29 -0.62,-5.43 -2.42,-2.4 -4.33,4.36 -4.99,5.4 -0.99,1.56 -0.97,-0.24 -1.17,2.06l-0.1 3.27c-0.5,2.8 0.37,1.1 -1.09,2.63 -2.29,2.4 -2.27,0.89 -2.14,5.59 -0.95,-0.02 -1.79,-0.16 -2,-0.07 -1.57,0.7 -0.68,3.04 -0.55,3.89 0.36,2.4 -0.32,1.47 -0.67,3.46 -0.34,1.89 0.16,1.36 0.24,3.49 -2.53,1.43 -3.62,5.73 -6.02,9.12l-0.96 2.74c-1.42,4.6 0.1,4.86 -0.73,7.65 -1.19,3.98 -0.99,3.97 -0.85,8.07l-1.83 0.2c1.68,-1.22 0.72,-0.08 1.11,-2.15 -3.71,0.61 -3.19,1.47 -4.02,-2.74 -0.44,-2.21 -1.33,-3.19 -1.37,-5.85 -1.15,-0.49 -0.26,-0.32 -2.16,0.18l-0.17 -3.05c-3.03,-0.05 -2.9,-0.09 -4.28,-1.61 3.8,1.02 3.21,0.11 4.04,-3.09 0.55,-2.14 0.11,0.39 0.7,-1.73 -2.55,-2.17 -1.53,-2.42 -1.78,-3.27l-4.22 -0.3 2.14 -2.63c-0.73,-0.43 -1.35,-0.63 -2.05,-0.98 0.7,-2.37 1.12,-7.99 -2.74,-4.95 -2.23,1.76 -1.3,2.81 -2.82,5.06 -1.28,1.89 -0.41,2.83 -1.02,5.58 -0.53,2.39 -1.71,2.24 -3.59,4.08 0.16,1.55 0.6,2.09 1.1,3.26 -4.25,0.84 -2.62,-1.03 -3.77,2.53 -0.6,1.84 -1.5,1.78 -1.97,3.51l1.98 0.51c-1.23,2.05 -0.59,2.28 -0.25,4.97 -1.12,0.72 -1.62,1.84 -2.31,2.9 -1.77,2.67 -1.7,5.56 0.53,8.02 0.71,0.78 0.48,0.06 0.96,1.16 -0.89,0.63 1.24,0.66 -1.56,0.48 -1.5,-0.09 -1.6,-1.44 -2.63,-1.98 -3.84,1.85 -1.92,5.93 -2.32,8.9 -0.78,5.71 -2.36,6.47 0.94,9.14l-1.94 3.27c6.79,-0.24 3.44,0.23 3.98,3.58 -1.77,-0.45 -1.48,-0.49 -2.62,0.46 1.08,2.2 2.52,-0.5 1.15,2.24 -2.71,5.44 -4.04,-14.46 -7.46,-16.82 -2.96,1.12 -2.98,4.38 -3.66,7.06 -1.05,4.18 -2.22,9.08 -3.85,12.81 -0.93,2.13 -2.13,5.18 -2.37,8.1 -0.17,2.2 0.09,2.35 -2.32,2.36 0.66,-2.38 0.67,-2.09 0.34,-5.06 -2.02,-0.16 -3.37,-0.37 -4.25,1.04 -0.87,1.4 -0.13,0.76 -0.53,2.02 -0.86,2.68 -1.69,1.2 -2.14,5.54 -0.24,2.28 0.4,1.24 0,3.75 -1.09,0.5 -2.4,1.23 -3.61,1.39z"/>
  <path class="fil0" d="M-0.02 272.9c0,0 261.28,155.17 294.14,169.78 32.86,14.6 155.29,18.7 159.55,12.47 4.27,-6.23 178.17,11.15 178.17,11.15l137.89 -38.8 28.79 -53.2 37.1 -5.57 156.3 -90.62 0 279.92 -991.94 0 0 -285.13z"/>
 </g>
</svg>
