<?xml version="1.0" encoding="UTF-8"?>
<!DOCTYPE svg PUBLIC "-//W3C//DTD SVG 1.1//EN" "http://www.w3.org/Graphics/SVG/1.1/DTD/svg11.dtd">
<!-- Creator: CorelDRAW 2021 (64-Bit) -->
<svg xmlns="http://www.w3.org/2000/svg" xml:space="preserve" width="992px" height="558px" version="1.1" style="shape-rendering:geometricPrecision; text-rendering:geometricPrecision; image-rendering:optimizeQuality; fill-rule:evenodd; clip-rule:evenodd"
viewBox="0 0 992 557.97"
 xmlns:xlink="http://www.w3.org/1999/xlink"
 xmlns:xodm="http://www.corel.com/coreldraw/odm/2003">
 <defs>
  <style type="text/css">
   <![CDATA[
    .fil0 {fill:#00121C}
   ]]>
  </style>
 </defs>
 <g id="Layer_x0020_1">
  <metadata id="CorelCorpID_0Corel-Layer"/>
  <path class="fil0" d="M740.14 414.11l-0.06 -0.54c-0.44,-0.16 -1.32,-0.38 -1.83,-0.55 -3.16,2.9 -1.47,1.09 -3.26,4.29 -0.81,1.44 -1.48,1.18 -2.12,2.43 -0.45,0.86 -0.24,0.1 -0.39,1.44 -0.13,1.2 -0.03,3.74 0,5.01 -2.6,0.72 -2.68,1.93 -2.75,5.16 -2.47,0.77 -2.04,-0.32 -2.72,2.74 -0.66,2.88 0.37,1.26 -1.95,3.05 1.06,2.76 1.14,-1.28 1.69,6.08 -3.26,2.03 -0.29,3.19 -4.87,4.94 -2.46,0.93 -1.39,-0.58 -2.85,1.76 -1.06,1.72 -0.09,1.86 -2.48,2.22 -0.07,-0.11 -0.15,-0.27 -0.18,-0.36l-0.38 -1.24c-0.11,-0.66 -0.03,-1.37 -0.02,-2.04 0.59,-0.31 0.22,-0.04 0.98,-0.19 3.02,-0.57 1.68,-0.76 1.86,-1.16 0.67,-1.49 1.16,-1.8 1.27,-3.65 -4.88,-0.44 -1.5,0.42 -4.51,1.36 0.41,-1.77 1.06,-2.26 1.93,-3.59l-2.49 -2c-0.41,0.53 -0.78,1.04 -1.36,1.68 -0.9,0.99 -0.43,0.29 -0.86,1.25 -0.49,1.13 1.38,0.07 -1.06,1.37l-1.87 0.8c1.11,2.22 0.58,3.5 0.72,6.38 -1.35,-0.5 -1.89,-1.01 -3.7,-1.02 -0.2,4.51 1.31,1.64 0.54,5.49l2.69 1.03c-3.28,2.35 -6.84,-1.26 -8.46,2.07 0.57,0.95 1.76,1.48 2.64,1.85 1.46,0.62 1.85,0.75 2.74,2.06 -1.44,0.54 -3.83,0.73 -5.2,1.26 0.21,4.15 1.69,0.17 1.41,5.79 -4.67,-0.04 -3.56,0.03 -6.97,-2.3 -2.85,2.06 -2.59,7.41 -6.67,7.42 -0.83,-1.69 -1.25,-4.08 -3.25,-7.53 -0.4,-0.7 -0.3,-0.57 -0.9,-1.22 -0.58,-0.62 -0.35,-0.31 -0.93,-0.79 -0.09,0.12 -0.18,0.28 -0.24,0.38l-3.63 4.45c-0.08,1.73 -0.2,4.91 0.32,6.11 -0.42,0.49 -0.59,0.1 -1.44,1.21 -1.27,1.64 -0.9,5.85 -3.27,6.43 -0.74,-1.72 -0.27,-3.46 0.02,-5.09l-2.83 0.12c0.55,-1.41 -0.28,0.18 0.85,-0.91 0.1,-0.1 0.5,-0.46 0.58,-0.54l0.65 -0.62c-0.4,-1.26 -0.53,-1.2 -0.74,-2.58l-2.2 -0.52c-0.57,-2.53 -0.14,-3.18 -2.36,-4.01 2.58,-1.5 1.82,-1.68 2.13,-5.29 -0.21,-1.25 -1.3,-1.17 -1.66,-2.76l-0.13 -0.85c-1.82,-0.23 -3.8,-0.2 -5.02,-0.74 1.2,-0.65 1.68,-1.3 3.18,-1.67 -0.45,-1.27 -0.53,-0.73 -0.74,-1.06 -0.74,-1.14 -0.26,-4.4 -1.55,-6.75l-1.66 0.9c-0.09,0.06 -0.22,0.14 -0.31,0.2 -1.2,0.79 -1.64,1.82 -1.8,2.82 -0.34,2.05 -1.01,1.23 -1.34,3.71 -0.03,0.18 0.03,0.97 0.02,1.11 -0.01,0.09 -0.01,0.24 -0.02,0.33 -0.13,0.93 -0.68,2.4 -0.29,4.25 -2.91,1.61 -3.89,0.77 -3.68,5.16 -0.13,0.09 -0.32,0.15 -0.42,0.2 -0.1,0.05 -0.29,0.13 -0.4,0.2 -1.99,1.07 -2.08,3.33 -3.13,4.69 -1.77,2.28 -0.2,-0.54 -1.11,1.11 1.31,2.92 0.52,-1.63 1.05,2.54 0.24,1.81 -0.25,3.73 -1.09,5.37 -1.32,2.54 -2.87,3.5 -1.24,6.43 1.82,3.26 0.99,1.39 3.28,2.71 -0.83,0.79 -0.56,0.49 -1.29,1.42 -3.44,0.01 -2.24,-1.26 -4.14,-2.06 -1.44,1.37 -2.34,2.53 -2,5.11 0.44,3.34 -0.09,2.89 -0.22,6.38l-2.53 1.55c1.17,2.2 0.41,3.69 -0.05,6.06 -1.89,-0.36 -1.1,-0.83 -2.93,0.05l0.5 4.22c1.91,1.26 1.82,-0.21 2.33,2.07 -4.37,1.86 -5.73,-0.07 -7.31,-3.25l-2.48 -6.33c-0.91,-2.22 -0.84,-3.11 -2.87,-3.96 -2.03,1.26 -0.8,0.41 -1.83,2.46 -0.8,1.58 -0.45,0.72 -1.56,2.02 -1.76,2.05 -1,3.56 -3.36,4.45 -0.6,-1.92 0.13,-2.21 -0.96,-4.18 -0.63,-1.14 -1.42,-1.69 -1.85,-2.77 -1.07,-2.71 -0.73,-5.76 -0.72,-9.11 -1.42,-1.92 -1.91,-0.83 -2.49,-3.17l-5.62 -18.54c-0.7,-3.01 -1.61,-7.64 -4.67,-8.04 -0.76,1.3 -0.89,2.92 -1.97,4.18 -2.69,3.14 -2.38,2.32 -2.2,6.73l-1.97 6.77c-1.57,8.24 -2.44,2.8 -3.26,9.04 -0.21,1.55 0.02,1.25 -0.54,2.61 -1.06,2.58 -1.78,5.16 -3.16,5.66 -0.96,-1.64 -0.2,-1.58 -1.04,-3.13 -4.08,1.13 -1.47,4.35 -4.65,5.43 -0.08,-0.15 -0.16,-0.32 -0.21,-0.45l-0.49 -1.44c-0.12,-0.72 -0.11,-1.28 0.04,-2 0.42,-2.03 0.9,-1.27 1.3,-2.61 -1.69,-0.67 -1.08,0.49 -3.48,0.81 -0.05,-3.09 0.6,-4.16 -0.35,-6.43l-0.63 -3.68c-1.34,-0.76 -0.11,0.03 -0.99,-0.19l-1.04 -0.33c0,-4.3 -0.68,-1.5 -1.01,-4.68 -0.32,-3.16 0.75,-2.27 0.97,-4.77l-2.89 -0.51c0.28,-1.08 0.42,-1.03 0.51,-2.35l-3.97 -0.3c1.52,-1.58 1,-4.45 1.02,-6.04 0.03,-4.19 -2.12,-2.46 -4.46,-1.68 -0.36,1.01 -0.4,2.57 -0.82,3.4 -0.38,0.77 -2.2,1.46 -1.66,8.05 -2.41,0.77 -1.96,1.09 -3.74,2.01l0.13 2.74 -2.59 1.45c-0.78,6.04 -0.23,2.03 -2.41,5.26l1.46 0.38c0.05,0.01 0.25,0.16 0.28,0.07 0.03,-0.08 0.19,0.03 0.27,0.07 -0.75,2.69 -0.58,2.01 -0.11,5.11 -3.69,1.96 -0.9,5.92 -6.86,7.01 0.18,-0.56 0.94,-8.62 0.99,-9.76 -1.76,0.21 -0.55,0.48 -3.04,1 -0.01,-2.17 -0.02,-4.65 -0.33,-6.04 -0.46,-2.07 -1.09,-2.83 -0.18,-4.55 -0.89,-0.46 -1.25,-0.05 -2.59,0.22 0.09,-3.67 -1.32,-2.52 -1.67,-3.7 -0.05,-0.2 -0.26,-0.16 -0.36,-0.27 1.72,-0.65 0.79,0.37 1.15,-2.4 0.22,-1.71 0.26,-1.8 0.51,-3.15l-2.19 -2.35c-0.97,-1.03 -1.73,-0.99 -2.68,-1.78 0.76,-0.62 0.07,-0.25 1.49,-0.97 0.91,-0.45 0.01,-0.25 0.93,-0.23 -1.38,-3.49 -1.03,0.31 -2.05,-3.77 -0.67,-2.69 0.14,-1.91 -1.31,-4.05 -1.79,0.13 -0.7,0.14 -1.9,0.86l-2.71 1.44c0.11,1.61 0.35,1.36 0.38,3.34l-2.39 1.61 -0.35 6.51c-4.71,2.38 -1.44,1.9 -3.83,5.39 -0.03,0.04 -0.75,0.78 -1.2,1.44 -1.43,2.08 -0.36,2.31 -2.56,3.93 0.94,2.08 -0.74,-1.75 0.84,0.97l0.57 1.54c0.45,1.85 0.24,1.54 0.9,3.17 -1.29,1.24 -0.88,0.49 -1.84,2.24 -0.31,0.58 -0.4,0.83 -0.71,1.39 -0.42,0.77 -0.01,-0.04 -0.61,1.02l2.11 2.54 -2.23 -0.63c-2.7,-0.48 -1.63,-1.24 -3.66,-2.25 -0.15,-0.08 -0.3,-0.13 -0.45,-0.19l-1.73 -0.34 -2.46 3.76c-0.58,0.88 -0.14,0.16 -0.56,1.12 -1.65,3.79 -0.86,3.3 -0.07,5.29 -2.9,1.74 -3,0.24 -5.19,1.57 -2.2,1.34 -1.22,3.51 -4.62,3.38l-0.04 -4.29c1.31,-0.51 2,-0.39 2.77,-1.39l0.78 -2.95c-4.77,-0.04 -0.34,1.02 -3.67,1.86 -0.66,-1.67 0.42,-1.49 0.72,-4.01l-3.35 1.13c-1.05,0.86 -0.42,0.96 -2.2,1.93 0.36,1.79 1.02,3.22 0.62,4.36 -0.02,0.09 -0.1,0.23 -0.14,0.31 -0.03,0.08 -0.12,0.22 -0.16,0.3 -0.51,1.05 -0.19,0.49 -0.66,1.24 -2.18,-0.14 -1.17,-0.38 -3.2,-0.86 0.12,3.9 2.25,3.29 0.29,4.44 -1.5,0.88 -3.17,-0.06 -4.55,-0.82l0.17 -4.14c-4.2,-3.97 -3.15,-4.83 -3.1,-11.88 -4.05,-3.08 -1.62,-2.9 -3.14,-7.6 -0.91,-2.84 -2.09,-4.6 -2.73,-7.65 -0.49,-2.32 -0.21,-2.63 -1.12,-4.6l-0.79 -1.78c-0.65,-1.54 0.13,-0.15 -0.87,-1.69 -1.44,-2.2 -1.22,-5.41 -4.25,-6.16 -1.17,1.66 -0.67,1.01 -1.24,3.42 -0.4,1.68 0.01,0.44 -1.28,1.79 -1,1.04 -1.64,1.47 -1.77,3.12 -0.32,3.94 0.18,0.91 0.97,3.07 -2.86,1.59 -1.72,3.78 -3.57,7.04 -0.92,-0.41 -0.97,-0.79 -1.62,-1.14 -1.39,-0.73 -0.91,-0.11 -2.14,-0.73 0.08,-2.84 0.77,-3.36 -1.74,-4.16 2.23,-1.7 1.72,-2.36 1.8,-6.18l-2.25 -0.84 0.11 -2.29 -4.15 -0.12c1.4,-1.31 1.15,-1.37 3.1,-2.29 -1.73,-4 1.83,2.85 -0.77,-0.97 -2.05,-3.01 0.77,1.86 -0.42,-0.63 -0.68,-1.42 -0.54,-3.87 -0.86,-5.41 -2.8,0.5 -3.6,0.79 -4.3,3.29 -0.92,3.28 -2.01,2.02 -2.17,4.37 -0.16,2.25 0.27,4.14 -1.15,5.68 -1.99,2.16 -2.38,0.34 -2.12,5.06l-2.57 0.35c-0.42,3.37 -0.37,3.44 -2.41,5.17 1.23,1.1 1.43,3.3 1.49,5.15l-0.1 0.74c-1.76,3.15 -1.48,0.39 -3.07,2.64 -0.52,0.73 -0.34,1.13 -1.09,2.08 -2.11,2.66 -1.24,0.23 -3.32,4.86 -1.3,2.89 -0.19,13.31 -3.85,14.42 -2.47,0.75 -1.78,-0.23 -1.96,-0.37 -0.83,-0.63 -0.71,-0.89 -0.45,-1.35 0.31,-0.55 0.66,-0.34 1.47,-0.79 -1.35,-1.56 -1.07,-0.15 -0.63,-2.29l-2.58 -0.06c0.17,-2.19 -0.81,-2.1 -1.35,-3.91 -0.45,-1.51 0.15,-3.85 0.21,-4.77 0.13,-2 -0.49,-2.3 -0.32,-4.48 0.24,-3.13 0.71,-1.14 1.01,-3.42 -1.6,0.49 -1.09,0.67 -3.13,1.06 -0.13,-4.5 -1.06,-7.41 -1.09,-10.54 -0.67,-0.28 -1.1,-0.01 -2.1,0.33 0.09,-4.11 0.21,-2.96 -0.52,-3.65l-0.62 -0.3c0.13,-1 0.12,-2.3 0.27,-3.13 0.42,-2.42 -0.43,-0.73 0.94,-2.04 -0.36,-0.43 -0.75,-0.78 -1.09,-1.36l-0.35 -0.73c-0.07,-0.14 -0.22,-0.58 -0.29,-0.71 -0.86,-1.47 -0.46,-0.94 -2.9,-1.17l0.37 -1.47c0.13,-1.05 0.23,-0.22 -0.02,-1.07 -0.38,-1.32 0.08,0.26 -0.54,-0.81 -1.15,-1.95 -0.49,-3.6 -1.53,-6.24 -1.23,0.16 -1.15,0.76 -3.84,1.07 -0.32,4.05 -1.02,3.45 -1.86,5.96 -0.62,1.85 -0.12,4.86 -1.15,6.48 -1.58,-0.49 -1.13,-1.84 -1.06,-3.55 -1.32,0.24 -2.36,0.61 -4.2,0.64 0.36,-3.53 2.17,-6.67 2.28,-9.55l0.25 -3.48c0.03,-1.85 -0.05,-3.26 0.07,-5.19 -1.08,-0.47 -1.48,0.22 -1.87,-0.77 -0.08,-0.21 -0.3,-0.16 -0.49,-0.27l0.25 -3.61c-0.43,-0.29 -0.45,-0.21 -1.17,-0.39 -2.95,-0.77 1.48,0.83 -0.73,-0.13 0.93,-2.17 0.51,-3.05 0.81,-5.57 -2.05,0.26 -0.77,0.63 -3.04,1.56 0.52,-3.81 0.34,-2.05 -0.08,-5.32 -0.39,-2.95 0.44,-3.18 0.88,-5.13 -2.82,-2.57 -2.15,-0.14 -2.02,-3.3l-2.58 -1.57c0.05,-0.1 0.14,-0.26 0.18,-0.36 0.04,-0.09 0.11,-0.25 0.15,-0.34 0.27,-0.76 0.34,-0.14 0.13,-1.28 -0.31,0.26 -1.61,0.07 -2.32,-0.59 2.03,-1.6 0.74,-4.2 -0.42,-6.15l-1.27 1.33c-1.56,1.51 -2.1,0.59 -2.61,2.11 -0.86,2.55 0.49,-0.76 -0.03,1.8 -0.39,1.92 -1.07,0.44 -1.7,2.71l0.23 5.66 -2.64 1.39 -1.09 1.69c0.65,1.94 0.9,0.83 1.6,2.76 -2.83,0.99 -3.07,-0.17 -4.15,1.56 -1.43,2.3 0.85,1.97 -2.03,3.43 0.31,1.23 0.68,0.52 0.96,1.64 0.52,2.02 0.33,4.96 -0.94,6.88l-1.87 3.45c-0.69,2.24 0.06,2.57 0.21,4.79 -1.7,-0.05 -3.65,0.13 -5,-0.75 1.16,-2.02 1.31,0.41 3.69,-0.67 -1.02,-0.87 -0.79,-1.03 -1.27,-1.51 -0.8,-0.81 -0.2,-0.23 -0.85,-0.74l-1.04 -0.69c0.01,-3.05 -0.04,-3.47 -1.04,-5.53l-1.59 1.22c-1.26,0.78 -0.68,-0.09 -1.85,1.03 -1.54,4.07 1.09,1.53 -2.38,4.31 -0.24,1.9 -0.33,4.59 -0.35,6.65 -2.88,1.52 -3.35,1.12 -3.27,5.23 -0.13,0.09 -0.32,0.15 -0.43,0.19l-1.17 0.49c-0.88,0.34 -0.46,0.04 -0.98,0.36 -0.09,0.7 -0.43,2.52 -0.69,3.07 -0.62,1.28 0.31,-0.18 -0.65,0.93 -0.55,0.63 -0.03,0 -0.83,0.65 1.16,2.86 -1.05,-2.4 0.9,1.02 0.84,1.48 0.34,2.79 0.77,4.66l-3.16 5.23c-0.2,0.51 -0.1,0.44 -0.4,1.14 -0.08,0.18 -0.43,0.89 -0.55,1.1 -0.04,0.07 -0.04,1.66 -0.5,0.73 -0.04,-0.09 -0.17,0.25 -0.26,0.37l-5.03 -1.47c-0.45,-1.47 0.52,-2.87 0.52,-4.52 -3.25,-0.89 -2.48,-1.78 -3.69,-2.65l-3.56 -3.03c0,-3.55 1.11,-5.48 -0.55,-7.81 -2.11,-2.97 -0.88,-4.23 -2.41,-6.95 -1.33,-2.36 -0.88,-1.69 -1.65,-4.53 -0.44,-1.63 -0.74,-3.3 -1.26,-4.92 -0.75,-2.36 -0.16,-0.09 -1.03,-2.05l-3.69 -8.21c-0.07,-0.09 -0.15,-0.22 -0.21,-0.31 -1.15,-1.55 0.83,-0.45 -1.21,-1.33 -1.26,1.12 -2,3.26 -3.23,4.5 -0.07,0.08 -0.2,0.17 -0.28,0.24l-1.19 1.27c-1.61,2.62 -0.04,6.6 -1.49,9.43 -1.37,2.68 -0.67,2.48 -1.51,5.07 -1.12,3.43 -1.82,0.61 -2.14,5.25 -0.37,5.21 -1.08,2.88 -1.81,5.34l-1.16 6.11c-1.04,3.44 -0.78,1.9 -3.08,3.55 0.67,9.02 -0.14,5.83 -2.38,9.3 0.52,1.19 0.53,0.94 1.42,1.55l-1.84 1.03c-0.08,2.75 -0.75,6.91 -3.84,3.91 -1.77,-1.72 -0.07,-3.62 -2.26,-5.13 -1.5,0.64 -1.84,1.76 -2.16,3.32 -0.51,2.53 -1.36,3.34 -1.98,5.72l-2.67 4.96c-5.37,-1.92 -1.55,-0.21 -5.95,0 -0.7,-0.76 -1.01,-1.64 -1.42,-2.82l6.34 -0.26c-0.77,-2.11 -1.69,-2.89 -3.87,-3.21 0.32,-2.11 0.32,-1.58 -0.52,-3.14l2.17 -1.8c-0.21,-2.29 0.73,-3.72 -1.8,-3.79 -2.46,-0.08 -1.34,0.51 -2.66,2.29 -2.8,3.8 -2.7,-0.4 -2.68,-3.15 0.04,0.17 0.15,0.13 0.23,0.12l0.52 -0.07c1.14,-0.28 0.62,-0.08 1.32,-0.57l0.01 -2.58c-1.01,-0.54 -1.66,0.08 -2.52,0.58 0.3,-2.05 0.69,-1.54 0.63,-3.13l-1.45 -1.93c-0.04,0.11 -0.11,0.27 -0.16,0.38l-0.5 1.41c-1.91,-1.54 -0.1,-0.43 -1.89,-0.49 -1.28,-0.03 1.11,0.43 -1.13,-0.02 -2.77,-0.55 0.61,1.53 -1.01,-0.54 -0.29,-0.28 -2.44,0.43 -0.19,-3.5 0.83,-1.44 0.47,-5.29 -0.94,-6.1 -0.96,-0.55 -2.04,0.51 -2.9,0.73 0.02,-3.1 -0.85,-3.51 0.67,-4.85l-4.16 0.56c0.49,-2.39 0.19,-1.16 1.56,-2.73 -2.19,-1.23 -0.98,1.33 -2.93,-1.95 -2.42,1.04 -1.56,0.25 -4.66,0.02 -0.04,-2.48 0.09,-3.19 -0.85,-5.03 -1.57,-3.03 -0.53,-1.41 -1.03,-4.81 -0.2,-1.4 -0.07,-0.74 -0.9,-2.01 -1.2,-1.85 -1.19,-4.19 -2.1,-6.16 -2.99,0.39 -3.01,1.87 -3.46,5.01 -0.78,5.57 -1.85,0.27 -2.14,6.66 -1.01,0.5 -1.03,-0.64 -1.72,1.71 -0.5,1.66 -0.07,2.45 -0.63,4.07 -2.77,7.98 -1.09,4.29 -3.04,6.26 -2.34,2.37 0.68,5.72 -3.14,10.73 -1.74,2.28 0.76,0.88 -2.8,2.17 -2.39,-5.97 0.25,-13.31 -3.34,-18.91 -1.54,-2.4 -0.84,-5.3 -1.17,-8.61 -2.47,-1.96 -1.77,0.26 -2.2,-3.58 -0.27,-2.39 -0.56,-2.26 -1.7,-3.88 -2.29,-3.25 -1.48,-4.97 -1.55,-9.59l-0.93 -0.84c-0.7,-0.68 -0.29,-0.16 -0.79,-0.8 -1.54,-1.97 -0.54,-4.13 -1.35,-6.35 -1.33,-3.62 -2.87,-9.49 -4.04,-11.46l-2.85 -7.55c-0.63,-1.4 -1.13,-2.08 -2.17,-2.83 -1.97,1.31 -1.33,1.8 -2.7,3.85 -1.48,2.21 -1.84,1.34 -1.82,5.32 0.01,2.53 -0.2,3.82 -0.58,6.03l-1.51 4.46c-1.61,4.29 -0.43,0.61 -2.1,3.56 -1.15,2.03 -1.44,5.26 -2.36,7.47l-2.16 4.05c-1.21,1.85 0.51,0.83 -1.23,1.71 -0.78,-1.4 -0.57,-1.06 0.06,-2.37 0.57,-1.16 0.58,0.25 1.16,-2.29 -1.1,0.38 -0.56,0.17 -1.68,0.67l-0.95 0.46c-1.11,0.36 -0.35,0.11 -2.2,0.01 1.29,2.98 -1.05,0.3 -1.17,4.1 -0.07,2.06 1.14,2.16 0.12,4.52 -3.25,1.27 -2.07,-1.14 -4.82,-1.01 0,3.29 0.22,1.99 0.67,3.87l-0.49 3.3c-1.72,0.03 -5.18,-0.43 -5.58,-0.38 -1.42,0.17 -0.35,0.54 -2.21,0.66l-2.13 -0.59c0.73,-1.61 -0.48,-0.8 2.33,-1.45 4.06,-0.95 2.34,-1.14 5.72,-4.24 -2.41,-2.15 -5.39,-2.22 -8.84,-2.21l1.67 -2.09c0.52,-0.41 0.85,-0.44 1.72,-0.96l2.14 -1.5c1.26,-0.97 0.8,-0.2 1.37,-1.32 -2.09,-0.29 -4.19,-0.6 -5.84,-0.49 -2.67,0.18 -3.43,0.24 -5.41,-0.64l3.14 -1.22c0.12,-0.04 0.25,-0.08 0.37,-0.13 2.2,-0.74 5.25,-0.94 5.18,-3.72 -2.58,-1.16 -8.2,0.16 -10.25,-1.22 0.62,-3.07 0.63,-1.15 3.51,-1.31 0.53,-0.02 3.2,-0.51 4.43,-0.69 -0.58,-1.05 -1.07,-1.28 -2.26,-1.95 -0.14,-0.08 -0.91,-0.5 -1.04,-0.59l-1.5 -2.06c-0.46,-1.94 -0.11,-0.31 -0.07,-1.03l-0.3 -6.43c-5.88,0.03 -2.25,2.62 -6.58,3.8l-0.29 -4.4 3.24 -0.29c-1.16,-4.58 0.99,-0.13 0.57,-2.96 -0.32,-2.12 -0.52,-0.8 -1.21,-1.1 -0.14,-0.06 -0.99,-0.28 -1.25,-0.36l-0.8 -0.26c0.63,-1.82 0.89,-0.82 1.37,-2.83 -1.92,0.46 0.51,0.02 -2.07,0.83l-0.83 -2.03 -1.02 1.43c-0.07,0.07 -0.2,0.17 -0.27,0.24 -0.07,0.08 -0.2,0.16 -0.27,0.24 -0.99,1.14 -0.8,-0.62 -0.82,2.74l-2.56 0.42 0.88 5.68 -3.25 0.9c0.07,4.3 1.25,0.55 0.54,4.26 2.47,0.19 1.97,-0.03 3.67,1.07l2.87 1.52c-1.68,0.84 -3.22,0.4 -5,-0.03 -2.64,-0.63 -2.02,0.43 -4.17,-0.41 -4.12,-1.6 -2.66,-4.17 -4.55,-7.15 -2.86,0.66 -2.4,2.24 -3.27,4.84l-3.47 9.68c-0.23,1.99 -0.74,4.48 -1.15,5.98 -0.26,0.12 -1.98,0.24 -2.29,0.13 -1.15,-0.41 -0.83,-0.59 -1.51,-1.79 -1.95,0.13 -1.58,0.29 -3.21,0.55l0.85 -1.63c0.98,-2.08 2.5,-2.3 3.38,-4.14 -3.07,-1.28 -3.53,1.18 -4.7,-1.9 1.66,-1.99 1.51,0.23 2.19,-3.1 -0.98,-0.79 -1.8,-0.7 -3.06,-1.03l-1.12 -2.25c0.91,-1.61 0.31,0.45 1.48,-1.88 -1.95,-2.88 -3.19,-1.33 -3.07,-6.7 0.14,-6.3 -0.98,-3.87 -2.49,-6.94l-2.39 -6.99c-1.1,-8.59 0.48,-2.11 -2.06,-7.2 -0.64,-1.28 -0.69,-2.61 -0.95,-4.24 -0.46,-2.82 -0.55,-1.37 -1.53,-3.07 -2.23,-3.91 -3.1,-17.73 -8.31,-19.66 -1.8,0.84 -1.91,2.39 -2.86,3.83 -4.6,6.96 0.94,8.37 -5.79,8.41l-6.49 -16.29c-0.3,-1.01 -0.42,-1.47 -0.68,-2.41l-2.1 -6.15c-0.79,-2.02 -0.46,-0.39 -1.24,-1.76 -1.13,-1.99 -0.82,-3.68 -3.06,-4.84l-1.15 1.05c-0.39,0.41 -0.2,0.17 -0.74,0.86 -0.85,1.11 -0.45,0.41 -1.03,1.67 -1.8,-3.86 -1.78,-9.55 -4.4,-12.69 -1.87,-2.26 -0.47,-5 -3.53,-5.91l-5.02 7.54c-0.28,1.39 0.06,1.75 0.09,2.71 0.05,1.61 -1.16,4.27 -1.73,6.41 -1.14,4.27 -3.13,5.79 -3.4,8.94 -0.1,1.14 0.06,1.77 -0.28,2.87l-0.73 1.37c-0.91,1.67 0.01,3.99 -4.26,2.19 -0.87,-2.45 1.33,-3.96 -0.17,-9.79 -2.46,0.07 -0.04,0.42 -2.53,0.24 -1.35,-0.1 -0.42,-0.14 -2.24,-0.51l1.06 -3.94 -2.62 -0.16c0.29,-1.33 0.44,-1.31 0.62,-2.72 -3.22,0.93 -1.23,0.92 -2.55,-1.43 -2.58,4.37 -1.8,3.22 -5.07,5.04 0.45,1.34 0.92,2.65 0.29,4.29 -1.09,2.81 0.26,0.71 -1.41,1.47l-1.58 0.37c-0.06,-0.11 -0.25,0.01 -0.36,0.07 0.08,1.61 -0.37,4.6 0.76,5.24 2.18,1.24 3.18,-1.38 4.47,2l-0.82 0.3c-0.11,0.02 -0.28,0.07 -0.4,0.07l-6.71 -1.03c-5.78,-0.29 -1.47,-4.82 -3.06,-8.79 -1.04,-2.58 -4.98,-0.23 -3.23,-2.01l0.63 -0.43c0.05,-2.34 0.3,-2.74 -0.66,-4.54 -3.26,-6.13 -2.72,1.32 -2.38,-11.55l-2.5 -1.99c0.01,-4.27 0.38,-6.01 -3.03,-7.02 1.22,-2.4 0.36,-0.04 0.43,-1.76l-5.84 -17.15c-0.46,-0.67 -0.66,-1.15 -1.05,-1.68 -1.04,0.9 -5.39,7.7 -5.47,9.06 -0.15,2.36 0.41,1.54 0.03,3.29l-2.29 8.54c-0.59,3.14 -1.7,3.21 -2.2,5.71l-1.01 4.51c-0.03,0.07 -0.08,0.21 -0.11,0.28l-1.72 6.24c-0.69,2.32 -0.49,2.08 -2.33,3.26 -0.31,0.19 -0.61,0.57 -0.67,0.44 -0.06,-0.1 -0.24,0.14 -0.34,0.23 0.37,0.93 0.83,2.75 0.94,3.84 -2.95,0.24 -3.39,0.94 -3.12,-2 0.57,-5.99 -3.5,-2.46 -2.7,-14.24 -1.37,-1.14 -1.95,-1.51 -2.27,-3.52 -0.6,-3.85 -1.21,-4.88 -2.15,-8.23 -0.63,-2.2 -0.95,-0.97 -1.61,-3.49 -0.7,-2.69 -2.18,-10.01 -3.74,-12.46 -0.75,-1.18 -1.28,-1.07 -2.3,-2.43 -3.34,1.37 -1.19,5.46 -5.28,6.16l-8.15 -0.32c-2.26,-0.32 -0.9,0.46 -1.58,-1.02 0.76,-1.87 0.12,-0.85 4.14,-1.06 1.72,-0.1 2.16,-0.55 3.81,-0.85 -0.65,-0.78 -0.64,-0.8 -1.45,-1.3 -1.94,-1.19 -3.33,-1.33 -3.38,-4.25 -0.06,-2.86 0.59,-1.55 0.89,-2.24 0.48,-1.13 -0.4,-3.12 -0.68,-4.97 -1.74,0.11 -0.61,0.77 -2.26,0.14 -1.4,-0.52 -0.09,0.73 -0.8,-0.66 -0.04,-0.07 -0.07,-0.24 -0.09,-0.32 -0.01,-0.08 0.01,-0.25 0,-0.33 -0.06,-1.57 0.52,-0.43 0.1,-2.02l-0.4 -1.11c-1.52,-0.07 -2.11,0.1 -3.1,0.5 0.19,-3.52 0.71,-1.35 1.42,-3.48l-2.31 0.07 0 263.66 991.94 0 0 -287.87 -1.21 -1.74c-4.28,-5.16 2.29,-13.23 -5.81,-13.41 0.63,-2.61 0.4,-0.84 1.24,-2.83 -3.27,-2.13 -0.25,-2.61 -2.59,-7.08 -1.37,0.56 0.01,-0.03 -1.09,0.73 -3.12,2.15 -2.32,1.34 -3.52,4.62 -0.05,0.13 -0.11,0.27 -0.16,0.39 -1.22,2.78 -0.54,-0.59 -1.1,2.45 -0.18,0.97 -0.22,2.24 -0.39,3.21 -0.85,4.86 -3.35,1.36 -2.79,7.69 -2.54,0.99 -2.2,-0.65 -3.03,1.73 -0.59,1.71 0.31,1.98 1.13,2.8 -2.34,3.73 -1.9,2.03 -1.35,6.71l-2.73 4 2.04 3.06c-4.36,0 0.85,-1.89 -3.04,-0.98 -0.49,1.07 -0.24,-0.16 -0.15,1.06 0,0.09 0.03,0.25 0.04,0.34 0.02,0.1 0.07,0.25 0.09,0.35 0.78,3.14 2.74,3.69 3.03,4.57 -1.41,1.86 -1.4,0.45 -4.44,0.33l0.08 -1.18c0,-0.15 -0.03,-0.23 -0.08,-0.33 -1.77,0.48 -1.01,0.51 -2.41,1.01 -0.03,-2.66 -1.11,-3.43 -2.26,-5.18 -0.54,-0.82 0.64,-0.53 -3.95,-0.53 0.21,-0.5 0.84,-0.42 1.29,-1.54 0.86,-2.11 -0.04,-5.22 -0.17,-7.76 -2.03,0.22 -3.54,0.28 -4.27,2.43 -0.04,0.1 -1.29,4.99 -1.69,4.16 -0.04,-0.08 -0.19,0.21 -0.28,0.33 0.48,1.09 0.22,0.91 1.11,1.55 -3.03,2.54 -0.54,0.99 -1.7,3.8 -0.7,1.7 -1.8,1.04 -2.77,2.78 -2.22,3.98 -0.34,0.83 -2.65,3.14 -1.11,1.1 -0.77,3.12 -0.34,4.3 -0.89,0.38 -1.28,0.52 -2.08,0.99 1.27,2.52 0.81,-0.89 0.89,2.78 0.03,1.52 -0.31,-0.03 0.1,1.43 0.02,0.1 0.1,0.26 0.13,0.35l0.01 1.67c-0.07,0.08 -0.19,0.2 -0.27,0.29 -3.08,3.51 -4.54,6.75 -1.28,10.82 0.88,1.11 0.68,0.17 1.05,1.87 -5.16,-0.45 -1.28,-0.67 -3.78,-2.17 -5.34,1.67 -1.82,5.13 -2.64,8.62 -0.27,1.12 -0.29,1.76 -0.64,2.98 -0.67,2.35 -0.53,-0.46 -0.51,2.13 0.01,1.95 0.95,3.58 1.41,5.06 -1.81,1.22 -2.39,3.37 -3.36,5.31 -0.04,0.06 -0.13,0.18 -0.16,0.25 -0.65,1.54 0.78,2.58 -1.39,6.57l-2.05 -1.5c-0.95,-1.04 0.59,-0.65 -0.99,-1.21l-1.81 3.06c-1.44,1.77 -0.9,2.25 -1.19,4.87 -3.35,2.48 -1.34,3.26 -4.75,4.52l-2.13 -2.54c-0.86,-1.95 -0.27,-1.02 -1.31,-2.47l-3.23 -0.07c-0.42,-1.37 -0.41,-0.73 -0.61,-1.65 -0.18,-0.89 0.03,0.07 -0.12,-1.36 -0.13,-1.22 -0.35,-2.51 -0.49,-4.35l-2.22 -0.86c-0.05,-5.1 -2.13,-9.06 -3.59,-13.61 -0.29,-0.88 -0.36,-0.98 -0.75,-2.35 -0.62,-2.17 -0.73,-2.71 -2.6,-3.85 -2.11,0.71 -1.9,1.83 -3.19,3.63 -3.76,5.23 -1.29,1.9 -2.53,7.77 -0.63,2.95 -2.14,10.36 -3.46,12.72l-0.92 2.84c-0.4,2.19 -1.43,2.19 -1.94,4.61 -0.58,2.7 -1.4,4.79 -1.47,7.79 -3.72,0.68 -1.83,1.21 -2.96,3.7 1.23,0.79 1.22,-0.08 1.91,1.55 -0.84,1.88 -1.21,0.1 -2.98,2.66 -0.99,1.42 -0.81,2.74 -2.09,3.35 -1.42,-0.38 -1.77,-1.41 -1.83,-3.06 -0.08,-2.34 0.25,-1.2 1.15,-2.24l0.63 -0.71c-2.23,-1.88 -1.63,-1.44 -1.3,-4.85 -2.6,0.22 -2.43,1.09 -3.82,1.65 -0.09,-0.31 -0.16,-3.39 -1.03,-4.63 -2.91,1.34 -1.75,0.49 -2.57,3.94l-1.78 4.22c-0.66,2 -0.25,2.23 -1.43,4.25 -1.31,2.27 -0.7,3.53 -1.45,4.88 -2.33,0.28 -0.75,0.88 -2.03,-1.23 -1.84,-3.05 0.34,-5.12 -2.32,-7.98l-1.26 -2.44c-0.7,-2.97 -0.98,-2.27 -2.69,-4.58 -1.16,-1.56 -0.83,-3.29 -1.39,-5.46 -0.47,-1.83 -0.45,-0.82 -1.07,-2.42 -0.76,-2.02 -0.81,-3.56 -1.56,-5.15 -0.9,-1.91 -1.95,-1.95 -2.5,-4.02 -0.53,-2.01 -0.91,-3.01 -2.75,-4.03 -1.94,1.7 -0.93,1.73 -2.35,3.79 -3.55,5.17 -1.34,4.15 -2.92,8.95 -0.9,2.71 -1.32,6.68 -3.06,8.87 -1.96,2.48 -1.44,5.41 -2.54,8.27l-1.51 4.21c-0.47,-0.54 -0.02,0.26 -0.76,-0.85l-0.46 -1.96c-0.07,-3.78 0.32,-0.84 -0.92,-3.41 -1.2,-2.48 -0.72,-4.1 -2.25,-6.51 -1.95,1.96 -1.22,-0.4 -2.62,3.03 -0.33,0.81 -0.51,4.42 -1.58,4.62 -0.07,0.02 -0.25,0.08 -0.34,0.09 -1.26,0.19 -3.85,0.21 -5.1,0.84 -0.09,-5.52 2.13,-4.96 2.29,-10.75l0.27 -8.32c-1.56,0.38 -0.83,0.47 -2.48,0.9 -0.15,-2.25 0.4,-4.59 -0.1,-6.1l-0.87 -2.75c-0.2,-1.7 -0.08,-1.07 0.3,-2.46 -0.8,-0.36 -0.45,-0.17 -2.21,0.26 0.04,-2.29 0.22,-1.23 -0.48,-2.7 -1.25,-2.65 -0.15,-4.13 0.13,-6.86l-3.1 -2.87c-0.11,-0.06 -0.27,-0.09 -0.39,-0.14l-1.27 -0.43c-0.07,-0.18 -0.29,-0.09 -0.42,-0.17 0.45,-1.14 1.2,-1.36 2.02,-2.21 -2.22,-1.91 -1.48,-0.73 -1.69,-4.53 -0.09,-1.78 -0.29,-3.62 -2.25,-2.59 -0.62,0.32 -0.06,-0.01 -0.82,0.71 -2.55,2.41 -1.89,3.33 -4.08,6.55 0.66,1.98 -0.29,0.51 1.56,2.07 -2.04,1.39 -1.2,-0.66 -1.82,2.06 -0.47,2.06 0.95,0.7 -0.89,2.21 -0.84,0.69 -1.74,1.04 -2.06,2.17 -0.64,2.29 -0.03,1.74 1.25,2.44 -0.62,1.46 0.41,0.17 -1.5,1.45l1 1.09c0.38,0.5 0.21,0.08 0.45,0.82 -1.72,-0.02 -2.99,-0.31 -4.17,-0.69 0.55,2.69 0.8,1.18 1.16,3.44 -2.7,2.9 -1.37,1.67 -1.98,5.11 -0.44,2.46 -0.03,0.12 -1.09,2.43 -0.53,1.16 -0.38,1.38 -1.13,2.78 1.31,0.82 1.94,0.79 2.05,2.59l-2.62 1.03c0.43,3.81 0.52,2.14 3.15,3.26 -0.37,0.79 -0.89,1.49 -1.39,2.22 -1.49,-0.17 -5.2,-2.51 -5.85,-0.48 -0.03,0.09 -0.12,0.26 -0.15,0.38 -0.07,0.28 0.31,5.34 -0.47,8.15 -0.94,3.43 -1.35,2.56 -0.43,6.58 1.17,5.14 0.02,1.19 -0.94,4.17 1.33,0.34 0.87,-0.1 1.87,0.72 2.21,1.82 -0.24,2.63 1.3,4.44l0.65 0.52c-1.87,3.84 0.55,1.53 -0.79,4.98 -2.96,1.08 -2.17,-0.89 -4.32,-1.22 -1.01,3 0.11,7.9 -2.03,9.93 -1.78,-2.59 -1.85,-6.21 -3.63,-8.7 -1.35,-1.88 -1.16,-4.84 -3.81,-5.38 -1.79,1.47 -0.31,0.24 -1.32,2.21 -0.67,1.31 -0.51,0.86 -1.59,2 -1.4,1.49 -2.29,2.51 -2.11,4.83 0.18,2.41 0.03,1.79 -0.54,4.37l-0.92 4.31c-0.6,1.34 -0.28,0.64 -0.85,2.23 -0.8,2.21 -1.86,2.42 -2.3,4.96 -1.3,7.33 -1.22,2.94 -2.02,9l-3.49 6.78 0.72 3.05c0.38,1.42 0.33,1.06 -0.41,2.26 -0.96,1.55 -2.18,2.44 -3.87,3.34 -0.52,11.75 -2.48,5.18 -3.08,11.54 -0.2,2.13 -0.2,2.52 0.34,4.31l-2.61 -0.43c0.44,2.69 -1.07,1.32 0.49,3.48 2.05,2.85 -0.29,-1.42 0.7,0.76l-4.01 2.93c-0.78,-1.53 -0.11,-2.49 -1.82,-3.34 1.03,-1 1.04,-0.15 0.98,-2.53l-2.77 -7.87c-2.38,1.02 -0.03,-0.14 -1.68,1.51 -0.07,0.07 -0.18,0.18 -0.25,0.25 -1.93,1.96 -1,3.9 -2.72,5.9 -1.78,-1.37 -0.63,-1.19 -0.61,-3.92l-2.04 -0.06c-0.05,-0.77 0.01,-2.52 -0.08,-3.08 -0.49,-2.87 -0.01,-0.33 -0.77,-1.72l-0.99 -3.98c-0.11,-0.06 -0.28,-0.09 -0.35,-0.11 -1.74,-0.46 -0.61,0.29 -1.9,-0.41l0.16 -3.23c-1.62,-4.9 -0.12,-1.07 -0.13,-5.04l-0.19 -1.33c-0.55,-1.92 -0.95,-0.8 -1.12,-3.6 -2,-0.19 -1.96,0.17 -3.38,-0.74 0.71,-2.19 0.65,-0.37 1.53,-2.59 -2.65,-1.7 -1.41,0.56 -1.68,-5.46z"/>
 </g>
</svg>
